<?xml version="1.0" encoding="utf-8"?>
<!-- Generator: Adobe Illustrator 27.5.0, SVG Export Plug-In . SVG Version: 6.00 Build 0)  -->
<svg version="1.1" id="Layer_1" xmlns="http://www.w3.org/2000/svg" xmlns:xlink="http://www.w3.org/1999/xlink" x="0px" y="0px"
	 viewBox="0 0 450 450" style="enable-background:new 0 0 450 450;" xml:space="preserve">
<g>
	<g>
		<polygon style="fill:#E67E22;" points="20,45.977 53.23,22.442 86.46,45.977 		"/>
		<polygon style="fill:#D35400;" points="86.46,45.977 59.312,67.44 53.23,67.44 47.148,67.44 20,45.977 		"/>
		<path style="fill:#E0D4C0;" d="M76.751,29.022H39.71c-5.523,0-10,4.477-10,10v49.881h47.041V29.022z"/>
		<path style="fill:#B5AB9B;" d="M76.751,29.022H39.71c-5.523,0-10,4.477-10,10v4.258h47.041V29.022z"/>
		<polygon style="fill:#F1C40F;" points="20,88.903 47.148,67.44 20,45.977 		"/>
		<polygon style="fill:#F1C40F;" points="86.46,88.903 59.312,67.44 86.46,45.977 		"/>
		<polygon style="fill:#F39C12;" points="20,88.903 47.148,67.44 59.312,67.44 86.46,88.903 		"/>
	</g>
	<path style="fill:#F7EBD7;" d="M85.918,29.022H38.877c5.063,0,9.167,4.104,9.167,9.167h28.707h18.334
		C95.085,33.126,90.98,29.022,85.918,29.022z"/>
	<g>
		<path style="fill:#3498DB;" d="M49.289,56.854c0-2.639-2.14-4.778-4.778-4.778c-2.639,0-4.778,2.139-4.778,4.778
			c0,2.639,2.139,4.778,4.778,4.778C47.149,61.632,49.289,59.492,49.289,56.854z"/>
		<path style="fill:#3498DB;" d="M67.892,56.121c0-3.044-2.468-5.511-5.511-5.511c-3.044,0-5.511,2.467-5.511,5.511
			c0,3.043,2.467,5.511,5.511,5.511C65.424,61.632,67.892,59.164,67.892,56.121z"/>
		
			<ellipse transform="matrix(0.9732 -0.2298 0.2298 0.9732 -10.8374 13.7483)" style="fill:#3498DB;" cx="53.621" cy="53.413" rx="8.219" ry="8.219"/>
		<rect x="44.51" y="54.956" style="fill:#3498DB;" width="17.871" height="6.658"/>
	</g>
	<polygon style="fill:#BDC3C7;" points="20,45.977 47.148,67.44 59.312,67.44 86.46,45.977 58.555,65.237 48.02,65.237 	"/>
</g>
<g>
	<path style="fill:#BDC3C7;" d="M201.147,72.634h-64.795c-2.127,0-3.852-1.725-3.852-3.852V31.403c0-2.127,1.725-3.852,3.852-3.852
		h64.795c2.127,0,3.853,1.725,3.853,3.852v37.379C205,70.909,203.275,72.634,201.147,72.634z"/>
	
		<rect x="150.208" y="17.842" transform="matrix(-1.836970e-16 1 -1 -1.836970e-16 218.8421 -118.658)" style="fill:#2C3E50;" width="37.083" height="64.5"/>
	<path style="fill:#7F8C8D;" d="M175.861,72.634h-14.222L159.92,92.5h17.659L175.861,72.634z M170.864,83.522
		c0,1.166-0.945,2.11-2.11,2.11h-0.008c-1.165,0-2.11-0.944-2.11-2.11v-4.866c0-1.165,0.945-2.11,2.11-2.11h0.008
		c1.165,0,2.11,0.945,2.11,2.11V83.522z"/>
	<path style="fill:#636D6E;" d="M166.636,79.697v-1.04c0-1.165,0.945-2.11,2.11-2.11h0.008c1.165,0,2.11,0.945,2.11,2.11v1.04h5.608
		l-0.611-7.063h-14.222l-0.611,7.063H166.636z"/>
	<path style="fill:#BDC3C7;" d="M185.033,89.879h-32.566c-0.552,0-1,0.448-1,1V92.5h34.566v-1.621
		C186.033,90.327,185.585,89.879,185.033,89.879z"/>
	<path style="fill:#ECF0F1;" d="M174.816,71.552h-12.133c-0.509,0-0.921-0.413-0.921-0.921l0,0c0-0.509,0.413-0.921,0.921-0.921
		h12.133c0.509,0,0.921,0.413,0.921,0.921l0,0C175.738,71.14,175.325,71.552,174.816,71.552z"/>
	<rect x="195.222" y="72.634" style="fill:#34495E;" width="3.398" height="0.761"/>
	<rect x="189.408" y="72.634" style="fill:#34495E;" width="3.398" height="0.761"/>
	<rect x="183.594" y="72.634" style="fill:#34495E;" width="3.398" height="0.761"/>
	<rect x="177.78" y="72.634" style="fill:#34495E;" width="3.398" height="0.761"/>
	<path style="fill:#39FF8D;" d="M198.621,70.631c0,0.938-0.761,1.699-1.699,1.699c-0.939,0-1.699-0.761-1.699-1.699
		c0-0.938,0.761-1.699,1.699-1.699C197.86,68.932,198.621,69.692,198.621,70.631z"/>
	<circle style="fill:#34495E;" cx="168.75" cy="29.817" r="0.979"/>
	<path style="fill:#4C6B8A;" d="M169.201,29.631c0,0.352-0.285,0.637-0.637,0.637c-0.352,0-0.637-0.285-0.637-0.637
		c0-0.351,0.285-0.637,0.637-0.637C168.916,28.995,169.201,29.28,169.201,29.631z"/>
	<g>
		<g>
			<path style="fill:#3498DB;" d="M160.683,55.86c0-4.706-3.815-8.521-8.521-8.521c-4.706,0-8.521,3.815-8.521,8.521
				c0,4.706,3.815,8.521,8.521,8.521C156.868,64.381,160.683,60.566,160.683,55.86z"/>
			<path style="fill:#3498DB;" d="M193.859,54.553c0-5.428-4.4-9.828-9.828-9.828c-5.428,0-9.828,4.4-9.828,9.828
				c0,5.428,4.4,9.828,9.828,9.828C189.459,64.381,193.859,59.981,193.859,54.553z"/>
			<circle style="fill:#3498DB;" cx="168.409" cy="49.725" r="14.657"/>
			<rect x="152.162" y="52.477" style="fill:#3498DB;" width="31.869" height="11.873"/>
		</g>
		<g>
			<path style="fill:#34495E;" d="M178.222,52.477c0,5.231-4.241,9.472-9.472,9.472s-9.472-4.241-9.472-9.472
				c0-5.232,4.241-9.472,9.472-9.472S178.222,47.245,178.222,52.477z"/>
			<g>
				<g>
					<rect x="168.25" y="43.004" style="fill:#3498DB;" width="1" height="18.944"/>
				</g>
				<g>
					<rect x="159.278" y="51.977" style="fill:#3498DB;" width="18.944" height="1"/>
				</g>
				<g>
					<path style="fill:#3498DB;" d="M168.496,62.968c-3.748-2.216-5.984-6.138-5.984-10.492c0-4.354,2.237-8.276,5.984-10.492
						l0.509,0.86c-3.439,2.035-5.493,5.635-5.493,9.631c0,3.996,2.054,7.597,5.493,9.631L168.496,62.968z"/>
				</g>
				<g>
					<path style="fill:#3498DB;" d="M169.004,62.968l-0.509-0.86c3.439-2.035,5.493-5.635,5.493-9.631
						c0-3.997-2.054-7.597-5.493-9.631l0.509-0.86c3.748,2.216,5.984,6.138,5.984,10.492
						C174.989,56.83,172.752,60.752,169.004,62.968z"/>
				</g>
				<g>
					<path style="fill:#3498DB;" d="M168.75,48.731c-4.319,0-8.223-1.551-10.442-4.149l0.761-0.649
						c2.031,2.379,5.65,3.799,9.681,3.799c4.031,0,7.65-1.42,9.681-3.799l0.761,0.649C176.973,47.18,173.069,48.731,168.75,48.731z"
						/>
				</g>
				<g>
					<path style="fill:#3498DB;" d="M178.431,61.021c-2.031-2.379-5.65-3.799-9.681-3.799c-4.031,0-7.65,1.42-9.681,3.799
						l-0.761-0.649c2.219-2.599,6.123-4.15,10.442-4.15c4.319,0,8.223,1.551,10.442,4.15L178.431,61.021z"/>
				</g>
			</g>
		</g>
	</g>
	<g>
		<path style="fill:#F1C40F;" d="M163.891,70.631c0,0.343-0.279,0.622-0.622,0.622c-0.344,0-0.622-0.279-0.622-0.622
			c0-0.344,0.278-0.622,0.622-0.622C163.612,70.009,163.891,70.287,163.891,70.631z"/>
		<path style="fill:#F1C40F;" d="M165.718,70.631c0,0.343-0.279,0.622-0.622,0.622c-0.344,0-0.622-0.279-0.622-0.622
			c0-0.344,0.278-0.622,0.622-0.622C165.439,70.009,165.718,70.287,165.718,70.631z"/>
		<path style="fill:#F1C40F;" d="M167.545,70.631c0,0.343-0.279,0.622-0.622,0.622c-0.344,0-0.622-0.279-0.622-0.622
			c0-0.344,0.278-0.622,0.622-0.622C167.266,70.009,167.545,70.287,167.545,70.631z"/>
		<path style="fill:#F1C40F;" d="M169.372,70.631c0,0.343-0.279,0.622-0.622,0.622c-0.344,0-0.622-0.279-0.622-0.622
			c0-0.344,0.278-0.622,0.622-0.622C169.093,70.009,169.372,70.287,169.372,70.631z"/>
		<path style="fill:#F1C40F;" d="M171.199,70.631c0,0.343-0.278,0.622-0.622,0.622c-0.343,0-0.622-0.279-0.622-0.622
			c0-0.344,0.279-0.622,0.622-0.622C170.921,70.009,171.199,70.287,171.199,70.631z"/>
		<path style="fill:#F1C40F;" d="M173.026,70.631c0,0.343-0.278,0.622-0.622,0.622c-0.343,0-0.622-0.279-0.622-0.622
			c0-0.344,0.279-0.622,0.622-0.622C172.748,70.009,173.026,70.287,173.026,70.631z"/>
		<path style="fill:#F1C40F;" d="M174.854,70.631c0,0.343-0.278,0.622-0.622,0.622c-0.343,0-0.622-0.279-0.622-0.622
			c0-0.344,0.279-0.622,0.622-0.622C174.575,70.009,174.854,70.287,174.854,70.631z"/>
	</g>
</g>
<g>
	<g>
		<g>
			<path style="fill:#34495E;" d="M304.851,34.997h-47.201c-1.542,0-2.791-1.25-2.791-2.791v-5.968c0-1.542,1.249-2.792,2.791-2.792
				h47.201c1.542,0,2.791,1.25,2.791,2.792v5.968C307.642,33.748,306.393,34.997,304.851,34.997z"/>
			<path style="fill:#39FF8D;" d="M263.797,29.222c0,1.726-1.399,3.126-3.126,3.126c-1.728,0-3.127-1.4-3.127-3.126
				c0-1.727,1.4-3.127,3.127-3.127C262.397,26.096,263.797,27.496,263.797,29.222z"/>
			<path style="fill:#F1C40F;" d="M269.796,29.222c0,0.84-0.681,1.521-1.521,1.521c-0.84,0-1.521-0.681-1.521-1.521
				c0-0.84,0.682-1.521,1.521-1.521C269.115,27.701,269.796,28.382,269.796,29.222z"/>
			<path style="fill:#F1C40F;" d="M274.528,29.222c0,0.84-0.682,1.521-1.521,1.521c-0.84,0-1.521-0.681-1.521-1.521
				c0-0.84,0.681-1.521,1.521-1.521C273.847,27.701,274.528,28.382,274.528,29.222z"/>
			<path style="fill:#F1C40F;" d="M279.26,29.222c0,0.84-0.681,1.521-1.521,1.521c-0.841,0-1.521-0.681-1.521-1.521
				c0-0.84,0.681-1.521,1.521-1.521C278.579,27.701,279.26,28.382,279.26,29.222z"/>
			<path style="fill:#1C2833;" d="M284.164,32.349h-0.008c-0.558,0-1.01-0.453-1.01-1.01v-4.233c0-0.558,0.452-1.01,1.01-1.01h0.008
				c0.559,0,1.011,0.452,1.011,1.01v4.233C285.175,31.896,284.723,32.349,284.164,32.349z"/>
			<path style="fill:#1C2833;" d="M288.052,32.349h-0.009c-0.558,0-1.01-0.453-1.01-1.01v-4.233c0-0.558,0.452-1.01,1.01-1.01h0.009
				c0.558,0,1.01,0.452,1.01,1.01v4.233C289.061,31.896,288.609,32.349,288.052,32.349z"/>
			<path style="fill:#1C2833;" d="M291.939,32.349h-0.008c-0.559,0-1.011-0.453-1.011-1.01v-4.233c0-0.558,0.452-1.01,1.011-1.01
				h0.008c0.558,0,1.01,0.452,1.01,1.01v4.233C292.948,31.896,292.496,32.349,291.939,32.349z"/>
			<path style="fill:#1C2833;" d="M295.825,32.349h-0.008c-0.558,0-1.011-0.453-1.011-1.01v-4.233c0-0.558,0.453-1.01,1.011-1.01
				h0.008c0.558,0,1.01,0.452,1.01,1.01v4.233C296.835,31.896,296.383,32.349,295.825,32.349z"/>
			<path style="fill:#1C2833;" d="M299.712,32.349h-0.008c-0.558,0-1.01-0.453-1.01-1.01v-4.233c0-0.558,0.452-1.01,1.01-1.01h0.008
				c0.558,0,1.01,0.452,1.01,1.01v4.233C300.722,31.896,300.27,32.349,299.712,32.349z"/>
			<path style="fill:#1C2833;" d="M303.599,32.349h-0.008c-0.558,0-1.01-0.453-1.01-1.01v-4.233c0-0.558,0.452-1.01,1.01-1.01h0.008
				c0.558,0,1.01,0.452,1.01,1.01v4.233C304.608,31.896,304.156,32.349,303.599,32.349z"/>
			<g>
				<rect x="259.703" y="34.997" style="fill:#1C2833;" width="7.098" height="1.571"/>
				<rect x="295.699" y="34.997" style="fill:#1C2833;" width="7.098" height="1.571"/>
			</g>
		</g>
		<g>
			<path style="fill:#34495E;" d="M304.851,48.118h-47.201c-1.542,0-2.791-1.25-2.791-2.791v-5.968c0-1.542,1.249-2.791,2.791-2.791
				h47.201c1.542,0,2.791,1.25,2.791,2.791v5.968C307.642,46.869,306.393,48.118,304.851,48.118z"/>
			<path style="fill:#39FF8D;" d="M287.728,42.343c0,2.279-1.847,4.126-4.126,4.126c-2.279,0-4.126-1.848-4.126-4.126
				s1.847-4.126,4.126-4.126C285.882,38.217,287.728,40.064,287.728,42.343z"/>
			<path style="fill:#F1C40F;" d="M260.586,39.738c0,0.84-0.681,1.521-1.521,1.521c-0.841,0-1.522-0.681-1.522-1.521
				c0-0.84,0.681-1.521,1.522-1.521C259.905,38.217,260.586,38.898,260.586,39.738z"/>
			<path style="fill:#F1C40F;" d="M265.317,39.738c0,0.84-0.681,1.521-1.52,1.521c-0.84,0-1.522-0.681-1.522-1.521
				c0-0.84,0.682-1.521,1.522-1.521C264.637,38.217,265.317,38.898,265.317,39.738z"/>
			<path style="fill:#F1C40F;" d="M270.05,39.738c0,0.84-0.681,1.521-1.522,1.521c-0.84,0-1.521-0.681-1.521-1.521
				c0-0.84,0.681-1.521,1.521-1.521C269.369,38.217,270.05,38.898,270.05,39.738z"/>
			<path style="fill:#F1C40F;" d="M260.586,44.949c0,0.84-0.681,1.521-1.521,1.521c-0.841,0-1.522-0.681-1.522-1.521
				c0-0.84,0.681-1.521,1.522-1.521C259.905,43.428,260.586,44.109,260.586,44.949z"/>
			<path style="fill:#F1C40F;" d="M265.317,44.949c0,0.84-0.681,1.521-1.52,1.521c-0.84,0-1.522-0.681-1.522-1.521
				c0-0.84,0.682-1.521,1.522-1.521C264.637,43.428,265.317,44.109,265.317,44.949z"/>
			<path style="fill:#F1C40F;" d="M270.05,44.949c0,0.84-0.681,1.521-1.522,1.521c-0.84,0-1.521-0.681-1.521-1.521
				c0-0.84,0.681-1.521,1.521-1.521C269.369,43.428,270.05,44.109,270.05,44.949z"/>
			<path style="fill:#F1C40F;" d="M274.674,39.738c0,0.84-0.681,1.521-1.521,1.521c-0.84,0-1.521-0.681-1.521-1.521
				c0-0.84,0.682-1.521,1.521-1.521C273.993,38.217,274.674,38.898,274.674,39.738z"/>
			<path style="fill:#F1C40F;" d="M274.674,44.949c0,0.84-0.681,1.521-1.521,1.521c-0.84,0-1.521-0.681-1.521-1.521
				c0-0.84,0.682-1.521,1.521-1.521C273.993,43.428,274.674,44.109,274.674,44.949z"/>
			<path style="fill:#1C2833;" d="M295.825,45.47h-0.008c-0.558,0-1.011-0.452-1.011-1.01v-4.232c0-0.558,0.453-1.01,1.011-1.01
				h0.008c0.558,0,1.01,0.452,1.01,1.01v4.232C296.835,45.018,296.383,45.47,295.825,45.47z"/>
			<path style="fill:#1C2833;" d="M299.712,45.47h-0.008c-0.558,0-1.01-0.452-1.01-1.01v-4.232c0-0.558,0.452-1.01,1.01-1.01h0.008
				c0.558,0,1.01,0.452,1.01,1.01v4.232C300.722,45.018,300.27,45.47,299.712,45.47z"/>
			<path style="fill:#1C2833;" d="M303.599,45.47h-0.008c-0.558,0-1.01-0.452-1.01-1.01v-4.232c0-0.558,0.452-1.01,1.01-1.01h0.008
				c0.558,0,1.01,0.452,1.01,1.01v4.232C304.608,45.018,304.156,45.47,303.599,45.47z"/>
			<g>
				<rect x="259.703" y="48.118" style="fill:#1C2833;" width="7.098" height="1.571"/>
				<rect x="295.699" y="48.118" style="fill:#1C2833;" width="7.098" height="1.571"/>
			</g>
		</g>
		<g>
			<path style="fill:#34495E;" d="M257.649,61.24h47.201c1.542,0,2.791-1.25,2.791-2.792V52.48c0-1.542-1.249-2.791-2.791-2.791
				h-47.201c-1.542,0-2.791,1.25-2.791,2.791v5.968C254.858,59.99,256.107,61.24,257.649,61.24z"/>
			<g>
				<path style="fill:#39FF8D;" d="M278.124,55.464c0,1.727,1.399,3.126,3.126,3.126s3.126-1.399,3.126-3.126
					c0-1.727-1.399-3.126-3.126-3.126S278.124,53.738,278.124,55.464z"/>
				<path style="fill:#F1C40F;" d="M273.243,55.464c0,0.84,0.681,1.521,1.521,1.521c0.841,0,1.521-0.681,1.521-1.521
					c0-0.84-0.681-1.521-1.521-1.521C273.924,53.943,273.243,54.625,273.243,55.464z"/>
				<path style="fill:#F1C40F;" d="M268.512,55.464c0,0.84,0.681,1.521,1.521,1.521c0.84,0,1.521-0.681,1.521-1.521
					c0-0.84-0.682-1.521-1.521-1.521C269.192,53.943,268.512,54.625,268.512,55.464z"/>
				<path style="fill:#F1C40F;" d="M263.779,55.464c0,0.84,0.682,1.521,1.521,1.521c0.84,0,1.521-0.681,1.521-1.521
					c0-0.84-0.681-1.521-1.521-1.521C264.461,53.943,263.779,54.625,263.779,55.464z"/>
				<path style="fill:#F1C40F;" d="M289.257,55.464c0,0.84-0.681,1.521-1.521,1.521c-0.841,0-1.522-0.681-1.522-1.521
					c0-0.84,0.681-1.521,1.522-1.521C288.576,53.943,289.257,54.625,289.257,55.464z"/>
				<path style="fill:#F1C40F;" d="M293.988,55.464c0,0.84-0.681,1.521-1.52,1.521c-0.84,0-1.522-0.681-1.522-1.521
					c0-0.84,0.682-1.521,1.522-1.521C293.308,53.943,293.988,54.625,293.988,55.464z"/>
				<path style="fill:#F1C40F;" d="M298.721,55.464c0,0.84-0.682,1.521-1.522,1.521c-0.84,0-1.521-0.681-1.521-1.521
					c0-0.84,0.681-1.521,1.521-1.521C298.039,53.943,298.721,54.625,298.721,55.464z"/>
			</g>
			<path style="fill:#1C2833;" d="M258.901,58.591h0.008c0.558,0,1.01-0.452,1.01-1.01v-4.233c0-0.558-0.452-1.01-1.01-1.01h-0.008
				c-0.558,0-1.01,0.452-1.01,1.01v4.233C257.892,58.139,258.344,58.591,258.901,58.591z"/>
			<path style="fill:#1C2833;" d="M303.599,58.591h-0.008c-0.558,0-1.01-0.452-1.01-1.01v-4.233c0-0.558,0.452-1.01,1.01-1.01h0.008
				c0.558,0,1.01,0.452,1.01,1.01v4.233C304.608,58.139,304.156,58.591,303.599,58.591z"/>
			<g>
				
					<rect x="295.699" y="61.24" transform="matrix(-1 -1.224647e-16 1.224647e-16 -1 598.4961 124.0502)" style="fill:#1C2833;" width="7.098" height="1.571"/>
				
					<rect x="259.703" y="61.24" transform="matrix(-1 -1.224647e-16 1.224647e-16 -1 526.5039 124.0502)" style="fill:#1C2833;" width="7.098" height="1.571"/>
			</g>
		</g>
		<g>
			<path style="fill:#34495E;" d="M257.649,74.361h47.201c1.542,0,2.791-1.25,2.791-2.791v-5.968c0-1.542-1.249-2.792-2.791-2.792
				h-47.201c-1.542,0-2.791,1.25-2.791,2.792v5.968C254.858,73.111,256.107,74.361,257.649,74.361z"/>
			<path style="fill:#39FF8D;" d="M298.703,68.586c0,1.727,1.399,3.126,3.126,3.126c1.727,0,3.127-1.399,3.127-3.126
				c0-1.727-1.4-3.126-3.127-3.126C300.102,65.46,298.703,66.859,298.703,68.586z"/>
			<path style="fill:#F1C40F;" d="M292.704,68.586c0,0.84,0.681,1.521,1.52,1.521c0.84,0,1.522-0.681,1.522-1.521
				c0-0.84-0.682-1.521-1.522-1.521C293.385,67.065,292.704,67.746,292.704,68.586z"/>
			<path style="fill:#1C2833;" d="M278.336,71.712h0.008c0.558,0,1.01-0.452,1.01-1.01v-4.233c0-0.558-0.452-1.01-1.01-1.01h-0.008
				c-0.559,0-1.011,0.452-1.011,1.01v4.233C277.325,71.26,277.777,71.712,278.336,71.712z"/>
			<path style="fill:#1C2833;" d="M282.129,71.712h0.008c0.558,0,1.01-0.452,1.01-1.01v-4.233c0-0.558-0.452-1.01-1.01-1.01h-0.008
				c-0.558,0-1.01,0.452-1.01,1.01v4.233C281.119,71.26,281.571,71.712,282.129,71.712z"/>
			<path style="fill:#1C2833;" d="M274.448,71.712h0.009c0.558,0,1.01-0.452,1.01-1.01v-4.233c0-0.558-0.452-1.01-1.01-1.01h-0.009
				c-0.558,0-1.01,0.452-1.01,1.01v4.233C273.439,71.26,273.891,71.712,274.448,71.712z"/>
			<path style="fill:#1C2833;" d="M270.561,71.712h0.008c0.559,0,1.011-0.452,1.011-1.01v-4.233c0-0.558-0.452-1.01-1.011-1.01
				h-0.008c-0.558,0-1.01,0.452-1.01,1.01v4.233C269.552,71.26,270.004,71.712,270.561,71.712z"/>
			<path style="fill:#1C2833;" d="M266.675,71.712h0.008c0.558,0,1.011-0.452,1.011-1.01v-4.233c0-0.558-0.453-1.01-1.011-1.01
				h-0.008c-0.558,0-1.01,0.452-1.01,1.01v4.233C265.665,71.26,266.117,71.712,266.675,71.712z"/>
			<path style="fill:#1C2833;" d="M262.788,71.712h0.008c0.558,0,1.01-0.452,1.01-1.01v-4.233c0-0.558-0.452-1.01-1.01-1.01h-0.008
				c-0.558,0-1.01,0.452-1.01,1.01v4.233C261.778,71.26,262.23,71.712,262.788,71.712z"/>
			<path style="fill:#1C2833;" d="M258.901,71.712h0.008c0.558,0,1.01-0.452,1.01-1.01v-4.233c0-0.558-0.452-1.01-1.01-1.01h-0.008
				c-0.558,0-1.01,0.452-1.01,1.01v4.233C257.892,71.26,258.344,71.712,258.901,71.712z"/>
			<g>
				
					<rect x="295.699" y="74.361" transform="matrix(-1 -1.224647e-16 1.224647e-16 -1 598.4961 150.2929)" style="fill:#1C2833;" width="7.098" height="1.571"/>
				
					<rect x="259.703" y="74.361" transform="matrix(-1 -1.224647e-16 1.224647e-16 -1 526.5039 150.2929)" style="fill:#1C2833;" width="7.098" height="1.571"/>
			</g>
		</g>
		<g>
			<path style="fill:#34495E;" d="M304.851,87.482h-47.201c-1.542,0-2.791-1.25-2.791-2.791v-5.968c0-1.541,1.249-2.791,2.791-2.791
				h47.201c1.542,0,2.791,1.25,2.791,2.791v5.968C307.642,86.232,306.393,87.482,304.851,87.482z"/>
			<path style="fill:#39FF8D;" d="M266.144,81.707c0,2.279-1.847,4.127-4.126,4.127c-2.279,0-4.126-1.848-4.126-4.127
				s1.847-4.126,4.126-4.126C264.297,77.581,266.144,79.428,266.144,81.707z"/>
			<path style="fill:#39FF8D;" d="M276.636,81.707c0,2.279-1.848,4.127-4.126,4.127c-2.279,0-4.127-1.848-4.127-4.127
				s1.848-4.126,4.127-4.126C274.788,77.581,276.636,79.428,276.636,81.707z"/>
			<path style="fill:#F1C40F;" d="M282.302,79.102c0,0.84-0.681,1.521-1.521,1.521c-0.841,0-1.521-0.681-1.521-1.521
				c0-0.84,0.681-1.521,1.521-1.521C281.621,77.581,282.302,78.262,282.302,79.102z"/>
			<circle style="fill:#F1C40F;" cx="285.513" cy="79.102" r="1.521"/>
			<path style="fill:#F1C40F;" d="M282.302,84.313c0,0.84-0.681,1.521-1.521,1.521c-0.841,0-1.521-0.681-1.521-1.521
				c0-0.84,0.681-1.521,1.521-1.521C281.621,82.791,282.302,83.472,282.302,84.313z"/>
			<circle style="fill:#F1C40F;" cx="285.513" cy="84.313" r="1.521"/>
			<path style="fill:#F1C40F;" d="M291.579,79.102c0,0.84-0.682,1.521-1.522,1.521c-0.84,0-1.521-0.681-1.521-1.521
				c0-0.84,0.681-1.521,1.521-1.521C290.897,77.581,291.579,78.262,291.579,79.102z"/>
			<path style="fill:#F1C40F;" d="M291.579,84.313c0,0.84-0.682,1.521-1.522,1.521c-0.84,0-1.521-0.681-1.521-1.521
				c0-0.84,0.681-1.521,1.521-1.521C290.897,82.791,291.579,83.472,291.579,84.313z"/>
			<path style="fill:#1C2833;" d="M295.825,84.834h-0.008c-0.558,0-1.011-0.452-1.011-1.01v-4.232c0-0.558,0.453-1.01,1.011-1.01
				h0.008c0.558,0,1.01,0.452,1.01,1.01v4.232C296.835,84.381,296.383,84.834,295.825,84.834z"/>
			<path style="fill:#1C2833;" d="M299.712,84.834h-0.008c-0.558,0-1.01-0.452-1.01-1.01v-4.232c0-0.558,0.452-1.01,1.01-1.01h0.008
				c0.558,0,1.01,0.452,1.01,1.01v4.232C300.722,84.381,300.27,84.834,299.712,84.834z"/>
			<path style="fill:#1C2833;" d="M303.599,84.834h-0.008c-0.558,0-1.01-0.452-1.01-1.01v-4.232c0-0.558,0.452-1.01,1.01-1.01h0.008
				c0.558,0,1.01,0.452,1.01,1.01v4.232C304.608,84.381,304.156,84.834,303.599,84.834z"/>
			<g>
				<rect x="259.703" y="87.482" style="fill:#1C2833;" width="7.098" height="1.571"/>
				<rect x="295.699" y="87.482" style="fill:#1C2833;" width="7.098" height="1.571"/>
			</g>
		</g>
	</g>
	<g>
		<path style="fill:#1C2833;" d="M307.642,82.207v-1c2.899,0,5.146-2.091,6.681-6.214c1.37-3.685,2.095-8.849,2.095-14.933
			c0-11.871-2.613-23.571-5.852-28.229c1.82,3.61,3.358,9.712,3.358,14.741c0,2.746-0.452,4.94-1.344,6.523
			c-0.782,1.389-1.879,2.279-3.27,2.659c1.494,1.466,2.512,4.724,2.512,7.63c0,1.582-0.314,2.931-0.908,3.901
			c-0.723,1.178-1.853,1.801-3.271,1.801v-1c1.081,0,1.872-0.433,2.419-1.324c0.498-0.813,0.761-1.981,0.761-3.378
			c0-3.537-1.664-7.419-3.18-7.419v-1c1.842,0,3.173-0.772,4.067-2.36c0.806-1.432,1.215-3.461,1.215-6.033
			c0-7.855-3.75-16.849-5.282-16.849v-1c5.595,0,9.775,16.544,9.775,31.337c0,6.202-0.746,11.486-2.158,15.282
			C313.589,79.833,310.954,82.207,307.642,82.207z"/>
	</g>
	<g>
		<path style="fill:#1C2833;" d="M254.858,82.207c-2.366,0-4.242-1.129-5.426-3.265c-0.99-1.786-1.514-4.31-1.514-7.296
			c0-6.138,2.277-13.653,5.165-15.969c-3.768-1.301-5.16-6.808-5.16-12.003c0-7.379,2.651-15.344,6.935-15.344v1
			c-1.771,0-2.828,3.288-2.828,6.467c0,1.67,0.273,3.2,0.771,4.309c0.519,1.153,1.21,1.738,2.057,1.738v1
			c-0.877,0-2.105-0.404-2.969-2.329c-0.555-1.234-0.859-2.91-0.859-4.718c0-1.317,0.16-2.671,0.493-3.858
			c-1.615,2.798-2.6,7.424-2.6,11.736c0,3.161,0.519,5.993,1.462,7.973c1.048,2.202,2.553,3.318,4.473,3.318v1
			c-2.775,0-5.939,8.354-5.939,15.682c0,2.818,0.479,5.173,1.388,6.811c1.012,1.825,2.543,2.75,4.552,2.75V82.207z"/>
	</g>
</g>
<g>
	<g>
		<polygon style="fill:#1F2B38;" points="366.709,36.005 361.889,37.459 368.516,61.526 374.492,59.723 		"/>
		<path style="fill:#1F2B38;" d="M360.011,22.513L360.011,22.513c-0.975,0.294-1.528,1.324-1.234,2.3l6.672,22.125l3.535-1.066
			l-6.672-22.125C362.017,22.771,360.987,22.218,360.011,22.513z"/>
		<polygon style="fill:#1F2B38;" points="420.791,36.005 425.611,37.459 418.984,61.526 413.008,59.723 		"/>
		<path style="fill:#1F2B38;" d="M427.489,22.513L427.489,22.513c0.975,0.294,1.528,1.324,1.234,2.3l-6.672,22.125l-3.535-1.066
			l6.672-22.125C425.483,22.771,426.513,22.218,427.489,22.513z"/>
	</g>
	<path style="fill:#BDC3C7;" d="M423.797,58.591h-60.094c-3.426,0-6.203,2.777-6.203,6.204v6.302c0,3.426,2.777,6.203,6.203,6.203
		h60.094c3.426,0,6.203-2.777,6.203-6.203v-6.302C430,61.368,427.223,58.591,423.797,58.591z"/>
	<path style="fill:#34495E;" d="M362.683,64.996h62.408c2.11,0,3.744,0.735,4.909,1.872v-2.074c0-3.426-2.777-6.204-6.203-6.204
		h-60.094c-3.426,0-6.203,2.777-6.203,6.204v2.365C358.678,65.859,360.402,64.996,362.683,64.996z"/>
	<rect x="363.703" y="58.591" style="fill:#39FF8D;" width="2.343" height="4.882"/>
	<rect x="368.313" y="58.591" style="fill:#39FF8D;" width="2.343" height="4.882"/>
	<rect x="372.921" y="58.591" style="fill:#39FF8D;" width="2.343" height="4.882"/>
	<rect x="377.53" y="58.591" style="fill:#39FF8D;" width="2.343" height="4.882"/>
	<rect x="382.14" y="58.591" style="fill:#39FF8D;" width="2.343" height="4.882"/>
	<path style="fill:#F1C40F;" d="M425.05,67.945c0,3.623-2.938,6.561-6.56,6.561c-3.624,0-6.561-2.938-6.561-6.561
		c0-3.623,2.937-6.56,6.561-6.56C422.112,61.385,425.05,64.322,425.05,67.945z"/>
	<path style="fill:#34495E;" d="M400.319,70.26h8.357c0.81,0,1.466,0.656,1.466,1.466v1.314c0,0.81-0.656,1.466-1.466,1.466h-8.357
		c-0.809,0-1.466-0.656-1.466-1.466v-1.314C398.853,70.916,399.51,70.26,400.319,70.26z"/>
	<path style="fill:#34495E;" d="M386.832,70.26h8.356c0.81,0,1.466,0.656,1.466,1.466v1.314c0,0.81-0.656,1.466-1.466,1.466h-8.356
		c-0.81,0-1.467-0.656-1.467-1.466v-1.314C385.365,70.916,386.022,70.26,386.832,70.26z"/>
	<g>
		<path style="fill:#1F2B38;" d="M370.887,80.906h-1.934c-1.992,0-3.606-1.615-3.606-3.606l0,0h9.146l0,0
			C374.492,79.291,372.878,80.906,370.887,80.906z"/>
		<path style="fill:#1F2B38;" d="M418.547,80.906h-1.934c-1.991,0-3.605-1.615-3.605-3.606l0,0h9.146l0,0
			C422.153,79.291,420.539,80.906,418.547,80.906z"/>
	</g>
	<path style="fill:#1F2B38;" d="M364.875,74.506L364.875,74.506c-0.648,0-1.172-0.524-1.172-1.171v-1.903
		c0-0.647,0.524-1.171,1.172-1.171l0,0c0.646,0,1.171,0.524,1.171,1.171v1.903C366.046,73.981,365.521,74.506,364.875,74.506z"/>
	<path style="fill:#1F2B38;" d="M368.983,74.506L368.983,74.506c-0.648,0-1.171-0.524-1.171-1.171v-1.903
		c0-0.647,0.523-1.171,1.171-1.171l0,0c0.646,0,1.171,0.524,1.171,1.171v1.903C370.154,73.981,369.63,74.506,368.983,74.506z"/>
	<path style="fill:#1F2B38;" d="M373.092,74.506L373.092,74.506c-0.647,0-1.171-0.524-1.171-1.171v-1.903
		c0-0.647,0.524-1.171,1.171-1.171l0,0c0.647,0,1.172,0.524,1.172,1.171v1.903C374.264,73.981,373.739,74.506,373.092,74.506z"/>
	<g>
		<path style="fill:#ECF0F1;" d="M419.541,70.718c0,0.581-0.471,1.052-1.052,1.052c-0.582,0-1.053-0.471-1.053-1.052
			c0-0.581,0.471-1.052,1.053-1.052C419.07,69.665,419.541,70.137,419.541,70.718z"/>
		<g>
			<path style="fill:#ECF0F1;" d="M419.601,69.606c-0.594-0.594-1.629-0.594-2.223,0l-0.707-0.707c0.971-0.971,2.664-0.972,3.637,0
				L419.601,69.606z"/>
		</g>
		<g>
			<path style="fill:#ECF0F1;" d="M416.124,68.354l-0.707-0.707c0.821-0.821,1.912-1.272,3.072-1.272
				c1.16,0,2.251,0.452,3.071,1.272l-0.707,0.707C419.589,67.089,417.387,67.09,416.124,68.354z"/>
		</g>
		<g>
			<path style="fill:#ECF0F1;" d="M422.181,67.025c-2.036-2.036-5.35-2.035-7.384,0l-0.707-0.707c2.425-2.424,6.371-2.426,8.798,0
				L422.181,67.025z"/>
		</g>
	</g>
</g>
<g>
	<rect x="20" y="142.672" style="fill:#E67E22;" width="63.689" height="47.389"/>
	<polygon style="fill:#BFB4A4;" points="83.689,190.061 20,190.061 22.228,145.335 85.918,145.335 	"/>
	<polygon style="fill:#E0D4C0;" points="83.689,190.061 20,190.061 24.872,148.709 88.561,148.709 	"/>
	<polygon style="fill:#F1C40F;" points="83.689,190.061 20,190.061 29.671,151.874 93.361,151.874 	"/>
	<polygon style="fill:#E67E22;" points="51.177,136.998 20,136.998 20,142.672 54.397,142.672 	"/>
	<g>
		<path style="fill:#3498DB;" d="M50.238,175.148c1.56-3.856-0.302-6.983-4.159-6.983c-3.857,0-8.248,3.127-9.807,6.983
			c-1.56,3.856,0.302,6.983,4.159,6.983C44.288,182.131,48.679,179.005,50.238,175.148z"/>
		<path style="fill:#3498DB;" d="M77.858,174.078c1.799-4.448-0.349-8.054-4.796-8.054c-4.448,0-9.512,3.606-11.311,8.054
			c-1.799,4.448,0.349,8.054,4.796,8.054C70.995,182.131,76.059,178.525,77.858,174.078z"/>
		<path style="fill:#3498DB;" d="M70.613,170.121c2.683-6.633-0.519-12.011-7.153-12.011c-6.633,0-14.186,5.377-16.868,12.011
			c-2.683,6.633,0.52,12.011,7.153,12.011S67.931,176.754,70.613,170.121z"/>
		<polygon style="fill:#3498DB;" points="70.493,172.376 44.377,172.376 40.441,182.106 66.558,182.106 		"/>
	</g>
	<rect x="49.292" y="190.061" style="fill:#34495E;" width="5.105" height="6.804"/>
	<rect x="20" y="196.098" style="fill:#34495E;" width="63.689" height="5.828"/>
	<path style="fill:#F1C40F;" d="M57.059,199.012c0,2.88-2.334,5.214-5.214,5.214c-2.88,0-5.214-2.335-5.214-5.214
		s2.334-5.214,5.214-5.214C54.725,193.797,57.059,196.132,57.059,199.012z"/>
	<path style="fill:#FFD940;" d="M53.893,198.168c0,1.652-1.339,2.991-2.991,2.991c-1.651,0-2.99-1.339-2.99-2.991
		c0-1.651,1.339-2.99,2.99-2.99C52.554,195.178,53.893,196.517,53.893,198.168z"/>
</g>
<g>
	<path style="fill:#BDC3C7;" d="M185.479,205h-33.457c-2.98,0-5.396-2.416-5.396-5.396v-61.132c0-2.98,2.416-5.396,5.396-5.396
		h33.457c2.98,0,5.396,2.416,5.396,5.396v61.132C190.874,202.584,188.458,205,185.479,205z"/>
	<path style="fill:#34495E;" d="M150.626,194.036v-53.449c0-0.771,0.625-1.396,1.396-1.396h33.457c0.771,0,1.396,0.625,1.396,1.396
		v53.448c0,0.771-0.625,1.396-1.396,1.396h-33.456C151.251,195.432,150.626,194.807,150.626,194.036z"/>
	<path style="fill:#2C3E50;" d="M178.164,137.632h-18.828c-0.596,0-1.08-0.483-1.08-1.079l0,0c0-0.596,0.483-1.08,1.08-1.08h18.828
		c0.596,0,1.08,0.483,1.08,1.08l0,0C179.244,137.149,178.76,137.632,178.164,137.632z"/>
	<path style="fill:#39FF8D;" d="M160.095,136.553c0,0.406-0.33,0.736-0.737,0.736c-0.407,0-0.736-0.33-0.736-0.736
		c0-0.407,0.33-0.736,0.736-0.736C159.765,135.817,160.095,136.146,160.095,136.553z"/>
	<path style="fill:#E74C3C;" d="M162.164,136.553c0,0.406-0.33,0.736-0.736,0.736c-0.407,0-0.736-0.33-0.736-0.736
		c0-0.407,0.33-0.736,0.736-0.736C161.835,135.817,162.164,136.146,162.164,136.553z"/>
	<path style="fill:#1C2833;" d="M164.233,136.553c0,0.406-0.33,0.736-0.736,0.736c-0.407,0-0.736-0.33-0.736-0.736
		c0-0.407,0.329-0.736,0.736-0.736C163.903,135.817,164.233,136.146,164.233,136.553z"/>
	<path style="fill:#1C2833;" d="M166.302,136.553c0,0.406-0.33,0.736-0.736,0.736c-0.407,0-0.736-0.33-0.736-0.736
		c0-0.407,0.33-0.736,0.736-0.736C165.972,135.817,166.302,136.146,166.302,136.553z"/>
	<path style="fill:#1C2833;" d="M168.371,136.553c0,0.406-0.33,0.736-0.736,0.736c-0.407,0-0.736-0.33-0.736-0.736
		c0-0.407,0.33-0.736,0.736-0.736C168.041,135.817,168.371,136.146,168.371,136.553z"/>
	<path style="fill:#1C2833;" d="M170.44,136.553c0,0.406-0.329,0.736-0.736,0.736c-0.407,0-0.736-0.33-0.736-0.736
		c0-0.407,0.33-0.736,0.736-0.736C170.11,135.817,170.44,136.146,170.44,136.553z"/>
	<path style="fill:#1C2833;" d="M172.509,136.553c0,0.406-0.33,0.736-0.736,0.736c-0.407,0-0.736-0.33-0.736-0.736
		c0-0.407,0.33-0.736,0.736-0.736C172.179,135.817,172.509,136.146,172.509,136.553z"/>
	<path style="fill:#1C2833;" d="M174.578,136.553c0,0.406-0.33,0.736-0.737,0.736c-0.406,0-0.736-0.33-0.736-0.736
		c0-0.407,0.33-0.736,0.736-0.736C174.248,135.817,174.578,136.146,174.578,136.553z"/>
	<path style="fill:#1C2833;" d="M176.647,136.553c0,0.406-0.33,0.736-0.736,0.736c-0.407,0-0.736-0.33-0.736-0.736
		c0-0.407,0.33-0.736,0.736-0.736C176.317,135.817,176.647,136.146,176.647,136.553z"/>
	<path style="fill:#1C2833;" d="M178.716,136.553c0,0.406-0.33,0.736-0.736,0.736c-0.407,0-0.736-0.33-0.736-0.736
		c0-0.407,0.33-0.736,0.736-0.736C178.386,135.817,178.716,136.146,178.716,136.553z"/>
	<path style="fill:#1C2833;" d="M182.845,136.553c0,0.767-0.622,1.389-1.389,1.389s-1.389-0.622-1.389-1.389
		c0-0.767,0.622-1.389,1.389-1.389S182.845,135.786,182.845,136.553z"/>
	<path style="fill:#ECF0F1;" d="M181.994,136.221c0,0.413-0.334,0.747-0.747,0.747c-0.413,0-0.748-0.335-0.748-0.747
		c0-0.413,0.335-0.748,0.748-0.748C181.66,135.474,181.994,135.808,181.994,136.221z"/>
	<path style="fill:#ECF0F1;" d="M172.805,200.237c0,2.239-1.815,4.055-4.055,4.055c-2.239,0-4.055-1.815-4.055-4.055
		c0-2.239,1.815-4.054,4.055-4.054C170.989,196.183,172.805,197.998,172.805,200.237z"/>
	<circle style="fill:#F1C40F;" cx="168.75" cy="200.237" r="2.489"/>
	<g>
		<path style="fill:#3498DB;" d="M168.75,153.459c-7.651,0-13.853,6.202-13.853,13.852c0,7.651,6.202,13.853,13.853,13.853
			c7.651,0,13.853-6.202,13.853-13.853C182.603,159.661,176.401,153.459,168.75,153.459z M168.75,179.702
			c-6.832,0-12.391-5.558-12.391-12.39s5.559-12.391,12.391-12.391s12.391,5.559,12.391,12.391S175.582,179.702,168.75,179.702z"/>
		<path style="fill:#3498DB;" d="M178.912,157.919c-0.934,0.504-1.917,0.96-2.985,1.314c-1.058-2.085-2.535-3.939-4.35-5.484
			c-0.913-0.189-1.857-0.29-2.826-0.29c-0.969,0-1.914,0.101-2.826,0.29c-1.815,1.545-3.292,3.4-4.35,5.484
			c-1.068-0.354-2.052-0.81-2.985-1.314c-0.336,0.363-0.651,0.743-0.946,1.141c1.028,0.575,2.115,1.092,3.294,1.495
			c-0.765,1.882-1.179,3.918-1.263,6.025h-4.739c-0.013,0.244-0.037,0.484-0.037,0.731c0,0.247,0.024,0.488,0.037,0.732h4.739
			c0.084,2.107,0.499,4.143,1.263,6.025c-1.178,0.403-2.266,0.92-3.293,1.495c0.295,0.397,0.611,0.778,0.946,1.141
			c0.934-0.504,1.917-0.96,2.985-1.314c1.058,2.084,2.535,3.939,4.35,5.483c0.913,0.19,1.858,0.291,2.827,0.291
			c0.969,0,1.914-0.101,2.827-0.291c1.815-1.544,3.292-3.399,4.35-5.483c1.067,0.354,2.051,0.81,2.985,1.314
			c0.336-0.363,0.651-0.743,0.946-1.141c-1.028-0.575-2.115-1.092-3.293-1.495c0.764-1.882,1.179-3.918,1.263-6.025h4.739
			c0.013-0.244,0.037-0.485,0.037-0.732c0-0.247-0.024-0.487-0.037-0.731h-4.739c-0.084-2.107-0.499-4.144-1.263-6.025
			c1.179-0.403,2.266-0.92,3.294-1.495C179.563,158.663,179.247,158.282,178.912,157.919z M168.019,180.646
			c-2.137-1.505-3.843-3.442-5.025-5.676c1.585-0.402,3.273-0.634,5.025-0.686V180.646z M168.019,172.822
			c-1.98,0.056-3.893,0.325-5.678,0.805c-0.723-1.742-1.12-3.628-1.205-5.584h6.883V172.822z M168.019,166.581h-6.883
			c0.085-1.956,0.482-3.843,1.205-5.585c1.786,0.48,3.698,0.75,5.678,0.805V166.581z M168.019,160.339
			c-1.752-0.052-3.44-0.284-5.024-0.686c1.181-2.233,2.887-4.17,5.024-5.675V160.339z M169.481,153.979
			c2.137,1.505,3.843,3.441,5.024,5.675c-1.584,0.402-3.272,0.634-5.024,0.686V153.979z M169.481,180.646v-6.362
			c1.752,0.052,3.44,0.284,5.024,0.686C173.324,177.204,171.619,179.141,169.481,180.646z M175.16,173.627
			c-1.786-0.48-3.698-0.749-5.678-0.805v-4.779h6.883C176.28,169.999,175.883,171.886,175.16,173.627z M169.481,166.581v-4.779
			c1.98-0.056,3.892-0.326,5.678-0.805c0.723,1.742,1.12,3.628,1.205,5.585H169.481z"/>
	</g>
	<path style="fill:#ECF0F1;" d="M151.628,201.24h7.421c0.554,0,1.002-0.449,1.002-1.002l0,0c0-0.553-0.449-1.002-1.002-1.002h-7.421
		c-0.554,0-1.002,0.449-1.002,1.002l0,0C150.626,200.791,151.074,201.24,151.628,201.24z"/>
	<path style="fill:#ECF0F1;" d="M178.451,201.24h7.421c0.554,0,1.002-0.449,1.002-1.002l0,0c0-0.553-0.449-1.002-1.002-1.002h-7.421
		c-0.554,0-1.003,0.449-1.003,1.002l0,0C177.448,200.791,177.897,201.24,178.451,201.24z"/>
</g>
<g>
	<path style="fill:#BDC3C7;" d="M313.647,189.123h-64.795c-2.128,0-3.852-1.725-3.852-3.853v-42.226
		c0-2.128,1.725-3.852,3.852-3.852h64.795c2.128,0,3.853,1.725,3.853,3.852v42.226C317.5,187.398,315.775,189.123,313.647,189.123z"
		/>
	
		<rect x="260.284" y="131.907" transform="matrix(-1.836970e-16 1 -1 -1.836970e-16 445.4067 -117.0932)" style="fill:#2C3E50;" width="41.932" height="64.5"/>
	<path style="fill:#34495E;" d="M282.229,141.458c0,0.541-0.439,0.98-0.979,0.98s-0.979-0.439-0.979-0.98
		c0-0.54,0.439-0.979,0.979-0.979S282.229,140.917,282.229,141.458z"/>
	<path style="fill:#3AFF8D;" d="M284.15,141.458c0,0.3-0.242,0.543-0.542,0.543s-0.543-0.243-0.543-0.543
		c0-0.299,0.243-0.542,0.543-0.542S284.15,141.159,284.15,141.458z"/>
	<path style="fill:#E74C3C;" d="M285.829,141.458c0,0.3-0.242,0.543-0.542,0.543c-0.3,0-0.543-0.243-0.543-0.543
		c0-0.299,0.243-0.542,0.543-0.542C285.587,140.915,285.829,141.159,285.829,141.458z"/>
	<path style="fill:#ECF0F1;" d="M281.504,141.273c0,0.243-0.197,0.439-0.439,0.439c-0.243,0-0.44-0.197-0.44-0.439
		c0-0.243,0.197-0.44,0.44-0.44C281.307,140.833,281.504,141.029,281.504,141.273z"/>
	<rect x="245" y="189.123" style="fill:#7F8C8D;" width="72.5" height="3.082"/>
	<path style="fill:#34495E;" d="M317.5,192.204H245l0,0c0,1.702,1.38,3.081,3.082,3.081h66.336
		C316.12,195.286,317.5,193.906,317.5,192.204L317.5,192.204z"/>
	<g>
		<path style="fill:#1F2B38;" d="M254.647,197.471h-2.843c-1.206,0-2.185-0.979-2.185-2.185l0,0h7.213l0,0
			C256.833,196.492,255.854,197.471,254.647,197.471z"/>
		<path style="fill:#1F2B38;" d="M310.695,197.471h-2.843c-1.207,0-2.185-0.979-2.185-2.185l0,0h7.213l0,0
			C312.88,196.492,311.901,197.471,310.695,197.471z"/>
	</g>
	<g>
		<path style="fill:#34495E;" d="M248.334,188.03h6.744c0.387,0,0.701,0.314,0.701,0.702v0.391h-8.146v-0.391
			C247.633,188.344,247.946,188.03,248.334,188.03z"/>
		<path style="fill:#34495E;" d="M258.217,188.03h6.743c0.388,0,0.702,0.314,0.702,0.702v0.391h-8.147v-0.391
			C257.515,188.344,257.829,188.03,258.217,188.03z"/>
		<path style="fill:#34495E;" d="M268.03,188.03h6.743c0.388,0,0.702,0.314,0.702,0.702v0.391h-8.147v-0.391
			C267.328,188.344,267.643,188.03,268.03,188.03z"/>
		<path style="fill:#34495E;" d="M277.913,188.03h6.743c0.388,0,0.702,0.314,0.702,0.702v0.391h-8.147v-0.391
			C277.211,188.344,277.525,188.03,277.913,188.03z"/>
		<path style="fill:#34495E;" d="M287.727,188.03h6.743c0.388,0,0.702,0.314,0.702,0.702v0.391h-8.148v-0.391
			C287.024,188.344,287.339,188.03,287.727,188.03z"/>
		<path style="fill:#34495E;" d="M297.608,188.03h6.744c0.388,0,0.701,0.314,0.701,0.702v0.391h-8.146v-0.391
			C296.907,188.344,297.222,188.03,297.608,188.03z"/>
		<path style="fill:#34495E;" d="M307.422,188.03h6.744c0.388,0,0.701,0.314,0.701,0.702v0.391h-8.146v-0.391
			C306.721,188.344,307.035,188.03,307.422,188.03z"/>
	</g>
	<g>
		<path style="fill:#1F2B38;" d="M248.688,194.667L248.688,194.667c-0.392,0-0.708-0.317-0.708-0.708v-0.792
			c0-0.391,0.316-0.708,0.708-0.708l0,0c0.392,0,0.708,0.317,0.708,0.708v0.792C249.395,194.35,249.079,194.667,248.688,194.667z"/>
		<path style="fill:#1F2B38;" d="M251.125,194.667L251.125,194.667c-0.392,0-0.708-0.317-0.708-0.708v-0.792
			c0-0.391,0.316-0.708,0.708-0.708l0,0c0.392,0,0.708,0.317,0.708,0.708v0.792C251.833,194.35,251.517,194.667,251.125,194.667z"/>
		<path style="fill:#1F2B38;" d="M253.563,194.667L253.563,194.667c-0.392,0-0.708-0.317-0.708-0.708v-0.792
			c0-0.391,0.316-0.708,0.708-0.708l0,0c0.392,0,0.708,0.317,0.708,0.708v0.792C254.27,194.35,253.954,194.667,253.563,194.667z"/>
		<path style="fill:#1F2B38;" d="M256,194.667L256,194.667c-0.392,0-0.708-0.317-0.708-0.708v-0.792
			c0-0.391,0.316-0.708,0.708-0.708l0,0c0.392,0,0.708,0.317,0.708,0.708v0.792C256.708,194.35,256.392,194.667,256,194.667z"/>
		<path style="fill:#1F2B38;" d="M258.438,194.667L258.438,194.667c-0.392,0-0.708-0.317-0.708-0.708v-0.792
			c0-0.391,0.316-0.708,0.708-0.708l0,0c0.392,0,0.708,0.317,0.708,0.708v0.792C259.146,194.35,258.829,194.667,258.438,194.667z"/>
	</g>
	<g>
		<path style="fill:#1F2B38;" d="M313.882,194.667L313.882,194.667c0.391,0,0.708-0.317,0.708-0.708v-0.792
			c0-0.391-0.317-0.708-0.708-0.708l0,0c-0.392,0-0.709,0.317-0.709,0.708v0.792C313.173,194.35,313.49,194.667,313.882,194.667z"/>
		<path style="fill:#1F2B38;" d="M311.444,194.667L311.444,194.667c0.391,0,0.708-0.317,0.708-0.708v-0.792
			c0-0.391-0.317-0.708-0.708-0.708l0,0c-0.392,0-0.709,0.317-0.709,0.708v0.792C310.735,194.35,311.053,194.667,311.444,194.667z"
			/>
		<path style="fill:#1F2B38;" d="M309.007,194.667L309.007,194.667c0.391,0,0.708-0.317,0.708-0.708v-0.792
			c0-0.391-0.317-0.708-0.708-0.708l0,0c-0.392,0-0.709,0.317-0.709,0.708v0.792C308.298,194.35,308.615,194.667,309.007,194.667z"
			/>
		<path style="fill:#1F2B38;" d="M306.569,194.667L306.569,194.667c0.391,0,0.708-0.317,0.708-0.708v-0.792
			c0-0.391-0.317-0.708-0.708-0.708l0,0c-0.392,0-0.709,0.317-0.709,0.708v0.792C305.86,194.35,306.178,194.667,306.569,194.667z"/>
		<path style="fill:#1F2B38;" d="M304.132,194.667L304.132,194.667c0.391,0,0.708-0.317,0.708-0.708v-0.792
			c0-0.391-0.317-0.708-0.708-0.708l0,0c-0.392,0-0.709,0.317-0.709,0.708v0.792C303.423,194.35,303.74,194.667,304.132,194.667z"/>
	</g>
	<path style="fill:#F1C40F;" d="M314.59,190.442c0,0.391-0.317,0.708-0.708,0.708c-0.392,0-0.709-0.317-0.709-0.708
		s0.317-0.708,0.709-0.708C314.272,189.734,314.59,190.051,314.59,190.442z"/>
	<path style="fill:#F1C40F;" d="M312.152,190.442c0,0.391-0.317,0.708-0.708,0.708c-0.392,0-0.709-0.317-0.709-0.708
		s0.317-0.708,0.709-0.708C311.835,189.734,312.152,190.051,312.152,190.442z"/>
	<path style="fill:#F1C40F;" d="M309.715,190.442c0,0.391-0.317,0.708-0.708,0.708c-0.392,0-0.709-0.317-0.709-0.708
		s0.317-0.708,0.709-0.708C309.397,189.734,309.715,190.051,309.715,190.442z"/>
	<g>
		<g>
			<path style="fill:#3498DB;" d="M273.184,170.292c0-4.706-3.815-8.521-8.522-8.521c-4.706,0-8.521,3.815-8.521,8.521
				c0,4.706,3.815,8.521,8.521,8.521C269.368,178.814,273.184,174.998,273.184,170.292z"/>
			<path style="fill:#3498DB;" d="M306.359,168.985c0-5.428-4.4-9.828-9.828-9.828c-5.428,0-9.828,4.4-9.828,9.828
				c0,5.428,4.4,9.828,9.828,9.828C301.959,178.814,306.359,174.413,306.359,168.985z"/>
			
				<ellipse transform="matrix(0.0277 -0.9996 0.9996 0.0277 109.028 440.4071)" style="fill:#3498DB;" cx="280.909" cy="164.157" rx="14.657" ry="14.656"/>
			<rect x="264.662" y="166.909" style="fill:#3498DB;" width="31.869" height="11.873"/>
		</g>
		<g>
			<path style="fill:#34495E;" d="M290.722,166.909c0,5.231-4.24,9.472-9.472,9.472c-5.231,0-9.472-4.241-9.472-9.472
				c0-5.232,4.24-9.472,9.472-9.472C286.481,157.436,290.722,161.677,290.722,166.909z"/>
			<g>
				<g>
					<rect x="280.75" y="157.436" style="fill:#3498DB;" width="1" height="18.944"/>
				</g>
				<g>
					<rect x="271.777" y="166.409" style="fill:#3498DB;" width="18.945" height="1"/>
				</g>
				<g>
					<path style="fill:#3498DB;" d="M280.996,177.4c-3.748-2.216-5.985-6.138-5.985-10.492s2.237-8.276,5.985-10.492l0.508,0.86
						c-3.439,2.035-5.493,5.635-5.493,9.631c0,3.997,2.054,7.597,5.493,9.631L280.996,177.4z"/>
				</g>
				<g>
					<path style="fill:#3498DB;" d="M281.504,177.4l-0.508-0.86c3.439-2.035,5.493-5.635,5.493-9.631
						c0-3.997-2.054-7.597-5.493-9.631l0.508-0.86c3.748,2.216,5.985,6.138,5.985,10.492S285.252,175.185,281.504,177.4z"/>
				</g>
				<g>
					<path style="fill:#3498DB;" d="M281.25,163.163c-4.319,0-8.223-1.551-10.441-4.149l0.76-0.649
						c2.031,2.379,5.65,3.799,9.682,3.799c4.031,0,7.65-1.42,9.682-3.799l0.76,0.649
						C289.473,161.612,285.569,163.163,281.25,163.163z"/>
				</g>
				<g>
					<path style="fill:#3498DB;" d="M290.932,175.453c-2.031-2.379-5.65-3.799-9.682-3.799c-4.031,0-7.65,1.42-9.682,3.799
						l-0.76-0.649c2.219-2.599,6.122-4.15,10.441-4.15s8.223,1.551,10.441,4.15L290.932,175.453z"/>
				</g>
			</g>
		</g>
	</g>
</g>
<g>
	<path style="fill:#E3E7E8;" d="M426.656,205h-65.813c-1.847,0-3.344-1.497-3.344-3.344v-65.813c0-1.847,1.497-3.344,3.344-3.344
		h65.813c1.847,0,3.344,1.497,3.344,3.344v65.813C430,203.503,428.503,205,426.656,205z"/>
	<path style="fill:#BDC3C7;" d="M410.951,198.796H357.5v2.86c0,1.847,1.497,3.344,3.344,3.344H414.1v-3.056
		C414.1,200.205,412.69,198.796,410.951,198.796z"/>
	<path style="fill:#BDC3C7;" d="M430,139.948v-4.104c0-1.847-1.497-3.344-3.344-3.344h-65.813c-1.847,0-3.344,1.497-3.344,3.344
		v4.104H430z"/>
	<path style="fill:#E74C3C;" d="M363.755,136.148c0,1.141-0.924,2.065-2.064,2.065c-1.141,0-2.065-0.924-2.065-2.065
		c0-1.141,0.925-2.066,2.065-2.066C362.831,134.082,363.755,135.007,363.755,136.148z"/>
	<path style="fill:#F1C40F;" d="M369.303,136.148c0,1.141-0.925,2.065-2.065,2.065c-1.141,0-2.065-0.924-2.065-2.065
		c0-1.141,0.925-2.066,2.065-2.066C368.378,134.082,369.303,135.007,369.303,136.148z"/>
	<path style="fill:#2ECC71;" d="M374.85,136.148c0,1.141-0.925,2.065-2.065,2.065c-1.141,0-2.064-0.924-2.064-2.065
		c0-1.141,0.924-2.066,2.064-2.066C373.925,134.082,374.85,135.007,374.85,136.148z"/>
	<g>
		<g>
			<path style="fill:#3498DB;" d="M393.75,151.107c-10.636,0-19.258,8.622-19.258,19.257c0,10.636,8.622,19.257,19.258,19.257
				c10.636,0,19.258-8.622,19.258-19.257C413.008,159.73,404.386,151.107,393.75,151.107z M393.75,187.589
				c-9.497,0-17.225-7.726-17.225-17.224c0-9.497,7.728-17.225,17.225-17.225s17.225,7.727,17.225,17.225
				C410.975,179.863,403.247,187.589,393.75,187.589z"/>
			<path style="fill:#3498DB;" d="M407.876,157.309c-1.298,0.7-2.665,1.334-4.149,1.826c-1.471-2.897-3.523-5.476-6.048-7.624
				c-1.268-0.263-2.582-0.403-3.929-0.403c-1.347,0-2.66,0.141-3.929,0.403c-2.524,2.148-4.577,4.727-6.048,7.624
				c-1.484-0.492-2.851-1.125-4.149-1.826c-0.467,0.504-0.905,1.033-1.315,1.585c1.429,0.799,2.94,1.518,4.579,2.079
				c-1.064,2.616-1.64,5.446-1.757,8.376h-6.587c-0.017,0.339-0.052,0.673-0.052,1.016c0,0.344,0.034,0.678,0.052,1.017h6.587
				c0.117,2.93,0.693,5.76,1.756,8.375c-1.638,0.561-3.149,1.28-4.578,2.079c0.41,0.552,0.849,1.081,1.315,1.586
				c1.298-0.701,2.665-1.334,4.149-1.826c1.471,2.897,3.523,5.476,6.047,7.623c1.269,0.263,2.583,0.404,3.93,0.404
				c1.347,0,2.661-0.141,3.93-0.404c2.523-2.147,4.576-4.726,6.047-7.623c1.484,0.492,2.852,1.126,4.149,1.826
				c0.467-0.505,0.905-1.033,1.315-1.586c-1.429-0.799-2.94-1.518-4.578-2.079c1.063-2.616,1.639-5.446,1.756-8.375h6.587
				c0.018-0.339,0.052-0.673,0.052-1.017c0-0.343-0.034-0.677-0.052-1.016h-6.587c-0.117-2.93-0.693-5.76-1.757-8.376
				c1.639-0.56,3.15-1.279,4.579-2.079C408.781,158.342,408.343,157.813,407.876,157.309z M392.733,188.901
				c-2.972-2.092-5.343-4.785-6.984-7.89c2.202-0.559,4.549-0.882,6.984-0.954V188.901z M392.733,178.025
				c-2.753,0.078-5.411,0.453-7.894,1.12c-1.006-2.421-1.557-5.043-1.676-7.763h9.569V178.025z M392.733,169.349h-9.569
				c0.119-2.719,0.671-5.342,1.676-7.764c2.483,0.667,5.141,1.042,7.894,1.12V169.349z M392.733,160.672
				c-2.436-0.072-4.782-0.395-6.984-0.954c1.642-3.104,4.014-5.797,6.984-7.889V160.672z M394.767,151.83
				c2.971,2.092,5.343,4.785,6.984,7.889c-2.202,0.559-4.549,0.881-6.984,0.954V151.83z M394.767,188.901v-8.844
				c2.435,0.072,4.782,0.395,6.984,0.954C400.109,184.116,397.738,186.809,394.767,188.901z M402.66,179.145
				c-2.482-0.667-5.141-1.042-7.894-1.12v-6.643h9.569C404.217,174.101,403.666,176.724,402.66,179.145z M394.767,169.349v-6.644
				c2.753-0.078,5.411-0.453,7.894-1.12c1.005,2.421,1.557,5.044,1.676,7.764H394.767z"/>
		</g>
		<g>
			<g>
				<path style="fill:#3498DB;" d="M371.675,183.561c-6.06-10.101-4.468-22.981,3.872-31.32c8.339-8.34,21.218-9.934,31.32-3.872
					l-1.029,1.715c-9.311-5.586-21.188-4.119-28.877,3.572c-7.689,7.689-9.158,19.564-3.571,28.877L371.675,183.561z"/>
			</g>
			<g>
				<path style="fill:#3498DB;" d="M411.114,152.948c-2.9-0.875-6.794-1.57-9.685-1.371l4.243-2.752l1.5-4.829
					C407.764,146.833,409.486,150.394,411.114,152.948z"/>
			</g>
		</g>
		<g>
			<g>
				<path style="fill:#3498DB;" d="M393.711,195.873c-4.523,0.001-9.078-1.199-13.176-3.657l1.029-1.715
					c9.312,5.586,21.186,4.117,28.877-3.572c7.69-7.689,9.158-19.564,3.571-28.877l1.715-1.029c6.06,10.102,4.468,22.98-3.872,31.32
					C406.898,193.3,400.338,195.873,393.711,195.873z"/>
			</g>
			<g>
				<path style="fill:#3498DB;" d="M376.288,187.636c2.899,0.875,6.794,1.57,9.685,1.371l-4.243,2.752l-1.5,4.829
					C379.639,193.751,377.916,190.19,376.288,187.636z"/>
			</g>
		</g>
	</g>
</g>
<g>
	<g>
		<path style="fill:#34495E;" d="M74.136,285.605h-38.2c-2.402,0-4.349,1.946-4.349,4.348v23.198c0,2.401,1.947,4.349,4.349,4.349
			h40.628c2.402,0,4.349-1.947,4.349-4.349v-20.77C78.266,289.735,76.782,288.252,74.136,285.605z"/>
		<path style="fill:#1C2833;" d="M35.936,315.5c-1.295,0-2.348-1.054-2.348-2.349v-23.198c0-1.295,1.053-2.349,2.348-2.349h37.372
			l5.605,5.605v19.941c0,1.295-1.053,2.349-2.348,2.349H35.936z"/>
		<path style="fill:#ECF0F1;" d="M60.135,301.553c0,6.656-5.396,12.053-12.053,12.053c-6.657,0-12.053-5.396-12.053-12.053
			c0-6.657,5.396-12.054,12.053-12.054C54.739,289.499,60.135,294.896,60.135,301.553z"/>
		<path style="fill:#34495E;" d="M51.305,301.553c0,1.779-1.443,3.223-3.223,3.223c-1.78,0-3.223-1.443-3.223-3.223
			c0-1.78,1.443-3.223,3.223-3.223C49.862,298.33,51.305,299.772,51.305,301.553z"/>
		<path style="fill:#16A085;" d="M76.318,313.605H63.472v-24.107h8.706c1.617,1.617,2.524,2.524,4.141,4.141V313.605z"/>
		<path style="fill:#34495E;" d="M62.761,292.173c0,1.449-1.176,2.625-2.626,2.625c-1.45,0-2.625-1.176-2.625-2.625
			c0-1.45,1.176-2.626,2.625-2.626C61.585,289.547,62.761,290.723,62.761,292.173z"/>
		<polygon style="fill:#34495E;" points="58.886,289.872 50.225,292.528 46.086,298.002 51.305,294.62 60.135,294.798 		"/>
		<path style="fill:#F1C40F;" d="M61.471,292.173c0,0.737-0.598,1.335-1.335,1.335c-0.737,0-1.335-0.598-1.335-1.335
			c0-0.737,0.598-1.335,1.335-1.335C60.873,290.838,61.471,291.435,61.471,292.173z"/>
		<g>
			<polygon style="fill:#ECF0F1;" points="69.904,312.163 64.944,312.163 64.944,291.639 65.944,291.639 65.944,311.163 
				68.904,311.163 68.904,299.56 69.904,299.56 			"/>
		</g>
		<g>
			<polygon style="fill:#ECF0F1;" points="67.924,308.993 66.924,308.993 66.924,296.478 73.666,296.478 73.666,294.436 
				67.424,294.436 67.424,293.436 74.666,293.436 74.666,297.478 67.924,297.478 			"/>
		</g>
		<g>
			<rect x="67.424" y="291.139" style="fill:#ECF0F1;" width="4.249" height="1"/>
		</g>
		<g>
			<polygon style="fill:#ECF0F1;" points="72.174,308.682 71.174,308.682 71.174,299.103 74.166,299.103 74.166,300.103 
				72.174,300.103 			"/>
		</g>
		<g>
			<polygon style="fill:#ECF0F1;" points="74.666,312.163 71.674,312.163 71.674,311.163 73.666,311.163 73.666,301.465 
				74.666,301.465 			"/>
		</g>
	</g>
	<g>
		<path style="fill:#3498DB;" d="M48.327,265.422c0-4.622-3.747-8.369-8.37-8.369c-4.623,0-8.37,3.747-8.37,8.369
			c0,4.623,3.747,8.37,8.37,8.37C44.58,273.792,48.327,270.045,48.327,265.422z"/>
		<path style="fill:#3498DB;" d="M80.913,264.139c0-5.331-4.322-9.653-9.653-9.653c-5.332,0-9.653,4.322-9.653,9.653
			c0,5.331,4.322,9.653,9.653,9.653C76.591,273.792,80.913,269.47,80.913,264.139z"/>
		<path style="fill:#3498DB;" d="M70.311,259.396c0-7.95-6.445-14.396-14.396-14.396c-7.95,0-14.396,6.445-14.396,14.396
			c0,7.951,6.445,14.396,14.396,14.396C63.866,273.792,70.311,267.347,70.311,259.396z"/>
		<rect x="39.957" y="262.099" style="fill:#3498DB;" width="31.303" height="11.662"/>
	</g>
	<g>
		<rect x="48.87" y="279.53" style="fill:#2ECC71;" width="14.761" height="2.623"/>
		<polygon style="fill:#2ECC71;" points="65.873,279.897 46.626,279.897 56.25,274.641 		"/>
		<rect x="48.87" y="283.066" style="fill:#2ECC71;" width="14.761" height="1.413"/>
	</g>
</g>
<g>
	<g>
		<polygon style="fill:#F39C12;" points="166.836,247.686 152.942,247.686 152.942,245.266 165.49,245.266 		"/>
		<rect x="152.942" y="247.686" style="fill:#F1C40F;" width="31.615" height="21.152"/>
		<rect x="167.084" y="268.839" style="fill:#34495E;" width="3.332" height="6.442"/>
		<rect x="147.665" y="275.393" style="fill:#34495E;" width="3.332" height="25.02"/>
		<rect x="186.503" y="275.393" style="fill:#34495E;" width="3.332" height="25.02"/>
		
			<rect x="167.084" y="255.862" transform="matrix(-1.836970e-16 1 -1 -1.836970e-16 445.6973 108.1973)" style="fill:#34495E;" width="3.332" height="42.171"/>
	</g>
	<g>
		<g>
			<polygon style="fill:#E74C3C;" points="146.879,296.375 132.985,296.375 132.985,293.955 145.533,293.955 			"/>
			<rect x="132.985" y="296.375" style="fill:#F1C40F;" width="31.615" height="21.152"/>
		</g>
		<g>
			<polygon style="fill:#2ECC71;" points="186.793,296.375 172.899,296.375 172.899,293.955 185.447,293.955 			"/>
			<rect x="172.899" y="296.375" style="fill:#F1C40F;" width="31.615" height="21.152"/>
		</g>
	</g>
	<g>
		<path style="fill:#3498DB;" d="M165.099,261.039c0-2.13-1.727-3.857-3.857-3.857c-2.13,0-3.857,1.727-3.857,3.857
			c0,2.13,1.727,3.857,3.857,3.857C163.372,264.897,165.099,263.169,165.099,261.039z"/>
		<path style="fill:#3498DB;" d="M180.114,260.448c0-2.457-1.991-4.448-4.448-4.448c-2.456,0-4.448,1.991-4.448,4.448
			c0,2.456,1.992,4.448,4.448,4.448C178.123,264.897,180.114,262.904,180.114,260.448z"/>
		<path style="fill:#3498DB;" d="M175.229,258.263c0-3.664-2.97-6.634-6.634-6.634c-3.664,0-6.633,2.97-6.633,6.634
			c0,3.663,2.97,6.634,6.633,6.634C172.259,264.897,175.229,261.926,175.229,258.263z"/>
		<rect x="161.242" y="259.508" style="fill:#3498DB;" width="14.424" height="5.374"/>
	</g>
	<g>
		<path style="fill:#3498DB;" d="M156.528,307.923v-1.942l-1.874-0.49c-0.146-0.59-0.378-1.143-0.683-1.649l0.978-1.673
			l-1.373-1.373l-1.672,0.979c-0.506-0.305-1.06-0.537-1.649-0.684l-0.491-1.874h-1.942l-0.49,1.874
			c-0.589,0.146-1.143,0.379-1.649,0.684l-1.672-0.979l-1.374,1.373l0.979,1.673c-0.305,0.506-0.537,1.06-0.684,1.649l-1.874,0.49
			v1.942l1.874,0.49c0.146,0.589,0.378,1.143,0.684,1.649l-0.979,1.672l1.374,1.373l1.672-0.978c0.506,0.306,1.06,0.537,1.649,0.684
			l0.49,1.874h1.942l0.491-1.874c0.589-0.147,1.143-0.378,1.649-0.684l1.672,0.978l1.373-1.373l-0.978-1.672
			c0.305-0.507,0.537-1.06,0.683-1.649L156.528,307.923z"/>
		<path style="fill:#F1C40F;" d="M152.662,306.951c0,2.137-1.732,3.869-3.869,3.869s-3.869-1.732-3.869-3.869
			s1.732-3.868,3.869-3.868S152.662,304.815,152.662,306.951z"/>
	</g>
	<g>
		<path style="fill:#3498DB;" d="M193.073,303.934c0,2.411-1.955,4.365-4.366,4.365c-2.411,0-4.366-1.954-4.366-4.365
			s1.955-4.365,4.366-4.365C191.118,299.568,193.073,301.522,193.073,303.934z"/>
		<path style="fill:#3498DB;" d="M194.164,314.335H183.25v-2.001c0-1.758,1.425-3.184,3.184-3.184h4.547
			c1.758,0,3.184,1.426,3.184,3.184V314.335z"/>
	</g>
</g>
<g>
	<polygon style="fill:#34495E;" points="314.955,310.103 305.039,318.249 286.62,293.378 294.132,287.206 	"/>
	<polygon style="fill:#F1C40F;" points="307.052,300.685 297.12,308.844 289.563,298.781 298.648,291.317 	"/>
	<polygon style="fill:#95A5A6;" points="289.323,291.156 286.62,293.378 290.221,298.24 289.563,298.781 297.12,308.844 
		297.713,308.356 305.039,318.249 309.12,314.897 	"/>
	<path style="fill:#263545;" d="M275.768,246.134c-14.73,0-26.673,11.941-26.673,26.672c0,14.731,11.942,26.673,26.673,26.673
		c14.73,0,26.672-11.941,26.672-26.673C302.439,258.075,290.498,246.134,275.768,246.134z M275.768,292.748
		c-11.014,0-19.942-8.929-19.942-19.942c0-11.013,8.929-19.941,19.942-19.941c11.014,0,19.941,8.929,19.941,19.941
		C295.709,283.819,286.781,292.748,275.768,292.748z"/>
	<path style="fill:#34495E;" d="M275.768,297.478c-13.604,0-24.673-11.068-24.673-24.673s11.068-24.672,24.673-24.672
		c13.605,0,24.672,11.067,24.672,24.672S289.372,297.478,275.768,297.478z M275.768,250.864c-12.099,0-21.942,9.843-21.942,21.941
		c0,12.099,9.844,21.942,21.942,21.942c12.099,0,21.941-9.844,21.941-21.942C297.709,260.707,287.866,250.864,275.768,250.864z"/>
	<g>
		<g>
			<path style="fill:#3498DB;" d="M270.072,274.356c0-3.433-2.782-6.215-6.215-6.215c-3.432,0-6.214,2.782-6.214,6.215
				c0,3.432,2.782,6.215,6.214,6.215C267.29,280.571,270.072,277.788,270.072,274.356z"/>
			<path style="fill:#3498DB;" d="M294.269,273.403c0-3.959-3.21-7.168-7.168-7.168s-7.168,3.209-7.168,7.168
				c0,3.959,3.21,7.168,7.168,7.168S294.269,277.362,294.269,273.403z"/>
			
				<ellipse transform="matrix(0.7508 -0.6605 0.6605 0.7508 -109.5582 249.3576)" style="fill:#3498DB;" cx="275.707" cy="269.882" rx="10.689" ry="10.689"/>
			<rect x="263.857" y="271.889" style="fill:#3498DB;" width="23.243" height="8.659"/>
		</g>
		<g>
			<path style="fill:#34495E;" d="M282.863,271.889c0,3.815-3.093,6.908-6.907,6.908c-3.815,0-6.908-3.093-6.908-6.908
				c0-3.815,3.093-6.908,6.908-6.908C279.771,264.98,282.863,268.073,282.863,271.889z"/>
			<g>
				<g>
					<rect x="275.591" y="264.98" style="fill:#3498DB;" width="0.729" height="13.816"/>
				</g>
				<g>
					<rect x="269.048" y="271.524" style="fill:#3498DB;" width="13.816" height="0.729"/>
				</g>
				<g>
					<path style="fill:#3498DB;" d="M275.771,279.54c-2.733-1.615-4.365-4.477-4.365-7.651s1.632-6.035,4.365-7.651l0.371,0.627
						c-2.509,1.484-4.007,4.109-4.007,7.024c0,2.915,1.498,5.54,4.007,7.024L275.771,279.54z"/>
				</g>
				<g>
					<path style="fill:#3498DB;" d="M276.142,279.54l-0.371-0.627c2.508-1.484,4.006-4.109,4.006-7.024
						c0-2.915-1.498-5.54-4.006-7.024l0.371-0.627c2.732,1.616,4.364,4.477,4.364,7.651S278.874,277.925,276.142,279.54z"/>
				</g>
				<g>
					<path style="fill:#3498DB;" d="M275.956,269.157c-3.15,0-5.997-1.132-7.616-3.026l0.556-0.474
						c1.482,1.735,4.12,2.771,7.061,2.771c2.939,0,5.579-1.035,7.061-2.771l0.555,0.474
						C281.952,268.025,279.105,269.157,275.956,269.157z"/>
				</g>
				<g>
					<path style="fill:#3498DB;" d="M283.017,278.12c-1.481-1.734-4.121-2.77-7.061-2.77c-2.94,0-5.579,1.036-7.061,2.77
						l-0.556-0.474c1.619-1.896,4.466-3.026,7.616-3.026c3.149,0,5.996,1.131,7.615,3.026L283.017,278.12z"/>
				</g>
			</g>
		</g>
	</g>
</g>
<g>
	<g>
		<path style="fill:#2980B9;" d="M393.726,255.74c-15.273,0-27.654,12.382-27.654,27.654c0,15.273,12.381,27.654,27.654,27.654
			c15.272,0,27.653-12.381,27.653-27.654C421.379,268.122,408.998,255.74,393.726,255.74z M393.726,308.129
			c-13.639,0-24.735-11.096-24.735-24.733c0-13.639,11.097-24.735,24.735-24.735c13.638,0,24.734,11.097,24.734,24.735
			C418.46,297.033,407.363,308.129,393.726,308.129z"/>
		<path style="fill:#2980B9;" d="M414.011,264.646c-1.863,1.006-3.828,1.915-5.96,2.622c-2.111-4.16-5.06-7.864-8.684-10.947
			c-1.822-0.378-3.708-0.58-5.642-0.58s-3.82,0.202-5.642,0.58c-3.625,3.083-6.573,6.787-8.685,10.947
			c-2.132-0.707-4.097-1.616-5.96-2.622c-0.67,0.725-1.299,1.483-1.889,2.276c2.052,1.147,4.223,2.181,6.575,2.985
			c-1.526,3.757-2.354,7.82-2.522,12.028h-9.46c-0.025,0.486-0.073,0.967-0.073,1.459c0,0.493,0.048,0.974,0.073,1.461h9.46
			c0.168,4.207,0.995,8.271,2.522,12.027c-2.353,0.805-4.524,1.837-6.575,2.985c0.59,0.793,1.219,1.552,1.889,2.276
			c1.864-1.006,3.828-1.915,5.959-2.622c2.112,4.16,5.06,7.863,8.684,10.946c1.822,0.378,3.709,0.58,5.644,0.58
			c1.934,0,3.82-0.202,5.643-0.58c3.624-3.083,6.572-6.786,8.684-10.946c2.131,0.707,4.096,1.616,5.959,2.622
			c0.67-0.725,1.299-1.483,1.889-2.276c-2.052-1.148-4.223-2.181-6.575-2.985c1.526-3.757,2.354-7.82,2.522-12.027h9.46
			c0.025-0.487,0.073-0.968,0.073-1.461c0-0.492-0.048-0.973-0.073-1.459h-9.46c-0.168-4.208-0.995-8.271-2.522-12.028
			c2.353-0.805,4.523-1.838,6.576-2.985C415.31,266.129,414.681,265.37,414.011,264.646z M392.266,310.013
			c-4.268-3.005-7.672-6.871-10.03-11.33c3.163-0.803,6.532-1.266,10.03-1.369V310.013z M392.266,294.395
			c-3.954,0.111-7.771,0.649-11.336,1.608c-1.443-3.477-2.235-7.243-2.405-11.147h13.741V294.395z M392.266,281.935h-13.741
			c0.17-3.905,0.962-7.672,2.405-11.149c3.565,0.958,7.383,1.497,11.336,1.608V281.935z M392.266,269.476
			c-3.498-0.103-6.867-0.566-10.03-1.369c2.358-4.458,5.764-8.324,10.03-11.329V269.476z M395.185,256.777
			c4.267,3.005,7.672,6.871,10.03,11.329c-3.163,0.803-6.532,1.266-10.03,1.369V256.777z M395.185,310.013v-12.699
			c3.498,0.103,6.868,0.566,10.03,1.369C402.857,303.142,399.452,307.008,395.185,310.013z M406.52,296.003
			c-3.565-0.959-7.382-1.497-11.336-1.608v-9.539h13.742C408.756,288.76,407.964,292.526,406.52,296.003z M395.185,281.935v-9.541
			c3.954-0.111,7.77-0.65,11.336-1.608c1.443,3.478,2.235,7.244,2.406,11.149H395.185z"/>
	</g>
	<g>
		<g>
			<path style="fill:#F1C40F;" d="M422.307,272.141L422.307,272.141v-0.929h-1.924h-1.21c-0.394,0-0.714,0.319-0.714,0.714v22.938
				c0,0.394,0.32,0.714,0.714,0.714h3.134v-0.93l0,0c4.249,0,7.693-3.444,7.693-7.692v-7.122
				C430,275.585,426.556,272.141,422.307,272.141z"/>
			<path style="opacity:0.6;fill:#E74C3C;" d="M429.135,276.298v10.037c0,4.716-7.316,4.708-7.316,0v-15.123h-2.646
				c-0.394,0-0.714,0.319-0.714,0.713v22.939c0,0.394,0.32,0.714,0.714,0.714h3.134v-0.93l0,0c4.249,0,7.693-3.444,7.693-7.692
				v-7.122C430,278.558,429.685,277.357,429.135,276.298z"/>
			<path style="fill:#34495E;" d="M422.307,271.212h-1.924h-1.21c-0.394,0-0.714,0.319-0.714,0.714v22.938
				c0,0.394,0.32,0.714,0.714,0.714h3.134V271.212z"/>
			<path style="fill:#34495E;" d="M420.304,267.974c-0.104-0.512-0.219-1.077-0.344-1.693c-0.161-0.608-0.396-1.249-0.62-1.948
				c-0.559-1.346-1.258-2.867-2.318-4.343c-0.993-1.528-2.347-2.985-3.909-4.383c-1.603-1.34-3.417-2.659-5.505-3.614
				c-0.52-0.244-1.044-0.489-1.571-0.737c-0.547-0.198-1.098-0.397-1.651-0.599c-1.098-0.454-2.272-0.669-3.438-0.962
				c-1.17-0.272-2.374-0.372-3.572-0.563c-1.203-0.097-2.414-0.136-3.625-0.203c-1.31,0.066-2.349,0.104-3.559,0.196
				c-1.22,0.19-2.468,0.296-3.639,0.568c-1.166,0.294-2.342,0.503-3.438,0.96c-0.555,0.2-1.105,0.4-1.652,0.6
				c-0.527,0.247-1.051,0.493-1.57,0.736c-2.088,0.957-3.905,2.272-5.507,3.614c-1.563,1.399-2.918,2.854-3.909,4.384
				c-1.061,1.477-1.76,2.998-2.318,4.344c-0.224,0.7-0.459,1.341-0.619,1.949c-0.125,0.616-0.239,1.182-0.344,1.693
				c-0.111,1.04-0.166,1.845-0.112,2.4c0.022,0.547,0.035,0.839,0.035,0.839s0.049-0.288,0.142-0.827
				c0.052-0.541,0.306-1.304,0.567-2.263c0.183-0.464,0.385-0.977,0.604-1.536c0.265-0.534,0.552-1.112,0.857-1.729
				c0.714-1.18,1.556-2.475,2.67-3.728c0.278-0.311,0.561-0.629,0.852-0.952c0.317-0.295,0.642-0.597,0.971-0.902
				c0.627-0.641,1.393-1.176,2.126-1.772c1.553-1.093,3.274-2.117,5.183-2.905c1.871-0.874,3.971-1.353,6.084-1.818
				c1.059-0.23,2.12-0.29,3.186-0.454c1.097-0.072,2.382-0.09,3.392-0.139c1.108,0.048,2.222,0.063,3.324,0.132
				c1.088,0.162,2.193,0.229,3.253,0.459c2.115,0.46,4.214,0.943,6.086,1.817c1.908,0.788,3.632,1.809,5.183,2.904
				c0.734,0.598,1.498,1.134,2.127,1.773c0.33,0.307,0.653,0.607,0.972,0.903c0.289,0.324,0.573,0.642,0.851,0.953
				c1.114,1.253,1.957,2.548,2.669,3.728c0.307,0.617,0.593,1.195,0.857,1.729c0.22,0.56,0.422,1.073,0.604,1.536
				c0.258,0.944,0.515,1.714,0.566,2.263c0.092,0.54,0.141,0.828,0.141,0.828s0.012-0.292,0.034-0.839
				C420.471,269.827,420.419,269.027,420.304,267.974z"/>
			<path style="fill:#4E6D8C;" d="M371.698,259.261c0.848-1.174,1.942-2.352,3.343-3.605c1.863-1.562,3.543-2.666,5.261-3.453
				l1.578-0.74l1.569-0.565c0.794-0.329,1.604-0.519,2.463-0.72c0.293-0.068,0.587-0.138,0.881-0.211
				c0.716-0.167,1.486-0.268,2.301-0.375c0.417-0.056,0.835-0.11,1.25-0.175c0.81-0.06,1.604-0.098,2.481-0.139l0.924-0.045
				l1.146,0.058c0.802,0.038,1.604,0.077,2.4,0.141c0.343,0.059,0.763,0.114,1.183,0.17c0.783,0.104,1.524,0.203,2.245,0.371
				c0.266,0.066,0.547,0.133,0.829,0.199c0.87,0.205,1.692,0.398,2.455,0.714l1.693,0.614l1.487,0.703
				c1.711,0.782,3.39,1.887,5.293,3.478c1.358,1.216,2.44,2.378,3.271,3.52l-0.324-0.363l-1.033-0.968
				c-0.462-0.47-1.015-0.901-1.55-1.319c-0.209-0.162-0.419-0.327-0.628-0.496c-1.87-1.322-3.628-2.308-5.429-3.05
				c-1.884-0.882-3.947-1.369-6.251-1.87c-0.723-0.156-1.452-0.241-2.159-0.323c-0.387-0.046-0.774-0.09-1.159-0.147
				c-0.777-0.052-1.477-0.075-2.176-0.097c-0.417-0.014-0.834-0.027-1.25-0.045c-0.488,0.018-0.93,0.033-1.385,0.049
				c-0.706,0.023-1.445,0.047-2.114,0.091c-0.474,0.069-0.863,0.114-1.252,0.161c-0.674,0.078-1.371,0.16-2.078,0.313
				c-1.998,0.441-4.26,0.94-6.292,1.89c-1.743,0.718-3.501,1.703-5.331,2.992c-0.261,0.207-0.469,0.37-0.675,0.53
				c-0.538,0.42-1.096,0.854-1.589,1.357l-0.938,0.869L371.698,259.261z"/>
		</g>
		<path style="fill:#4E6D8C;" d="M420.107,289.368h-0.131c-0.499,0-0.903-0.404-0.903-0.903v-15.719c0-0.5,0.404-0.904,0.903-0.904
			h0.131c0.499,0,0.903,0.404,0.903,0.904v15.719C421.011,288.964,420.606,289.368,420.107,289.368z"/>
		<path style="fill:#F1C40F;" d="M365.193,272.141L365.193,272.141v-0.929h1.924h1.21c0.394,0,0.714,0.319,0.714,0.714v22.938
			c0,0.394-0.32,0.714-0.714,0.714h-3.134v-0.93l0,0c-4.249,0-7.693-3.444-7.693-7.692v-7.122
			C357.5,275.585,360.944,272.141,365.193,272.141z"/>
		<path style="opacity:0.6;fill:#E74C3C;" d="M358.365,276.298v10.037c0,4.716,7.316,4.708,7.316,0v-15.123h2.646
			c0.394,0,0.714,0.319,0.714,0.713v22.939c0,0.394-0.32,0.714-0.714,0.714h-3.134v-0.93l0,0c-4.249,0-7.693-3.444-7.693-7.692
			v-7.122C357.5,278.558,357.815,277.357,358.365,276.298z"/>
		<path style="fill:#34495E;" d="M365.193,271.212h1.924h1.21c0.394,0,0.714,0.319,0.714,0.714v22.938
			c0,0.394-0.32,0.714-0.714,0.714h-3.134V271.212z"/>
		<path style="fill:#4E6D8C;" d="M367.393,289.368h0.131c0.499,0,0.903-0.404,0.903-0.903v-15.719c0-0.5-0.404-0.904-0.903-0.904
			h-0.131c-0.499,0-0.903,0.404-0.903,0.904v15.719C366.489,288.964,366.894,289.368,367.393,289.368z"/>
	</g>
	<path style="fill:#2ECC71;" d="M411.723,283.395c0,9.927-8.046,17.974-17.973,17.974c-9.927,0-17.973-8.047-17.973-17.974
		c0-9.926,8.046-17.973,17.973-17.973C403.677,265.422,411.723,273.469,411.723,283.395z"/>
	<path style="fill:#ECF0F1;" d="M389.564,274.281l13.945,8.052c0.817,0.472,0.817,1.651,0,2.123l-13.945,8.052
		c-0.817,0.472-1.839-0.118-1.839-1.062v-16.103C387.726,274.399,388.747,273.81,389.564,274.281z"/>
	<path style="opacity:0.4;fill:#ECF0F1;" d="M395.233,283.073c4.311-3.479,8.736-6.796,13.343-9.83
		c-3.238-4.722-8.668-7.821-14.826-7.821c-9.927,0-17.973,8.047-17.973,17.973c0,4.742,1.85,9.043,4.851,12.254
		C385.148,291.038,390.403,286.971,395.233,283.073z"/>
</g>
<g>
	<g>
		
			<ellipse transform="matrix(0.9871 -0.1602 0.1602 0.9871 -64.5011 10.3501)" style="fill:#3498DB;" cx="31.947" cy="405.248" rx="12.484" ry="12.484"/>
		<path style="fill:#3498DB;" d="M93.038,403.334c0-7.952-6.446-14.399-14.399-14.399c-7.952,0-14.399,6.446-14.399,14.399
			c0,7.952,6.446,14.398,14.399,14.398C86.591,417.732,93.038,411.286,93.038,403.334z"/>
		<path style="fill:#3498DB;" d="M77.224,396.26c0-11.859-9.614-21.474-21.474-21.474S34.277,384.4,34.277,396.26
			c0,11.859,9.614,21.473,21.473,21.473S77.224,408.119,77.224,396.26z"/>
		<rect x="31.947" y="400.291" style="fill:#3498DB;" width="46.692" height="17.396"/>
	</g>
	<g>
		<path style="fill:#246FA1;" d="M72.25,382.522c-1.776-2.131-3.959-3.909-6.427-5.224c0.739,1.139,1.173,2.492,1.173,3.947V392.6
			H52.453v-11.354c0-2.788,1.579-5.211,3.887-6.431c-0.198-0.005-0.39-0.029-0.589-0.029c-2.598,0-5.077,0.484-7.382,1.33
			c-0.743,1.601-1.169,3.379-1.169,5.26v17.567H72.25V382.522z"/>
		<circle style="fill:#246FA1;" cx="59.725" cy="398.943" r="16.471"/>
		<circle style="fill:#246FA1;" cx="59.725" cy="398.943" r="12.525"/>
		<path style="fill:#246FA1;" d="M59.725,411.469c0,0-0.231,0.005-0.665,0.015c-0.433,0.028-1.066-0.005-1.889-0.101
			c-0.804-0.146-1.79-0.345-2.857-0.792c-1.082-0.407-2.233-1.074-3.325-2.009c-2.182-1.828-4.188-4.883-4.515-8.58
			c-0.017-0.467-0.093-0.899-0.058-1.407c0.029-0.45-0.004-0.853,0.083-1.355c0.113-0.983,0.309-1.918,0.65-2.828
			c0.646-1.829,1.712-3.541,3.094-4.95c1.409-1.384,3.122-2.448,4.95-3.095c1.817-0.663,3.791-0.843,5.57-0.677
			c3.742,0.326,6.765,2.335,8.603,4.517c0.935,1.093,1.603,2.243,2.009,3.326c0.447,1.066,0.646,2.054,0.792,2.857
			c0.094,0.816,0.129,1.453,0.1,1.89c-0.01,0.433-0.015,0.664-0.015,0.664s-0.028-0.229-0.081-0.659
			c-0.026-0.432-0.178-1.048-0.341-1.826c-0.226-0.764-0.519-1.686-1.052-2.648c-0.497-0.975-1.238-1.973-2.15-2.933
			c-1.81-1.93-4.733-3.453-7.943-3.63c-1.665-0.108-3.315,0.153-4.911,0.728c-1.586,0.581-3.064,1.525-4.278,2.737
			c-1.213,1.212-2.157,2.691-2.738,4.277c-0.302,0.786-0.496,1.623-0.62,2.401c-0.092,0.372-0.081,0.861-0.123,1.284
			c-0.045,0.369,0.013,0.808,0.012,1.204c0.176,3.255,1.701,6.146,3.631,7.966c0.961,0.911,1.958,1.654,2.935,2.15
			c0.961,0.532,1.884,0.824,2.648,1.051c0.771,0.162,1.391,0.315,1.826,0.341C59.495,411.44,59.725,411.469,59.725,411.469z"/>
		<path style="fill:#246FA1;" d="M63.199,397.123c0,1.919-1.556,3.475-3.475,3.475c-1.919,0-3.475-1.556-3.475-3.475
			c0-1.92,1.556-3.475,3.475-3.475C61.644,393.648,63.199,395.203,63.199,397.123z"/>
		<polygon style="fill:#246FA1;" points="62.622,405.915 56.827,405.915 58.029,399.363 61.42,399.363 		"/>
	</g>
	<g>
		<path style="fill:#BDC3C7;" d="M56.25,365.692c-6.917,0-12.525,5.608-12.525,12.525v17.567h25.051v-17.567
			C68.775,371.301,63.167,365.692,56.25,365.692z M63.521,389.441H48.979v-11.354c0-4.01,3.262-7.271,7.271-7.271
			c4.01,0,7.271,3.262,7.271,7.271V389.441z"/>
		<circle style="fill:#F39C12;" cx="56.25" cy="395.785" r="16.471"/>
		
			<ellipse transform="matrix(0.1602 -0.9871 0.9871 0.1602 -343.4348 387.911)" style="fill:#F1C40F;" cx="56.25" cy="395.785" rx="12.525" ry="12.525"/>
		<path style="fill:#FFE169;" d="M56.25,408.31c0,0-0.231,0.005-0.664,0.015c-0.433,0.028-1.067-0.005-1.89-0.101
			c-0.804-0.146-1.791-0.345-2.857-0.792c-1.082-0.407-2.233-1.074-3.325-2.009c-2.182-1.828-4.188-4.883-4.515-8.58
			c-0.017-0.467-0.093-0.898-0.058-1.406c0.029-0.451-0.004-0.853,0.083-1.356c0.113-0.983,0.309-1.918,0.65-2.828
			c0.646-1.829,1.712-3.54,3.094-4.95c1.409-1.384,3.122-2.448,4.95-3.095c1.817-0.663,3.791-0.843,5.57-0.677
			c3.742,0.326,6.765,2.335,8.603,4.517c0.935,1.093,1.604,2.243,2.009,3.326c0.447,1.066,0.646,2.054,0.791,2.857
			c0.094,0.815,0.129,1.453,0.1,1.89c-0.01,0.433-0.015,0.664-0.015,0.664s-0.028-0.229-0.082-0.659
			c-0.026-0.432-0.178-1.048-0.341-1.826c-0.226-0.764-0.519-1.686-1.052-2.647c-0.497-0.976-1.238-1.973-2.15-2.934
			c-1.81-1.93-4.733-3.453-7.943-3.63c-1.665-0.108-3.315,0.153-4.911,0.729c-1.587,0.581-3.064,1.525-4.278,2.737
			c-1.213,1.212-2.157,2.691-2.738,4.277c-0.302,0.786-0.496,1.623-0.62,2.401c-0.092,0.372-0.08,0.861-0.122,1.284
			c-0.045,0.369,0.013,0.808,0.012,1.204c0.176,3.255,1.701,6.146,3.631,7.966c0.962,0.911,1.958,1.654,2.935,2.15
			c0.961,0.532,1.884,0.824,2.648,1.051c0.771,0.162,1.391,0.315,1.826,0.341C56.021,408.282,56.25,408.31,56.25,408.31z"/>
		<path style="fill:#2C3E50;" d="M59.725,393.965c0,1.919-1.556,3.475-3.475,3.475s-3.475-1.556-3.475-3.475
			c0-1.92,1.556-3.475,3.475-3.475S59.725,392.045,59.725,393.965z"/>
		<polygon style="fill:#2C3E50;" points="59.147,402.757 53.353,402.757 54.554,396.205 57.946,396.205 		"/>
	</g>
</g>
<g>
	<path style="fill:#ECF0F1;" d="M195.825,392.533c-0.726-8.193-7.597-14.619-15.979-14.619c-1.695,0-3.328,0.267-4.861,0.754
		c-3.304-3.9-8.23-6.383-13.743-6.383c-9.948,0-18.013,8.064-18.013,18.013c0,0.11,0.015,0.217,0.017,0.327
		c-6.145,1.35-10.746,6.817-10.746,13.367c0,7.564,6.131,13.695,13.695,13.695h45.03c0.299,0.021,0.598,0.045,0.903,0.045
		c7.109,0,12.873-5.763,12.873-12.872C205,399.037,201.131,394.122,195.825,392.533z"/>
	<path style="fill:#BDC3C7;" d="M195.825,392.533c-0.339-3.827-2.031-7.257-4.579-9.839c0.284,0.72,0.5,1.467,0.635,2.229
		c0.521,2.935,0.281,5.931-0.79,8.529c0.51-0.113,1.039-0.195,1.592-0.256c2.956-0.319,6.261,1.736,7.58,4.328
		c1.197,2.353,1.494,5.029,0.755,7.586c-0.751,2.594-2.373,4.84-4.659,6.29c-2.447,1.552-5.331,1.763-8.098,1.127
		c-0.8-0.184-1.515-0.51-2.145-0.938c-1.561,1.356-3.499,2.289-5.604,2.572c-4.374,0.588-9.153-1.34-11.708-5
		c-2.843,2.599-7.195,3.536-10.871,2.519c-2.453-0.679-4.576-2.251-5.938-4.395c-0.089-0.141-0.157-0.286-0.236-0.429
		c-0.839,0.746-1.804,1.357-2.853,1.799c-3.455,1.458-7.594,0.727-10.163-2.116c-1.928-2.134-3.155-5.196-2.896-8.107
		c0.004-1.321,0.337-2.554,0.999-3.695c0.381-0.493,0.763-0.987,1.145-1.481c0.74-0.806,1.685-1.348,2.704-1.69
		c1.055-0.55,2.18-0.841,3.384-0.845c0.649,0.088,1.297,0.175,1.946,0.262c0.308,0.07,0.602,0.174,0.889,0.293
		c0.33,0.007,0.66,0.039,0.986,0.088c-0.14-0.254-0.276-0.512-0.398-0.776c-1.769-3.835-1.892-8.753,0.337-12.294
		c-2.858,3.188-4.611,7.387-4.611,12.005c0,0.11,0.015,0.217,0.017,0.327c-6.145,1.35-10.746,6.817-10.746,13.367
		c0,7.564,6.131,13.695,13.695,13.695h45.03c0.299,0.021,0.598,0.045,0.903,0.045c7.109,0,12.873-5.763,12.873-12.872
		C205,399.037,201.131,394.122,195.825,392.533z"/>
	<g>
		<path style="fill:#BDC3C7;" d="M187.162,395.378c0,9.321-7.557,16.878-16.878,16.878s-16.878-7.557-16.878-16.878
			s7.556-16.877,16.878-16.877S187.162,386.057,187.162,395.378z"/>
		<path style="fill:#0F6E5B;" d="M185.155,391.815c0,9.195-7.455,16.649-16.65,16.649s-16.65-7.454-16.65-16.649
			c0-9.196,7.455-16.65,16.65-16.65S185.155,382.618,185.155,391.815z"/>
		<path style="fill:#31E07C;" d="M185.155,388.935c0,9.195-7.455,16.65-16.65,16.65s-16.65-7.454-16.65-16.65
			c0-9.195,7.455-16.65,16.65-16.65S185.155,379.74,185.155,388.935z"/>
		<path style="fill:#36F286;" d="M158.042,399.184c2.524-8.04,8.769-13.652,16.373-16.922c2.272-0.977,5.023-2.015,7.868-2.673
			c-2.996-4.407-8.048-7.304-13.778-7.304c-9.195,0-16.65,7.455-16.65,16.65c0,5.062,2.267,9.588,5.832,12.642
			C157.676,400.827,157.776,400.031,158.042,399.184z"/>
		<path style="fill:#16A085;" d="M164.627,380.493l12.919,7.459c0.757,0.437,0.757,1.529,0,1.967l-12.919,7.459
			c-0.757,0.437-1.703-0.109-1.703-0.983v-14.918C162.924,380.603,163.87,380.056,164.627,380.493z"/>
		<path style="fill:#0F6E5B;" d="M164.627,382.882l12.554,7.248l0.365-0.211c0.757-0.438,0.757-1.53,0-1.967l-12.919-7.459
			c-0.757-0.438-1.703,0.109-1.703,0.983v2.389C162.924,382.991,163.87,382.444,164.627,382.882z"/>
	</g>
</g>
<g>
	<path style="fill:#ECF0F1;" d="M309.816,392.932h-49.295c-3.916,0-7.092,3.176-7.092,7.092c0,3.283,2.233,6.037,5.262,6.845h-6.6
		c-3.917,0-7.092,3.176-7.092,7.092v0.001c0,3.916,3.175,7.092,7.092,7.092h49.294c3.917,0,7.092-3.176,7.092-7.092v-0.001
		c0-3.282-2.233-6.036-5.261-6.844h6.6c3.916,0,7.092-3.176,7.092-7.093C316.908,396.107,313.732,392.932,309.816,392.932z"/>
	<path style="fill:#BDC3C7;" d="M308.477,413.961L308.477,413.961c0-3.283-2.233-6.037-5.261-6.845h3.048l-7.263-7.263
		l-33.813,1.827l19.372,19.372h16.824C305.303,421.053,308.477,417.877,308.477,413.961z"/>
	<g>
		<path style="fill:#34495E;" d="M296.035,402.821h-28.522c-1.639,0-2.968-1.329-2.968-2.968v-25.526
			c0-1.639,1.329-2.967,2.968-2.967h28.523c1.158,1.158,1.808,1.808,2.966,2.966v25.527
			C299.002,401.492,297.674,402.821,296.035,402.821z"/>
		<path style="fill:#263545;" d="M287.821,385.742h-18.119c-1.209,0-2.189-0.98-2.189-2.189V371.36h22.498v12.192
			C290.011,384.762,289.03,385.742,287.821,385.742z"/>
		<path style="fill:#BDC3C7;" d="M269.867,371.36v14.382h12.334V371.36H269.867z M280.522,383.99h-4.963v-10.145h4.963V383.99z"/>
		<path style="fill:#CED4D9;" d="M275.398,379.7c0.054-0.042,0.107-0.081,0.161-0.123v-5.731h4.963v2.152
			c0.555-0.368,1.115-0.725,1.679-1.074v-3.563h-12.334v12.807C271.644,382.6,273.542,381.15,275.398,379.7z"/>
		<path style="fill:#ECF0F1;" d="M293.753,388.224h-23.958c-1.261,0-2.282,1.021-2.282,2.282v12.315h28.522v-12.315
			C296.035,389.245,295.013,388.224,293.753,388.224z"/>
		<rect x="293.805" y="373.632" style="fill:#263545;" width="2.23" height="2.23"/>
		<rect x="269.131" y="392.618" style="fill:#C0392B;" width="25.237" height="0.799"/>
		<rect x="269.131" y="396.096" style="fill:#C0392B;" width="25.237" height="0.8"/>
		<rect x="269.131" y="399.574" style="fill:#C0392B;" width="25.237" height="0.799"/>
	</g>
</g>
<g>
	<path style="fill:#ECF0F1;" d="M366.65,393.046c0.726-8.192,7.598-14.619,15.978-14.619c1.695,0,3.327,0.268,4.861,0.754
		c3.305-3.899,8.23-6.382,13.743-6.382c9.947,0,18.012,8.065,18.012,18.013c0,0.11-0.014,0.217-0.016,0.326
		c6.145,1.35,10.746,6.818,10.746,13.368c0,7.563-6.132,13.694-13.695,13.694h-45.029c-0.3,0.022-0.599,0.046-0.903,0.046
		c-7.109,0-12.872-5.764-12.872-12.872C357.476,399.55,361.345,394.636,366.65,393.046z"/>
	<path style="fill:#BDC3C7;" d="M428.558,410.546l-22.171-22.171l-4.76-0.167l-5.904-5.904l-3.621,4.408l-14.286,13.498l5.905,5.904
		l0.167,4.761l7.326,7.325h25.066C421.673,418.2,426.324,415.076,428.558,410.546z"/>
	<path style="fill:#BDC3C7;" d="M376.712,389.486c-1.619,3.361-2.168,7.253-1.51,10.961c0.359,2.031,0.726,3.973,1.507,5.902
		c-2.686-3.167-8.289-4.855-11.58-1.611c-0.997,0.982-1.422,2.509-1.076,3.865c-1.504-2.424-1.923-6.055,0.293-8.168
		c1.847-1.761,4.291-2.411,6.713-1.529c-0.175-1.564-0.35-3.138-0.242-4.708c0.197-2.865,1.485-5.688,3.563-7.681
		c1.853-1.778,5.381-2.81,7.828-3.471C379.796,384.677,377.944,386.928,376.712,389.486z"/>
	<path style="fill:#D35400;" d="M409.635,400.21v-3.994l-3.854-1.01c-0.301-1.211-0.778-2.35-1.405-3.392l2.012-3.44v-3.752
		l-2.824,0.928l-3.44,2.012c-1.041-0.627-2.18-1.103-3.392-1.405l-1.009-3.853h-3.995l-1.009,3.853
		c-1.211,0.302-2.35,0.778-3.392,1.405l-3.439-2.012l-2.824-0.928v3.752l2.012,3.44c-0.627,1.042-1.104,2.181-1.405,3.392
		l-3.854,1.01v3.994l3.854,1.009c0.301,1.212,0.778,2.35,1.405,3.392l-2.012-0.313v3.752l2.824,2.825l3.439-2.013
		c1.042,0.628,2.181,1.104,3.392,1.406l1.009,3.854h3.995l1.009-3.854c1.212-0.302,2.351-0.778,3.392-1.406l3.44,2.013l2.824-2.825
		v-3.752l-2.012,0.313c0.628-1.042,1.104-2.181,1.405-3.392L409.635,400.21z M393.726,405.314c-3.922,0-7.101-3.179-7.101-7.101
		s3.179-7.101,7.101-7.101c3.921,0,7.101,3.179,7.101,7.101S397.646,405.314,393.726,405.314z"/>
	<path style="fill:#F39C12;" d="M409.635,396.458v-3.995l-3.854-1.009c-0.301-1.211-0.778-2.35-1.405-3.392l2.012-3.44l-2.824-2.824
		l-3.44,2.012c-1.041-0.627-2.18-1.104-3.392-1.405l-1.009-3.854h-3.995l-1.009,3.854c-1.211,0.301-2.35,0.778-3.392,1.405
		l-3.439-2.012l-2.824,2.824l2.012,3.44c-0.627,1.041-1.104,2.181-1.405,3.392l-3.854,1.009v3.995l3.854,1.009
		c0.301,1.211,0.778,2.351,1.405,3.392l-2.012,3.44l2.824,2.824l3.439-2.012c1.042,0.627,2.181,1.104,3.392,1.405l1.009,3.854h3.995
		l1.009-3.854c1.212-0.301,2.351-0.777,3.392-1.405l3.44,2.012l2.824-2.824l-2.012-3.44c0.628-1.041,1.104-2.181,1.405-3.392
		L409.635,396.458z M393.726,401.561c-3.922,0-7.101-3.18-7.101-7.101c0-3.922,3.179-7.1,7.101-7.1c3.921,0,7.101,3.179,7.101,7.1
		C400.826,398.382,397.646,401.561,393.726,401.561z"/>
	<path style="fill:#FFCF10;" d="M383.075,400.858l-2.012,3.44l1.712,1.713c2.258-1.968,4.588-3.853,6.977-5.665
		c-1.887-1.276-3.127-3.436-3.127-5.885c0-3.922,3.179-7.1,7.101-7.1c3.31,0,6.082,2.267,6.869,5.332
		c1.527-1.01,3.066-1.996,4.625-2.945c-0.24-0.585-0.522-1.148-0.845-1.685l2.012-3.44l-2.824-2.824l-3.44,2.012
		c-1.041-0.627-2.18-1.104-3.392-1.405l-1.009-3.854h-3.995l-1.009,3.854c-1.211,0.301-2.35,0.778-3.392,1.405l-3.439-2.012
		l-2.824,2.824l2.012,3.44c-0.627,1.041-1.104,2.181-1.405,3.392l-3.854,1.009v3.995l3.854,1.009
		C381.972,398.678,382.448,399.817,383.075,400.858z"/>
</g>
</svg>
