<?xml version="1.0" encoding="UTF-8" standalone="no"?>
<svg
   xmlns:dc="http://purl.org/dc/elements/1.1/"
   xmlns:cc="http://creativecommons.org/ns#"
   xmlns:rdf="http://www.w3.org/1999/02/22-rdf-syntax-ns#"
   xmlns:svg="http://www.w3.org/2000/svg"
   xmlns="http://www.w3.org/2000/svg"
   viewBox="0 0 666.66669 666.66669"
   height="666.66669"
   width="666.66669"
   xml:space="preserve"
   id="svg2"
   version="1.1"><metadata
     id="metadata8"><rdf:RDF><cc:Work
         rdf:about=""><dc:format>image/svg+xml</dc:format><dc:type
           rdf:resource="http://purl.org/dc/dcmitype/StillImage" /></cc:Work></rdf:RDF></metadata><defs
     id="defs6"><clipPath
       id="clipPath22"
       clipPathUnits="userSpaceOnUse"><path
         id="path20"
         d="M 240,240 H 4760 V 4760 H 240 Z" /></clipPath></defs><g
     transform="matrix(1.3333333,0,0,-1.3333333,0,666.66667)"
     id="g10"><g
       transform="scale(0.1)"
       id="g12"><path
         id="path14"
         style="fill:#fbfafa;fill-opacity:1;fill-rule:nonzero;stroke:none"
         d="M 0,0 H 5000 V 5000 H 0 Z" /><g
         id="g16"><g
           clip-path="url(#clipPath22)"
           id="g18"><path
             id="path24"
             style="fill:#f8e8d3;fill-opacity:1;fill-rule:nonzero;stroke:none"
             d="M 240,240 H 4760 V 4760 H 240 Z" /><path
             id="path26"
             style="fill:#a3c663;fill-opacity:1;fill-rule:nonzero;stroke:none"
             d="m 1652.98,2344.58 c -2.37,-21.3 -4.87,-41.02 -7.89,-60.48 v -0.39 c -21.04,-144.5 -58.78,-260.47 -115.32,-354.22 -6.44,-10.65 -13.14,-21.17 -20.11,-31.29 -108.48,-159.36 -289.01,-282.96 -568.015,-388.67 l -6.707,-2.5 c -2.891,-1.05 -5.653,-2.11 -8.547,-3.16 -10.52,190.66 14.593,385.38 73.238,565.91 10.121,31.03 21.431,62.46 32.471,92.96 22.75,62.98 46.16,128.2 60.88,195.39 38.53,176.71 13.55,368.94 -68.11,530.8 3.95,3.16 7.89,6.31 12.1,10 16.04,13.93 30.37,29.32 44.31,44.31 14.99,16.04 29.19,31.16 44.84,44.44 58.51,48.91 141.08,73.23 259.94,76.78 81.92,2.5 164.09,-3.94 244.69,-18.93 12.5,-85.6 21.57,-166.2 27.49,-243.38 12.22,-164.62 10.51,-314.25 -5.26,-457.57" /><path
             id="path28"
             style="fill:#a3c663;fill-opacity:1;fill-rule:nonzero;stroke:none"
             d="m 4120.94,1288.24 c -53.78,-35.37 -102.42,-77.45 -144.89,-125.18 -42.74,-47.99 -79.95,-102.16 -115.97,-154.62 -54.31,-79.151 -105.59,-153.838 -173.69,-208.268 -22.62,-17.891 -44.71,-32.09 -67.98,-43.531 -145.29,-71.922 -318.59,-32.082 -486.5,6.449 -74.15,17.09 -159.88,34.051 -245.08,36.808 1.05,5.391 1.97,10.922 2.76,16.313 5.92,38.789 9.33,77.84 9.99,116.359 2.24,140.03 -32.08,284.01 -97.3,411.81 46.29,34.19 91.25,70.35 134.91,105.58 125.17,100.98 243.37,196.31 384.72,243.12 29.85,9.86 61.67,17.88 94.54,23.8 19.06,3.55 38.39,6.18 57.98,8.41 263.23,-109.13 455.2,-232.59 599.31,-384.98 15.91,-16.97 31.82,-34.72 47.2,-52.07" /><path
             id="path30"
             style="fill:#a3c663;fill-opacity:1;fill-rule:nonzero;stroke:none"
             d="m 3494.55,3487.32 c -0.79,-3.29 -1.45,-6.58 -2.37,-9.99 -6.96,-27.35 -16.43,-54.97 -25.5,-81.66 -8.95,-26.29 -18.15,-53.51 -25.51,-81.25 -15.52,-58.12 -22.35,-119.65 -20.38,-180.93 -22.22,-6.97 -43.92,-14.72 -65.22,-22.22 -28.53,-10.12 -55.49,-19.59 -82.7,-27.35 -102.17,-29.19 -213.93,-31.82 -323.19,-7.75 h -0.27 c -156.86,34.44 -294.92,118.99 -388.8,238.25 -47.2,60.09 -85.33,128.72 -125.56,201.43 -33.93,61.4 -69.17,124.91 -110.58,183.03 -6.84,9.6 -13.68,18.54 -20.51,27.35 119.38,29.71 238.9,62.06 355,93.74 34.45,9.34 69.17,18.81 104.01,28.14 55.75,-54.04 111.24,-108.21 166.98,-162.51 62.99,-61.14 128.2,-124.39 211.04,-163.83 64.43,-30.64 138.71,-46.02 221.94,-46.02 41.55,0 85.21,3.81 131.09,11.57 h 0.53" /><path
             id="path32"
             style="fill:#a3c663;fill-opacity:1;fill-rule:nonzero;stroke:none"
             d="m 2915.89,1601.43 c -20.65,-16.3 -41.03,-32.87 -61.28,-49.17 -47.07,-38 -95.72,-77.18 -144.37,-112.55 -66.13,-47.86 -123.2,-82.05 -179.47,-107.56 -110.45,-49.96 -230.76,-72.31 -358.04,-95.85 -14.85,-2.76 -29.71,-5.39 -44.57,-8.28 -66.53,-12.49 -131.75,-26.3 -194.33,-40.89 -10.79,16.04 -21.04,32.74 -30.51,49.96 -33.13,60.48 -58.9,126.36 -81.91,188.55 -5,13.67 -10,27.35 -14.99,41.02 -22.49,61.67 -45.76,125.44 -74.55,186.45 -38,80.6 -85.34,156.33 -140.96,225.63 2.11,3.41 4.34,6.57 6.45,9.99 56.54,93.61 95.45,206.17 118.99,342.52 55.49,-11.31 110.84,-22.62 166.2,-33.93 107.42,-21.96 213.13,-40.76 313.98,-40.76 h 3.16 c 17.88,-35.63 33.66,-72.97 46.81,-110.97 4.2,-12.1 8.28,-24.46 12.36,-36.95 26.82,-81.91 57.32,-174.61 133.85,-224.18 2.89,-1.97 5.65,-3.68 8.54,-5.39 51.55,-29.98 109.66,-33.66 165.81,-37.34 28.27,-1.84 54.83,-3.55 80.6,-8.28 73.89,-14.07 140.82,-54.7 205.64,-94.02 l 62.59,-38" /><path
             id="path34"
             style="fill:#e2cfba;fill-opacity:1;fill-rule:nonzero;stroke:none"
             d="M 1284.85,3809.98 H 921.527 v 202.62 h 363.323 v -202.62" /><path
             id="path36"
             style="fill:#e2cfba;fill-opacity:1;fill-rule:nonzero;stroke:none"
             d="m 1235.56,3678.54 h -82.15 v 174.16 h 82.15 v -174.16" /><path
             id="path38"
             style="fill:#e2cfba;fill-opacity:1;fill-rule:nonzero;stroke:none"
             d="M 1103.19,3251.35 H 670.355 v 196.14 h 432.835 v -196.14" /><path
             id="path40"
             style="fill:#e2cfba;fill-opacity:1;fill-rule:nonzero;stroke:none"
             d="m 417.332,3081.4 h -95.297 v 196.24 h 95.297 V 3081.4" /><path
             id="path42"
             style="fill:#e2cfba;fill-opacity:1;fill-rule:nonzero;stroke:none"
             d="M 775.512,3011.97 H 630.926 v 105.59 h 144.586 v -105.59" /><path
             id="path44"
             style="fill:#e2cfba;fill-opacity:1;fill-rule:nonzero;stroke:none"
             d="m 1442.58,3277.64 h -124.87 v 216.88 h 124.87 v -216.88" /><path
             id="path46"
             style="fill:#e2cfba;fill-opacity:1;fill-rule:nonzero;stroke:none"
             d="m 1482.01,4372.96 h -101.87 v 242.1 h 101.87 v -242.1" /><path
             id="path48"
             style="fill:#e2cfba;fill-opacity:1;fill-rule:nonzero;stroke:none"
             d="m 1652.88,4467.19 h 236.602 v 147.871 H 1652.88 Z" /><path
             id="path50"
             style="fill:#e2cfba;fill-opacity:1;fill-rule:nonzero;stroke:none"
             d="m 2277.23,4494.01 h -105.15 v 213.06 h 105.15 v -213.06" /><path
             id="path52"
             style="fill:#e2cfba;fill-opacity:1;fill-rule:nonzero;stroke:none"
             d="m 2612.41,3970.99 h -269.46 v 141.3 h 269.46 v -141.3" /><path
             id="path54"
             style="fill:#e2cfba;fill-opacity:1;fill-rule:nonzero;stroke:none"
             d="m 2727.42,4073.7 h 114.18 v 114.176 h -114.18 z" /><path
             id="path56"
             style="fill:#e2cfba;fill-opacity:1;fill-rule:nonzero;stroke:none"
             d="m 3391.21,3731.22 h -200.45 v 128.05 h 200.45 v -128.05" /><path
             id="path58"
             style="fill:#e2cfba;fill-opacity:1;fill-rule:nonzero;stroke:none"
             d="m 3759.24,3795.24 h -216.88 v 122.87 h 216.88 v -122.87" /><path
             id="path60"
             style="fill:#e2cfba;fill-opacity:1;fill-rule:nonzero;stroke:none"
             d="m 4219.29,3795.24 h -246.45 v 217.36 h 246.45 v -217.36" /><path
             id="path62"
             style="fill:#e2cfba;fill-opacity:1;fill-rule:nonzero;stroke:none"
             d="m 2060.48,3222.38 h -189.6 v 189.59 h 189.6 v -189.59" /><path
             id="path64"
             style="fill:#e2cfba;fill-opacity:1;fill-rule:nonzero;stroke:none"
             d="m 1915.33,2500 h 226.707 v 511.93 H 1915.33 Z" /><path
             id="path66"
             style="fill:#e2cfba;fill-opacity:1;fill-rule:nonzero;stroke:none"
             d="m 2084.25,2736.3 h 393.43 v 142.25 h -393.43 z" /><path
             id="path68"
             style="fill:#e2cfba;fill-opacity:1;fill-rule:nonzero;stroke:none"
             d="m 2417.64,2547.19 h -74.69 v 208.77 h 74.69 v -208.77" /><path
             id="path70"
             style="fill:#e2cfba;fill-opacity:1;fill-rule:nonzero;stroke:none"
             d="m 2889.04,2599.4 h -136.9 v 136.9 h 136.9 v -136.9" /><path
             id="path72"
             style="fill:#e2cfba;fill-opacity:1;fill-rule:nonzero;stroke:none"
             d="m 4712.62,2426.82 h -198.95 v 380.6 h 198.95 v -380.6" /><path
             id="path74"
             style="fill:#e2cfba;fill-opacity:1;fill-rule:nonzero;stroke:none"
             d="m 4166.66,2690.55 h -226.71 v 116.87 h 226.71 v -116.87" /><path
             id="path76"
             style="fill:#e2cfba;fill-opacity:1;fill-rule:nonzero;stroke:none"
             d="m 4652.48,1941.01 h -138.81 v 255.03 h 138.81 v -255.03" /><path
             id="path78"
             style="fill:#e2cfba;fill-opacity:1;fill-rule:nonzero;stroke:none"
             d="m 3404.62,2235.68 h 350.258 v 112.492 H 3404.62 Z" /><path
             id="path80"
             style="fill:#e2cfba;fill-opacity:1;fill-rule:nonzero;stroke:none"
             d="m 3662.34,2024.29 h -144.58 v 111.04 h 144.58 v -111.04" /><path
             id="path82"
             style="fill:#e2cfba;fill-opacity:1;fill-rule:nonzero;stroke:none"
             d="m 4113.32,2005.78 h -173.37 v 229.9 h 173.37 v -229.9" /><path
             id="path84"
             style="fill:#e2cfba;fill-opacity:1;fill-rule:nonzero;stroke:none"
             d="m 2334.44,594.609 h -148.73 v 245.223 h 148.73 V 594.609" /><path
             id="path86"
             style="fill:#e2cfba;fill-opacity:1;fill-rule:nonzero;stroke:none"
             d="M 2708.21,839.832 H 2500 v 208.198 h 208.21 V 839.832" /><path
             id="path88"
             style="fill:#e2cfba;fill-opacity:1;fill-rule:nonzero;stroke:none"
             d="m 3491.15,293.859 h -407.16 v 212.84 h 407.16 v -212.84" /><path
             id="path90"
             style="fill:#e2cfba;fill-opacity:1;fill-rule:nonzero;stroke:none"
             d="M 526.234,2348.17 H 387.871 v 319.68 h 138.363 v -319.68" /><path
             id="path92"
             style="fill:#e2cfba;fill-opacity:1;fill-rule:nonzero;stroke:none"
             d="m 652.379,2413.66 h 269.148 v 219.969 H 652.379 Z" /><path
             id="path94"
             style="fill:#e2cfba;fill-opacity:1;fill-rule:nonzero;stroke:none"
             d="m 775.508,2161.77 h 94.8633 v 308.66 H 775.508 Z" /><path
             id="path96"
             style="fill:#e2cfba;fill-opacity:1;fill-rule:nonzero;stroke:none"
             d="m 565.262,2026.96 h 257.68 v 208.719 h -257.68 z" /><path
             id="path98"
             style="fill:#e2cfba;fill-opacity:1;fill-rule:nonzero;stroke:none"
             d="M 526.234,1601.22 H 341.75 v 141.91 h 184.484 v -141.91" /><path
             id="path100"
             style="fill:#e2cfba;fill-opacity:1;fill-rule:nonzero;stroke:none"
             d="M 749.746,1672.18 H 457.055 v 156.1 h 292.691 v -156.1" /><path
             id="path102"
             style="fill:#e2cfba;fill-opacity:1;fill-rule:nonzero;stroke:none"
             d="M 676.621,803.391 H 283.199 V 1065.67 H 676.621 V 803.391" /><path
             id="path104"
             style="fill:#e2cfba;fill-opacity:1;fill-rule:nonzero;stroke:none"
             d="M 941.836,984.77 H 822.941 v 253.02 H 941.836 V 984.77" /><path
             id="path106"
             style="fill:#e2cfba;fill-opacity:1;fill-rule:nonzero;stroke:none"
             d="m 1160.2,1272.2 h 172.121 v 120.582 H 1160.2 Z" /><path
             id="path108"
             style="fill:#e2cfba;fill-opacity:1;fill-rule:nonzero;stroke:none"
             d="M 1784.46,758.309 H 1606.5 v 81.523 h 177.96 v -81.523" /><path
             id="path110"
             style="fill:#fefbf6;fill-opacity:1;fill-rule:nonzero;stroke:none"
             d="m 4011.02,612.398 c -39.15,30.934 -82.65,55.082 -124.73,78.442 -17.42,9.68 -34.85,19.351 -51.97,29.492 -30.72,18.27 -60.87,38.52 -90.01,60.328 62.11,56.731 111.38,128.418 159.17,198.059 35.04,51.081 71.29,103.901 111.8,149.381 45.89,51.58 99.5,95.99 159.31,131.95 l -27.09,45.07 c -64.38,-38.7 -122.09,-86.5 -171.5,-142.05 -42.71,-47.95 -79.91,-102.17 -115.89,-154.6 -54.29,-79.13 -105.59,-153.888 -173.78,-208.349 -22.52,-17.891 -44.7,-32.082 -67.88,-43.441 -145.36,-71.938 -318.69,-32.149 -486.55,6.402 -83.52,19.18 -181.74,38.387 -277.28,37.219 l 0.77,-52.59 c 89.8,1.641 184.29,-17.41 265.01,-35.949 99.08,-22.742 205.93,-47.282 310.12,-47.282 72.87,0 144.46,12 211.16,45.02 20.8,10.18 40.84,22.398 60.85,36.961 33.8,-25.93 68.96,-49.961 104.95,-71.34 17.55,-10.41 35.42,-20.332 53.28,-30.262 42.09,-23.371 81.86,-45.437 117.66,-73.73 122.29,-96.559 177.11,-245.039 235.14,-402.25 l 49.34,18.211 c -58,157.109 -117.98,319.582 -251.88,425.308 m 58.05,3063.472 -2.08,-0.28 c -89.46,-13.25 -171.53,-29.78 -250.91,-50.54 -36.71,-9.59 -73.61,-20.34 -109.3,-30.74 -59.45,-17.3 -120.89,-35.2 -181.89,-47.83 h -20.68 l -0.49,-3.93 c -6.12,-1.13 -12.22,-2.37 -18.38,-3.39 -126.84,-21.21 -235.11,-11.07 -321.74,30.15 -75.03,35.69 -137.06,95.88 -197.01,154.04 -59.18,57.74 -118.49,115.34 -177.8,172.94 l -36.64,-37.72 c 59.28,-57.58 118.56,-115.15 177.77,-172.92 63.04,-61.17 128.25,-124.43 211.08,-163.83 64.42,-30.65 138.71,-46.03 221.93,-46.03 41.51,0 85.25,3.83 131.08,11.49 l 0.54,0.1 c -0.79,-3.37 -1.41,-6.57 -2.32,-10.08 -7.03,-27.33 -16.44,-54.96 -25.55,-81.68 -8.95,-26.27 -18.21,-53.44 -25.56,-81.17 -20.69,-78.04 -25.95,-162.26 -15.23,-243.56 l 52.13,6.87 c -9.82,74.56 -5.01,151.74 13.94,223.22 6.89,25.96 15.84,52.25 24.5,77.67 9.43,27.66 19.17,56.26 26.69,85.5 3.11,11.98 5.42,23.23 7.37,34.24 57.95,12.73 115.33,29.23 170.96,45.43 35.34,10.29 71.9,20.94 107.9,30.34 74.62,19.53 151.91,35.16 235.67,47.87 39.15,-25.64 69.24,-50.63 93.92,-78.12 66.47,-74.06 98.79,-174.78 121.63,-263.52 5.22,-20.24 10.13,-40.6 15.06,-60.97 17.83,-73.68 36.25,-149.87 68.22,-220.73 l 47.95,21.63 c -29.96,66.38 -47.79,140.13 -65.05,211.46 -4.98,20.62 -9.96,41.22 -15.24,61.71 -24.42,94.92 -59.39,203.06 -133.44,285.55 -16.75,18.66 -35.59,36.16 -57.24,53.3 221.83,27.14 448.93,29.03 681.08,28.27 l 0.15,52.6 c -256.57,0.81 -507.31,-1.45 -753.02,-37.34 m -1057.1,-2071.15 -131.36,79.68 c -65.6,39.78 -139.94,84.85 -223.24,100.66 -28.89,5.42 -58.4,7.32 -86.94,9.16 -40.24,2.59 -78.72,5.16 -112.99,16.99 25.47,16.54 55.5,30.86 90.01,42.65 32.74,11.23 67.44,19.97 101.01,28.42 41.76,10.52 84.91,21.39 126.41,37.38 78.96,30.22 149.23,77.71 217.58,123.91 31.86,21.61 67.95,46.12 94.29,80.54 24.53,32.37 37.95,69.98 47.87,102.58 27.11,90.09 38.72,183.45 34.5,277.33 -0.5,13.06 -1.48,27.18 -2.99,43.17 l -52.37,-4.97 c 1.43,-14.99 2.34,-28.13 2.8,-40.38 3.97,-88.13 -6.89,-175.6 -32.28,-259.92 -8.55,-28.08 -19.91,-60.27 -39.38,-85.95 -21.08,-27.55 -52.04,-48.57 -82.28,-69.09 -65.5,-44.28 -133.23,-90.04 -206.59,-118.12 -38.58,-14.87 -78.32,-24.87 -120.4,-35.48 -34.62,-8.72 -70.4,-17.73 -105.2,-29.66 -48.82,-16.68 -90.32,-38.19 -123.86,-63.98 -50.6,42.31 -74.59,114.92 -97.76,185.42 -4.18,12.7 -8.32,25.31 -12.6,37.69 -17.54,50.56 -39.19,99.68 -64.34,145.94 l -46.2,-25.11 c 23.78,-43.75 44.24,-90.21 60.83,-138.04 4.19,-12.09 8.25,-24.45 12.34,-36.9 26.9,-81.86 57.41,-174.64 133.86,-224.22 2.85,-1.9 5.72,-3.66 8.61,-5.33 51.54,-30.02 109.6,-33.74 165.75,-37.36 28.22,-1.81 54.87,-3.52 80.56,-8.35 73.91,-14.03 140.92,-54.66 205.73,-93.95 l 131.36,-79.67 27.27,44.96 M 2056.2,908.051 c -32.68,-64.403 -72.62,-126.879 -111.26,-187.309 -16.5,-25.812 -33.42,-52.422 -49.82,-79.094 -135.56,-25.339 -291.35,-49.867 -442.04,-32.828 -75.1,8.571 -151.52,27.571 -225.41,45.93 -69.15,17.18 -140.66,34.949 -211.8,44.461 l -6.98,-52.129 c 68.26,-9.121 138.33,-26.543 206.09,-43.371 75.53,-18.781 153.64,-38.18 232.17,-47.152 36.92,-4.161 74.01,-5.989 110.92,-5.989 103.99,0 206.62,14.43 301.27,31.16 -4.92,-8.621 -9.62,-16.988 -13.98,-25.019 -62.93,-115.902 -108.42,-241.559 -135.19,-373.5 l 51.54,-10.449 c 25.73,126.808 69.44,247.547 129.88,358.867 11.61,21.41 25.01,44.473 42.23,72.641 17.99,29.562 37.02,59.351 55.43,88.152 39.33,61.5 79.98,125.098 113.84,191.82 50.12,98.68 77.91,193.348 82.62,281.368 l -52.52,2.8 c -4.31,-80.65 -30.21,-168.25 -76.99,-260.359 M 1863.51,4154.64 c 6.96,22.66 15.66,48.45 30.99,67.82 41.45,52.47 123.53,55.18 206.17,50.27 92.15,-5.62 194.03,-1.57 250.52,71.19 10.67,13.81 18.39,28.58 25.85,42.87 7.65,14.65 14.9,28.51 24.37,39.33 43.87,49.89 125.9,34.83 205.2,20.28 8.72,-1.6 17.32,-3.17 25.75,-4.64 50.85,-8.85 102.84,-11.34 154.66,-8.07 29.22,-48.99 74.59,-110.19 145.5,-138.14 50.85,-20.08 106.25,-19.3 155.09,-18.66 l 182.33,2.75 c 16.23,0.25 33.01,0.47 46.31,-4.75 19.97,-7.84 34.99,-29.6 48.6,-51.16 39.29,-62.64 74.15,-127.82 103.59,-193.72 l 48.02,21.46 c -30.45,68.13 -66.47,135.49 -107.11,200.28 -17.51,27.73 -39.11,58.45 -73.9,72.1 -22.9,8.99 -46.94,8.65 -66.26,8.39 l -182.34,-2.76 c -46.11,-0.66 -93.82,-1.27 -135.03,15 -39.67,15.63 -73.28,45.76 -106.18,95.13 80.03,11.8 157.81,37.68 227.06,76.03 61.29,33.83 247.82,136.78 208.21,312.17 l -51.31,-11.58 c 21.1,-93.37 -36.84,-174.25 -182.35,-254.56 -74.85,-41.46 -160.55,-67.27 -247.94,-74.65 -52.94,-4.69 -106.1,-2.47 -157.93,6.55 -8.28,1.45 -16.73,2.99 -25.28,4.57 -84.94,15.57 -190.64,34.97 -254.21,-37.33 -13.66,-15.58 -22.71,-32.92 -31.47,-49.68 -6.7,-12.82 -13.02,-24.93 -20.8,-35.01 -41.36,-53.23 -123.31,-55.93 -205.81,-50.9 -96.75,5.76 -194.18,1.23 -250.56,-70.14 -20.97,-26.49 -31.65,-57.76 -40.01,-84.95 -24.98,-80.77 -41.18,-164.09 -48.15,-247.65 l 52.41,-4.37 c 6.65,79.77 22.12,159.34 46.01,236.53 M 1032.07,2162.71 c 22.73,63.02 46.23,128.19 60.97,195.47 38.5,176.72 13.47,368.88 -68.13,530.79 3.95,3.15 7.91,6.31 12.03,9.9 16.04,14.04 30.42,29.44 44.31,44.33 15,16.06 29.17,31.24 44.93,44.43 58.42,48.91 141,73.34 259.86,76.85 92.58,2.74 185.59,-5.78 276.16,-25.2 l 11.01,51.43 c -94.66,20.3 -191.84,29.15 -288.71,26.34 -131.31,-3.88 -224.12,-32.19 -292.09,-89.09 -18.24,-15.27 -34.18,-32.35 -49.61,-48.88 -13.61,-14.58 -26.46,-28.35 -40.44,-40.58 -1.01,-0.89 -1.95,-1.58 -2.95,-2.43 -1.125,1.9 -2.101,3.64 -3.285,5.61 l -45.059,-27.13 c 1.813,-3.01 3.36,-5.73 5.02,-8.57 -60.816,-34.74 -139.055,-51.35 -223.469,-46.67 -100.027,5.62 -198.195,37.55 -293.137,68.43 l -253.359,82.44 -16.281,-50.01 253.375,-82.44 c 98.133,-31.92 199.598,-64.92 306.48,-70.94 10.293,-0.56 20.512,-0.84 30.649,-0.84 82.398,0 158.972,18.6 220.621,53.45 73.935,-150.23 96.165,-327.17 60.695,-490 -14,-63.89 -36.91,-127.41 -59.062,-188.85 -11.114,-30.81 -22.598,-62.65 -32.961,-94.5 -65.692,-202.37 -90.699,-421.84 -72.324,-634.67 l 52.402,4.52 c -17.777,205.88 6.406,418.17 69.941,613.9 10.094,31.03 21.444,62.49 32.414,92.91" /><path
             id="path112"
             style="fill:#f8b74e;fill-opacity:1;fill-rule:nonzero;stroke:none"
             d="m 3392.93,1846.26 c -38.78,-7 -76.54,-16.51 -112.32,-28.31 -164.08,-54.33 -297.21,-161.76 -425.96,-265.67 -47.06,-37.98 -95.73,-77.24 -144.43,-112.57 -66.09,-47.83 -123.11,-81.98 -179.51,-107.51 -110.38,-50.05 -230.63,-72.3 -357.96,-95.85 -14.85,-2.75 -29.7,-5.5 -44.53,-8.3 -66.61,-12.54 -131.85,-26.34 -194.34,-40.96 -10.88,16.07 -21.12,32.76 -30.54,50.02 -33.1,60.43 -58.91,126.32 -81.89,188.54 -5.04,13.64 -10.02,27.3 -15.02,40.98 -22.51,61.67 -45.77,125.45 -74.51,186.45 -37.99,80.66 -85.39,156.42 -140.98,225.69 2.11,3.36 4.36,6.57 6.41,9.97 56.48,93.65 95.46,206.2 119.06,342.47 55.37,-11.26 110.75,-22.55 166.13,-33.88 107.47,-21.97 213.08,-40.72 313.95,-40.72 91.97,0 180,15.59 261.91,58.53 39.52,20.76 74.92,46.89 109.17,72.16 34.03,25.12 66.19,48.84 101.15,66.91 65.49,33.67 141.41,47.61 214.84,61.1 l 780.64,143.44 47.54,-16.43 c 71.47,-24.69 142.9,-49.37 214.37,-73.96 120.73,-41.63 233.86,-86.57 291.34,-177.9 59.26,-94.24 48.35,-215.05 36.79,-342.95 -4,-44.42 -8.04,-89.73 -8.97,-134.39 -23.77,7.09 -46.92,13.29 -69.69,18.56 -149.37,34.54 -301.51,34.69 -448.63,34.83 -103.67,0.17 -221.36,0.27 -334.02,-20.25 m -1975.3,-828.54 c 18.98,22.07 38.33,43.82 57.57,65.34 83.93,93.66 177.92,198.44 285.66,279.59 20.73,-54.27 44.14,-110.25 73.27,-163.41 5.94,-10.88 12.24,-21.52 18.72,-32.02 -162.99,-41.89 -307.08,-91.35 -435.22,-149.5 m 253.43,2260 c -15.82,81.95 -34.33,168.84 -56.55,265.63 -25.16,109.71 -57.93,253.14 -48.87,383.77 56.01,-24.5 113.7,-44.93 172.2,-60.91 31.96,-8.72 64.44,-16.32 95.85,-23.68 92.44,-21.64 179.75,-42.08 251.79,-88.35 28.71,-18.49 54.79,-40.59 80.26,-68.14 17.22,-18.2 34.13,-39.01 51.7,-63.6 37.05,-51.96 68.9,-109.45 102.62,-170.32 41.01,-74.05 83.41,-150.62 137.22,-218.99 112.69,-143.16 277.47,-244.51 464.01,-285.35 l 0.05,0.02 c 2.55,-0.56 5.11,-1.03 7.66,-1.57 30.61,-45.19 69.29,-86.75 113.89,-122.02 114.39,-90.52 251.36,-137.84 383.85,-183.6 l 85.65,-29.54 -643.08,-118.16 c -75.38,-13.85 -160.81,-29.54 -236.73,-68.58 -40.62,-20.98 -76.84,-47.71 -111.86,-73.56 -33.33,-24.59 -64.81,-47.83 -98.98,-65.78 -148.76,-77.97 -332.48,-49.39 -523.4,-10.36 -56.71,11.6 -113.42,23.16 -170.13,34.7 1.09,8.76 2.16,17.56 3.14,26.71 16.39,148.06 18.19,302.44 5.52,471.99 -10.82,142.49 -32.34,296.12 -65.81,469.69 m 1264.36,-265.75 -0.09,-0.04 0.09,0.04 M 4145.95,1703.58 c 37.93,-8.78 77.18,-20.35 120.17,-35.4 51.66,-17.92 104.2,-39.14 154.99,-59.64 58.06,-23.44 118.08,-47.67 179.34,-68.16 75.6,-25.19 147.55,-41.92 213.89,-49.73 l 15.35,130.59 c -57.43,6.75 -120.57,21.52 -187.59,43.86 -57.4,19.19 -115.54,42.67 -171.77,65.36 -47.62,19.22 -96.75,38.94 -146.36,56.63 -0.56,48.62 4.02,99.87 8.84,153.32 12.24,135.32 24.87,275.25 -48.57,392.05 -71.16,113.06 -197.85,164.08 -332.44,210.5 -71.48,24.58 -142.86,49.25 -214.29,73.93 l -57.31,19.79 -0.15,0.01 -227.58,78.49 c -126.23,43.6 -256.76,88.69 -360.64,170.89 -17.34,13.72 -33.53,28.6 -48.58,44.25 90.58,-6.13 180.73,2.95 265.65,27.13 31.15,8.88 61.31,19.54 90.47,29.84 46.55,16.45 90.51,31.98 134.99,39.43 98.93,16.62 202.06,-6.85 299.19,-32.3 l 6.36,-1.63 c 12.79,-3.38 25.61,-6.83 38.42,-10.28 65.01,-17.48 132.23,-35.56 200.82,-46.03 44.65,-6.75 89.92,-10.09 135.29,-10.09 132.74,0 266.18,28.58 386.18,83.75 93.98,43.28 179.69,102.08 259.41,158.6 l -76.04,107.27 c -77.78,-55.14 -154.55,-107.84 -238.34,-146.42 -137.94,-63.42 -296.67,-85.84 -446.74,-63.11 -61.27,9.35 -122.07,25.69 -186.43,43 -15.16,4.08 -30.3,8.16 -45.44,12.12 l -8.33,2.16 h -0.05 c -108.57,28.21 -224.48,53.03 -346.05,32.63 -55.74,-9.33 -107.24,-27.53 -157.04,-45.12 -28.53,-10.09 -55.48,-19.61 -82.69,-27.36 -102.21,-29.11 -213.98,-31.78 -323.26,-7.71 l -0.21,0.02 c -156.84,34.34 -294.93,118.95 -388.82,238.23 -47.24,60.03 -85.26,128.68 -125.51,201.36 -34.01,61.43 -69.18,124.94 -110.62,183.01 -6.88,9.63 -13.7,18.66 -20.51,27.43 119.44,29.69 238.85,62.06 355.06,93.71 146.31,39.85 297.58,81.04 447.35,116.15 560.16,131.21 1136.94,186.8 1714.68,165.26 l 1.95,52.56 c -582.24,21.78 -1163.88,-34.32 -1728.63,-166.61 -150.69,-35.33 -302.42,-76.65 -449.16,-116.61 -124.14,-33.81 -251.89,-68.39 -379.14,-99.57 -1.43,1.54 -2.85,3.2 -4.29,4.71 -32.12,34.75 -67.5,64.66 -105.18,88.91 -91.12,58.55 -193.71,82.57 -292.93,105.8 -31.66,7.41 -61.57,14.41 -91.2,22.49 -70.29,19.2 -139.33,45.58 -205.33,78.45 -185.91,92.15 -348.67,233.54 -470.67,408.85 -77.77,111.84 -135.671,232.9 -172.093,359.81 L 797.98,4803.88 c 38.336,-133.57 98.254,-261.02 177.743,-379.4 -90.16,-73.54 -150.797,-147.36 -188.516,-229.13 -31.234,-67.6 -46.207,-140.48 -60.684,-210.95 -12.531,-61 -25.488,-124.07 -48.921,-181.3 -15.664,-38.34 -36.391,-75.32 -61.629,-109.95 C 506.23,3541.9 318.605,3446.3 167.406,3379.91 l 21.149,-48.15 c 157.273,69.05 352.824,169.03 469.953,330.46 27.703,38.02 50.508,78.72 67.777,120.97 25.281,61.75 38.738,127.27 51.754,190.63 14.516,70.65 28.223,137.39 56.914,199.48 33.844,73.38 88.86,140.43 170.887,207.89 128.27,-176.39 294.7,-320.05 483.74,-417.61 -16.44,-137.43 13.13,-285.7 48.04,-437.88 22.02,-95.89 40.33,-181.89 55.98,-262.93 32.89,-170.57 54.02,-321.27 64.62,-460.66 12.28,-164.61 10.56,-314.22 -5.28,-457.52 -2.29,-21.25 -4.84,-41.03 -7.8,-60.47 l -0.03,-0.39 c -21.02,-144.57 -58.75,-260.44 -115.29,-354.2 -6.44,-10.63 -13.22,-21.17 -20.17,-31.37 -108.41,-159.37 -288.98,-282.97 -567.966,-388.64 l -6.801,-2.51 c -8.25,-3.1 -16.492,-6.18 -24.918,-9.22 -238.043,-86.96 -486.242,-149.73 -737.707,-186.56 l 11.441,-78.07 c 256.781,37.62 510.242,101.72 753.16,190.48 6.352,2.28 12.688,4.62 19.032,6.99 l 6.855,2.52 c 175.994,66.12 422.084,175.92 580.904,378.03 45.56,-59.44 84.86,-123.68 116.9,-191.72 27.21,-57.78 49.87,-119.85 71.78,-179.89 3.11,-8.55 6.25,-17.07 9.38,-25.6 -117.13,-85.47 -216.93,-196.78 -306.18,-296.38 -44.14,-49.36 -89.18,-99.98 -129.05,-154.598 -20.91,-11.16 -41.43,-22.551 -61.43,-34.281 C 1111.68,850.691 995.895,757.879 900.887,652.809 796.523,537.332 715.172,405.262 636.41,277.379 623.184,255.789 609.824,234.16 596.465,212.57 l 111.824,-69.16 c 13.465,21.77 26.926,43.551 40.164,65.172 75.559,122.68 153.699,249.527 249.969,356.047 85.958,95.062 191.278,179.371 313.098,250.621 171.68,100.73 380.5,179.43 638.44,240.6 64.78,15.41 132.95,29.88 202.61,42.99 14.67,2.77 29.39,5.5 44.1,8.22 129.47,23.95 263.35,48.71 388.29,105.37 56.18,25.41 112.13,57.77 174.07,100.73 58.96,-118.29 89.99,-250.8 87.95,-379.73 -0.61,-36.09 -3.78,-72.801 -9.41,-109.098 C 2807.94,633.77 2708.58,453.051 2564.95,328.539 2516.24,286.27 2459.72,246.82 2381.68,200.609 l 26.78,-45.25 c 80.88,47.871 139.77,89.039 190.95,133.45 152.86,132.531 258.62,324.773 290.14,527.453 5.98,38.679 9.36,77.789 10.03,116.297 2.2,140.101 -32.09,284.071 -97.29,411.771 46.23,34.21 91.28,70.4 134.94,105.63 125.11,100.97 243.29,196.34 384.64,243.14 29.89,9.86 61.67,17.86 94.52,23.8 19.13,3.48 38.51,6.12 57.98,8.4 263.31,-109.15 455.25,-232.57 599.31,-385.05 17.5,-18.51 34.86,-38.11 51.65,-57.06 39.17,-44.22 79.68,-89.96 127.15,-128.24 143.26,-115.6 329.88,-151.19 494.52,-182.598 l 70.08,-13.422 9.86,51.67 -70.08,13.42 c -158.59,30.24 -338.34,64.52 -471.35,171.87 -44.04,35.51 -81.33,77.6 -120.82,122.17 -17.05,19.26 -34.69,39.18 -52.77,58.31 -131.64,139.33 -300.84,254.86 -524.33,357.08 46.57,1.59 93.24,1.63 139.22,1.58 139.8,-0.14 284.34,-0.29 419.14,-31.45" /><path
             id="path114"
             style="fill:#e1ccb7;fill-opacity:1;fill-rule:nonzero;stroke:none"
             d="m 2940.23,3003.21 -9.8,17.43 9.88,-17.39 -0.08,-0.04 M 1739.27,2317.29 c 53.68,-10.93 107.38,-21.88 161.07,-32.87 189.1,-38.64 370.93,-67 516.76,9.43 33.42,17.56 64.54,40.51 97.49,64.82 35.52,26.22 72.04,53.18 113.4,74.55 77.2,39.7 163.38,55.53 239.39,69.5 l 605.77,111.3 -49.67,17.13 c -133.27,46.04 -271.06,93.64 -386.79,185.21 -44.36,35.08 -82.57,75.73 -113.65,120.88 l -0.77,0.16 -0.07,-0.03 -3.05,0.64 c -188.79,41.34 -355.61,143.95 -469.73,288.93 -54.31,69.01 -96.91,145.94 -138.11,220.33 -33.61,60.66 -65.3,117.89 -102.02,169.36 -17.27,24.19 -33.89,44.65 -50.81,62.54 -24.83,26.84 -50.45,48.59 -78.41,66.6 -70.59,45.34 -157.08,65.58 -248.65,87.02 -32.01,7.5 -64.33,15.07 -96.21,23.77 -54.15,14.79 -108.03,33.51 -160.42,55.72 -5.76,-125.92 26.03,-264.51 49.47,-366.7 22.25,-96.9 40.77,-183.89 56.61,-265.97 33.54,-173.89 55.13,-327.9 65.98,-470.82 12.7,-170.23 10.88,-325.22 -5.55,-473.85 -0.65,-6 -1.33,-11.85 -2.03,-17.65 m 456.6,-91.63 c -95.05,-0.01 -196.24,18.06 -299.53,39.17 -56.71,11.61 -113.42,23.17 -170.12,34.7 l -9.08,1.85 1.15,9.19 c 1.08,8.7 2.15,17.46 3.13,26.55 16.3,147.41 18.09,301.2 5.48,470.17 -10.8,142.14 -32.27,295.41 -65.66,468.54 -15.8,81.83 -34.28,168.6 -56.47,265.28 -24.6,107.25 -58.3,254.14 -49.12,386.7 l 0.99,14.16 13,-5.69 c 55.6,-24.32 113.08,-44.65 170.84,-60.43 31.52,-8.59 63.66,-16.13 94.75,-23.41 94.04,-22.02 182.16,-42.65 255.65,-89.85 29.41,-18.93 56.3,-41.75 82.21,-69.76 17.48,-18.48 34.67,-39.64 52.48,-64.58 37.38,-52.4 69.35,-110.11 103.2,-171.22 40.85,-73.77 83.05,-149.97 136.38,-217.71 110.72,-140.68 272.43,-240.46 455.6,-281.18 l 14.27,-2.96 2.27,-3.34 c 30.34,-44.8 67.95,-85.11 111.8,-119.79 113.08,-89.47 249.23,-136.51 380.91,-181.99 l 121.64,-41.96 -680.52,-125.03 c -74.78,-13.74 -159.4,-29.29 -233.97,-67.63 -39.92,-20.63 -75.79,-47.11 -110.49,-72.72 -33.78,-24.92 -65.5,-48.32 -100.27,-66.59 -70.4,-36.9 -148.16,-50.47 -230.52,-50.47 m -592.62,-346.3 c 54.26,-68.51 100.58,-143.17 137.72,-222.03 28.9,-61.35 52.24,-125.31 74.81,-187.15 l 1.13,-3.11 c 4.63,-12.67 9.24,-25.31 13.92,-37.94 22.83,-61.84 48.48,-127.32 81.28,-187.22 8,-14.63 16.81,-29.24 26.24,-43.51 61.43,14.27 124.65,27.55 188.02,39.48 14.85,2.8 29.7,5.56 44.57,8.3 126.66,23.42 246.29,45.55 355.64,95.13 55.74,25.22 112.23,59.07 177.78,106.51 48.76,35.36 97.18,74.46 144.01,112.25 129.43,104.45 263.27,212.47 429.1,267.37 36.23,11.96 74.47,21.59 113.68,28.66 114.04,20.77 231.79,20.62 335.82,20.41 147.67,-0.14 300.36,-0.3 450.87,-35.08 18.71,-4.34 37.73,-9.29 57.79,-15.06 1.4,41.63 5.23,84.13 8.65,122.04 11.4,126.16 22.18,245.33 -35.3,336.73 -55.75,88.58 -167.15,132.74 -286.14,173.77 -64.22,22.1 -128.41,44.27 -192.63,66.45 l -66.79,23.08 -778.05,-142.97 c -72.69,-13.34 -147.86,-27.14 -212.08,-60.16 -34.21,-17.67 -66.02,-41.14 -99.71,-65.99 -34.69,-25.61 -70.38,-51.95 -110.53,-73.04 -76.61,-40.15 -163.79,-59.67 -266.56,-59.67 -106.8,0 -219.09,21.12 -315.95,40.92 -52.03,10.64 -104.05,21.26 -156.07,31.83 -24.08,-133.59 -62.9,-243.51 -118.55,-335.79 -0.87,-1.43 -1.77,-2.83 -2.67,-4.21 m 326.21,-703.58 -3.86,5.7 c -11.23,16.59 -21.67,33.7 -31.04,50.83 -33.43,61.03 -59.39,127.33 -82.49,189.88 -4.68,12.64 -9.31,25.33 -13.93,38.02 l -1.1,2.98 c -22.46,61.56 -45.64,125.08 -74.16,185.63 -37.5,79.61 -84.52,154.86 -139.75,223.69 l -4.45,5.55 3.79,6.03 c 0.95,1.51 1.92,2.99 2.89,4.46 1.16,1.77 2.33,3.55 3.44,5.38 55.74,92.41 94.26,203.3 117.75,338.99 l 1.76,10.15 10.09,-2.06 c 55.38,-11.26 110.76,-22.55 166.14,-33.89 118.98,-24.32 217.57,-40.51 311.95,-40.51 99.46,0 183.61,18.77 257.27,57.38 38.79,20.38 73.86,46.25 107.76,71.28 34.53,25.48 66.98,49.41 102.61,67.83 66.87,34.37 143.51,48.43 217.63,62.04 l 783.22,143.92 71.75,-24.79 c 64.22,-22.18 128.41,-44.36 192.62,-66.46 122.5,-42.23 237.35,-87.93 296.57,-182.03 61.06,-97.12 50,-219.55 38.28,-349.17 -3.75,-41.55 -7.99,-88.66 -8.93,-133.69 l -0.27,-13.13 -12.58,3.75 c -24.35,7.25 -46.95,13.27 -69.09,18.39 -148.28,34.29 -299.83,34.44 -446.39,34.58 -103.03,0.19 -219.96,0.35 -332.22,-20.08 l -0.01,-0.01 c -38.29,-6.91 -75.63,-16.31 -110.96,-27.96 -162.37,-53.76 -294.78,-160.62 -422.82,-263.96 -47.02,-37.95 -95.64,-77.2 -144.84,-112.88 -66.67,-48.25 -124.26,-82.73 -181.26,-108.53 -111.57,-50.59 -232.37,-72.92 -360.26,-96.58 -14.84,-2.74 -29.68,-5.49 -44.5,-8.28 -65.4,-12.32 -130.65,-26.07 -193.91,-40.88 l -6.7,-1.57 m -173.14,170.82 c -102.97,-79.7 -193.49,-180.73 -273.66,-270.21 -8.75,-9.79 -18.21,-20.37 -27.92,-31.37 114.81,49.22 240.56,91.44 382.58,128.52 -4.39,7.36 -8.35,14.26 -11.97,20.9 -29.21,53.31 -51.94,108.09 -69.03,152.16 m -375.82,-356.709 29.55,34.359 c 19.77,22.99 40.14,45.85 57.7,65.48 83.52,93.21 178.18,198.86 287.09,280.92 l 10.62,7.99 4.74,-12.42 c 17.32,-45.34 41.24,-104.76 72.7,-162.18 5.29,-9.7 11.33,-20.02 18.46,-31.56 l 7.14,-11.55 -13.16,-3.39 c -163.55,-42.04 -305.38,-90.75 -433.58,-148.92 L 1380.5,989.891 M 610.23,215.809 705.043,157.18 c 11.699,18.929 23.375,37.832 34.891,56.629 75.785,123.05 154.136,250.273 251.07,357.531 86.666,95.84 192.806,180.808 315.456,252.551 172.54,101.23 382.28,180.289 641.2,241.689 65.07,15.48 133.4,29.98 203.06,43.08 14.22,2.7 28.49,5.33 42.75,7.98 l 1.37,0.26 c 128.88,23.83 262.14,48.47 385.99,104.63 56.03,25.35 110.85,57.08 172.5,99.84 l 9.5,6.59 5.15,-10.34 c 60.29,-120.94 91.06,-253.85 89,-384.35 -0.62,-36.508 -3.83,-73.68 -9.53,-110.481 C 2817.46,629.91 2716.87,447.012 2571.49,320.98 2524.17,279.91 2469.57,241.488 2395.36,197.121 l 16.6,-28.039 c 75.92,45.359 131.98,84.84 180.9,127.277 151.11,131.012 255.65,321.063 286.81,521.43 5.91,38.203 9.25,76.871 9.91,114.941 2.18,138.76 -31.08,279.53 -96.19,407.05 l -3.85,7.54 6.81,5.04 c 44.91,33.26 87.53,67.41 134.6,105.38 125.82,101.55 244.66,197.46 387.77,244.86 30.32,10.01 62.59,18.12 95.89,24.14 17.25,3.14 35.88,5.84 58.6,8.49 l 2.59,0.31 2.4,-1 c 265.49,-110.07 457.01,-233.17 602.75,-387.42 17.71,-18.74 35.08,-38.34 51.86,-57.3 38.93,-43.94 79.14,-89.34 125.95,-127.09 141.31,-114.02 326.61,-149.36 490.1,-180.55 l 60.27,-11.539 6.11,32.029 -60.26,11.53 c -159.72,30.45 -340.75,64.96 -475.75,173.9 -44.7,36.05 -82.26,78.44 -122.01,123.34 -17.12,19.31 -34.65,39.11 -52.56,58.06 -130.39,138 -300.89,254.07 -521.23,354.85 l -38.57,17.64 42.39,1.45 c 45.55,1.56 90.12,1.67 139.58,1.59 140.48,-0.15 285.53,-0.3 421.37,-31.7 38.26,-8.87 77.9,-20.55 121.22,-35.7 51.99,-18.05 104.57,-39.29 155.43,-59.82 58.43,-23.58 118.06,-47.64 178.78,-67.95 71.17,-23.72 139.06,-39.87 201.95,-48.04 l 13.02,110.73 c -55.41,7.29 -115.8,21.77 -179.66,43.07 -57.66,19.27 -115.9,42.78 -172.23,65.51 -51.73,20.88 -98.33,39.51 -146.11,56.55 l -6.56,2.33 -0.08,6.96 c -0.56,49.58 4.24,102.84 8.89,154.34 12.09,133.66 24.58,271.86 -47.08,385.83 -69.42,110.3 -194.4,160.56 -327.24,206.37 -71.46,24.58 -142.86,49.24 -214.28,73.93 l -285.04,98.28 c -127.02,43.88 -258.36,89.25 -363.57,172.51 -17.12,13.53 -33.79,28.72 -49.6,45.16 l -17.93,18.66 25.82,-1.75 c 90.22,-6.09 178.42,2.9 262.23,26.78 30.91,8.8 60.89,19.4 89.88,29.64 46.94,16.59 91.26,32.26 136.68,39.86 100.86,16.96 205.16,-6.75 303.36,-32.48 l 6.33,-1.63 c 12.85,-3.4 25.69,-6.84 38.52,-10.3 64.72,-17.41 131.66,-35.41 199.73,-45.81 43.73,-6.61 88.74,-9.96 133.77,-9.96 132.05,0 264.14,28.64 382.02,82.82 90.01,41.46 172.61,97.45 249.64,151.9 l -64.48,90.96 c -75.4,-53.32 -150.13,-103.98 -231.78,-141.58 -139.72,-64.24 -300.44,-86.93 -452.41,-63.91 -61.85,9.44 -122.9,25.86 -187.54,43.23 l -1.11,0.31 c -14.77,3.97 -29.52,7.94 -44.27,11.8 l -8.35,2.16 c -101.62,26.4 -220.2,52.87 -341.89,32.44 -54.9,-9.2 -105.96,-27.24 -155.35,-44.69 -28.64,-10.12 -55.68,-19.68 -83.3,-27.55 -103.59,-29.52 -216.88,-32.27 -327.55,-7.98 l -0.79,0.14 c -159.1,34.84 -299.21,120.71 -394.54,241.81 -47.72,60.65 -85.91,129.62 -126.35,202.63 -33.97,61.32 -68.98,124.55 -110.06,182.11 -6.13,8.6 -12.58,17.21 -20.26,27.13 l -9.42,12.13 14.9,3.7 c 116.56,28.97 234.36,60.83 354.85,93.65 146.7,39.95 297.91,81.13 447.68,116.24 557.73,130.64 1132.04,186.45 1707.35,165.88 l 1.21,32.57 c -577.83,20.72 -1155.14,-35.34 -1715.98,-166.72 -150.51,-35.28 -302.14,-76.57 -448.78,-116.51 -128.7,-35.05 -254.52,-69.03 -379.42,-99.64 l -5.72,-1.41 -8.23,8.97 c -31.64,34.22 -66.37,63.59 -103.33,87.37 -89.64,57.59 -191.36,81.41 -289.73,104.45 -31.88,7.46 -61.84,14.47 -91.62,22.59 -70.93,19.39 -140.63,46.01 -207.15,79.15 -187.4,92.89 -351.45,235.4 -474.41,412.09 -76.45,109.93 -133.854,228.69 -170.705,353.16 l -107.168,-30.76 c 37.968,-128.48 96.355,-251.9 173.636,-366.98 l 5.079,-7.56 -7.055,-5.76 C 892.672,4343.83 833.648,4272.16 796.289,4191.16 765.535,4124.62 750.688,4052.32 736.32,3982.41 723.676,3920.87 710.629,3857.37 686.855,3799.32 670.898,3760.25 649.77,3722.55 624.059,3687.26 515.121,3537.13 331.289,3441.51 180.582,3374.78 l 13.098,-29.83 c 154.476,68.39 343.254,166.74 456.734,323.15 27.234,37.37 49.645,77.36 66.613,118.87 24.942,60.92 38.293,125.96 51.215,188.86 14.653,71.32 28.473,138.56 57.633,201.67 34.324,74.41 91.109,143.56 173.613,211.41 l 8.202,6.74 6.24,-8.58 c 127,-174.64 293.06,-318.01 480.24,-414.61 l 6.16,-3.18 -0.82,-6.89 c -16.4,-137.08 13.27,-283.73 47.85,-434.46 22.03,-95.93 40.37,-182.05 56.06,-263.26 32.97,-171.02 54.15,-322.07 64.76,-461.81 12.35,-165.19 10.61,-315.45 -5.3,-459.37 -2.28,-21.16 -4.84,-41.08 -7.85,-60.88 -21.24,-146.21 -59.38,-263.29 -116.64,-358.25 -6.52,-10.75 -13.4,-21.45 -20.47,-31.82 -109.68,-161.25 -291.67,-285.93 -572.701,-392.37 l -6.875,-2.54 c -8.242,-3.09 -16.524,-6.19 -24.985,-9.24 C 677.805,1402.33 432.336,1339.9 183.605,1302.8 l 8.54,-58.28 c 252.734,37.71 502.085,101.11 741.281,188.51 6.355,2.28 12.652,4.62 18.957,6.97 l 6.914,2.54 c 171.693,64.5 418.333,173.55 576.493,374.82 l 7.96,10.13 7.84,-10.22 c 46.23,-60.33 85.94,-125.44 118.01,-193.55 27.4,-58.19 50.15,-120.49 72.13,-180.72 l 11.96,-32.66 -6.08,-4.44 c -116.47,-85 -216.44,-196.55 -304.63,-294.98 -41.15,-46.02 -87.79,-98.17 -128.42,-153.818 l -1.35,-1.852 -2.02,-1.07 C 1288.8,942.211 1268.82,931.051 1250.11,920.09 1117.6,842.57 1002.6,750.391 908.305,646.09 804.516,531.27 723.391,399.531 644.926,272.141 633.438,253.379 621.84,234.59 610.23,215.809 m 101.309,-86.168 -128.84,79.691 5.262,8.5 c 13.352,21.566 26.699,43.188 39.918,64.777 78.953,128.18 160.574,260.7 265.594,376.903 95.668,105.808 212.257,199.289 346.527,277.828 18.37,10.769 37.93,21.711 59.75,33.398 40.89,55.752 87.31,107.662 128.33,153.522 87.33,97.46 186.11,207.69 301.66,293.32 l -6.8,18.56 c -21.84,59.83 -44.41,121.68 -71.43,179.07 -29.66,62.98 -65.99,123.38 -108.07,179.68 -161.43,-198.75 -406.05,-306.81 -577.178,-371.1 l -6.926,-2.54 c -6.324,-2.37 -12.699,-4.73 -19.086,-7.02 -243.562,-88.99 -497.629,-153.24 -755.098,-190.96 l -9.894,-1.45 -14.34,97.86 9.891,1.44 c 250.757,36.73 498.293,99.33 735.722,186.07 8.426,3.04 16.625,6.1 24.84,9.19 l 6.848,2.53 c 276.921,104.88 455.901,227.18 563.171,384.88 6.87,10.09 13.56,20.49 19.88,30.93 55.84,92.6 93.11,207.24 113.95,350.45 3,19.95 5.53,39.6 7.78,60.48 15.77,142.72 17.49,291.77 5.24,455.71 -10.55,138.95 -31.64,289.27 -64.45,459.52 -15.65,80.97 -33.94,166.87 -55.92,262.58 -34.41,150.02 -64.02,296.17 -49,434.41 -184.36,96.38 -348.22,237.47 -474.81,408.83 -76.689,-64.43 -127.665,-127.42 -160.029,-197.59 -28.191,-61 -41.785,-127.15 -56.176,-197.19 -13.125,-63.91 -26.671,-129.88 -52.32,-192.52 -17.57,-42.99 -40.769,-84.4 -68.941,-123.07 C 548.047,3492.95 351,3392.16 192.57,3322.6 l -9.152,-4.02 -29.188,66.46 9.161,4.02 c 150.039,65.89 336.156,160.66 444.492,309.96 24.773,34 45.109,70.29 60.461,107.87 23.07,56.33 35.926,118.91 48.363,179.41 14.617,71.16 29.703,144.61 61.422,213.25 37.687,81.69 96.348,153.98 184.254,226.91 C 884.531,4544 826,4670 788.363,4801.13 l -2.758,9.6 145.614,41.8 2.761,-9.62 c 36.114,-125.84 93.54,-245.91 170.69,-356.85 121.04,-173.93 282.5,-314.19 466.9,-405.6 65.37,-32.57 133.84,-58.72 203.52,-77.76 29.42,-8.03 59.21,-15 90.74,-22.38 100.2,-23.46 203.61,-47.68 296.16,-107.14 38.37,-24.7 74.42,-55.16 107.13,-90.54 l 0.34,-0.37 c 122.79,30.18 246.58,63.62 373.11,98.09 146.85,39.99 298.66,81.33 449.51,116.7 565.82,132.54 1148.34,188.7 1731.28,166.86 l 9.99,-0.37 -2.7,-72.54 -9.99,0.37 c -576.84,21.53 -1152.82,-34 -1712.02,-165.01 -149.43,-35.02 -300.47,-76.15 -446.53,-115.93 -115.96,-31.59 -229.03,-62.18 -340.97,-90.21 4.05,-5.37 7.81,-10.48 11.46,-15.6 41.75,-58.51 77.04,-122.24 111.17,-183.87 40.14,-72.47 77.96,-140.75 124.69,-200.13 92.33,-117.32 228.16,-200.58 382.51,-234.51 l 0.8,-0.15 c 107.67,-23.72 217.76,-21.11 318.37,7.56 27.01,7.69 53.78,17.15 82.11,27.17 50.19,17.73 102.1,36.07 158.71,45.56 125.1,20.98 245.72,-5.7 349.06,-32.51 l 9.53,-2.47 c 14.81,-3.88 29.61,-7.86 44.41,-11.84 l 1.12,-0.3 c 64.08,-17.23 124.61,-33.51 185.35,-42.78 148.19,-22.45 304.82,-0.31 441.04,62.31 83.02,38.23 159.36,90.64 236.74,145.5 l 8.16,5.78 87.61,-123.58 -8.16,-5.79 c -80.11,-56.79 -166.25,-115.88 -261.01,-159.52 -120.48,-55.39 -255.47,-84.66 -390.38,-84.66 -46.02,0 -92.05,3.42 -136.77,10.19 -69.18,10.56 -136.66,28.72 -201.93,46.27 -12.79,3.44 -25.6,6.89 -38.37,10.25 l -6.31,1.63 c -96.15,25.19 -198.12,48.4 -295.03,32.11 -43.69,-7.31 -87.22,-22.7 -133.31,-38.99 -29.28,-10.35 -59.56,-21.04 -91.07,-30.02 -77.83,-22.16 -159.33,-31.86 -242.68,-28.86 9.5,-8.88 19.21,-17.27 29.08,-25.07 102.55,-81.15 232.25,-125.95 357.69,-169.28 l 285.04,-98.29 c 71.43,-24.68 142.8,-49.35 214.28,-73.92 136.35,-47.03 264.75,-98.83 337.65,-214.64 75.26,-119.68 62.46,-261.31 50.07,-398.27 -4.38,-48.58 -8.91,-98.74 -8.85,-145.37 45.83,-16.51 90.71,-34.45 140.15,-54.4 56.17,-22.68 114.13,-46.07 171.2,-65.16 66.4,-22.14 128.85,-36.74 185.59,-43.41 l 9.94,-1.17 -17.7,-150.45 -9.94,1.17 c -67.01,7.88 -139.64,24.77 -215.86,50.18 -61.3,20.5 -121.23,44.68 -179.18,68.05 -51.38,20.76 -103.74,41.9 -155.28,59.79 -42.64,14.92 -81.61,26.41 -119.15,35.1 -133.62,30.9 -277.52,31.04 -416.69,31.19 -33.91,0.07 -65.57,0 -96.71,-0.52 204.21,-97.65 364.45,-209.55 488.9,-341.28 18.13,-19.19 35.77,-39.1 52.83,-58.36 39.36,-44.42 76.38,-86.21 119.77,-121.2 131.1,-105.8 309.53,-139.81 466.95,-169.82 l 79.9,-15.31 -13.61,-71.302 -79.91,15.293 c -165.8,31.629 -353.71,67.479 -498.92,184.639 -48.1,38.8 -88.89,84.83 -128.33,129.35 -16.72,18.88 -33.96,38.35 -51.45,56.87 -143.3,151.66 -331.92,272.98 -593.47,381.68 -21.12,-2.51 -38.59,-5.07 -54.77,-8.01 -32.41,-5.85 -63.76,-13.74 -93.18,-23.45 -139.65,-46.25 -257.12,-141.05 -381.49,-241.43 -44.89,-36.22 -85.75,-68.97 -128.5,-100.86 64.07,-128.41 96.76,-269.62 94.57,-408.922 -0.68,-38.988 -4.1,-78.578 -10.15,-117.668 -31.88,-204.98 -138.84,-399.421 -293.46,-533.48 -51.69,-44.84 -111.04,-86.328 -192.42,-134.488 l -8.61,-5.102 -36.96,62.461 8.6,5.098 c 77.55,45.922 133.61,85.051 181.81,126.863 141.86,122.988 240.02,301.508 269.3,489.777 5.56,35.903 8.69,72.153 9.29,107.731 1.96,123.61 -26.31,249.47 -81.82,364.76 -58.82,-40.18 -111.84,-70.5 -166.08,-95.04 -126.06,-57.16 -260.55,-82.03 -390.59,-106.08 l -1.38,-0.26 c -14.23,-2.63 -28.48,-5.27 -42.69,-7.96 -69.35,-13.04 -137.36,-27.48 -202.15,-42.89 C 1695.32,985.191 1487.38,906.852 1316.57,806.629 1195.67,735.922 1091.13,652.242 1005.84,557.922 910.141,452.031 832.273,325.609 756.973,203.34 743.734,181.73 730.27,159.941 716.797,138.148 l -5.258,-8.507" /><path
             id="path116"
             style="fill:#f1485c;fill-opacity:1;fill-rule:nonzero;stroke:none"
             d="m 1799.41,4682.39 c -57.4,57.4 -150.46,57.4 -207.86,0 -45.51,-45.51 -56.12,-115.33 -26.17,-172.3 l 130.1,-247.52 130.1,247.52 c 29.94,56.97 19.34,126.79 -26.17,172.3" /><path
             id="path118"
             style="fill:#ffffff;fill-opacity:1;fill-rule:nonzero;stroke:none"
             d="m 1771.08,4505.16 c -41.75,-41.76 -109.45,-41.76 -151.2,0 -41.76,41.75 -41.76,109.45 0,151.2 41.75,41.75 109.45,41.75 151.2,0 41.75,-41.75 41.75,-109.45 0,-151.2" /><path
             id="path120"
             style="fill:#eadcc7;fill-opacity:1;fill-rule:nonzero;stroke:none"
             d="m 1796.52,4685.21 c -28.31,26.82 -64.68,40.24 -101.04,40.24 v 0 c 36.36,0 72.73,-13.42 101.04,-40.24" /><path
             id="path122"
             style="fill:#ed4556;fill-opacity:1;fill-rule:nonzero;stroke:none"
             d="m 1695.48,4262.57 v 211.27 c 27.36,0 54.72,10.44 75.6,31.32 41.75,41.75 41.75,109.45 0,151.2 -20.88,20.87 -48.24,31.32 -75.6,31.32 v 37.77 c 36.36,0 72.73,-13.42 101.04,-40.24 0.97,-0.92 1.93,-1.86 2.89,-2.82 28.26,-28.26 43.06,-65.91 43.05,-104.03 -0.01,-23.25 -5.54,-46.69 -16.88,-68.27 l -22.55,-42.9 -107.55,-204.62" /><path
             id="path124"
             style="fill:#f4f6f5;fill-opacity:1;fill-rule:nonzero;stroke:none"
             d="m 1695.48,4473.84 v 213.84 c 27.36,0 54.72,-10.45 75.6,-31.32 41.75,-41.75 41.75,-109.45 0,-151.2 -20.88,-20.88 -48.24,-31.32 -75.6,-31.32" /><path
             id="path126"
             style="fill:#f1485c;fill-opacity:1;fill-rule:nonzero;stroke:none"
             d="m 2164.4,4450.96 v 0 c -57.39,57.4 -150.45,57.4 -207.85,0 -45.51,-45.51 -56.12,-115.34 -26.17,-172.31 l 130.1,-247.51 130.09,247.51 c 29.95,56.97 19.34,126.8 -26.17,172.31" /><path
             id="path128"
             style="fill:#ffffff;fill-opacity:1;fill-rule:nonzero;stroke:none"
             d="m 2136.08,4273.72 c -41.76,-41.75 -109.45,-41.75 -151.21,0 -41.75,41.76 -41.75,109.45 0,151.21 41.76,41.75 109.45,41.75 151.21,0 41.75,-41.76 41.75,-109.45 0,-151.21" /><path
             id="path130"
             style="fill:#eadcc7;fill-opacity:1;fill-rule:nonzero;stroke:none"
             d="m 2105.72,4486.91 c -14.68,4.73 -29.96,7.1 -45.24,7.1 v 0 c 15.28,0 30.56,-2.37 45.24,-7.1" /><path
             id="path132"
             style="fill:#ed4556;fill-opacity:1;fill-rule:nonzero;stroke:none"
             d="m 2060.48,4031.14 v 211.27 c 27.36,0 54.72,10.43 75.6,31.31 41.75,41.76 41.75,109.45 0,151.21 -20.88,20.87 -48.24,31.31 -75.6,31.31 v 37.77 c 15.28,0 30.56,-2.37 45.24,-7.1 21.46,-6.93 41.64,-18.91 58.68,-35.95 v 0 c 28.27,-28.26 43.07,-65.91 43.06,-104.03 -0.01,-23.26 -5.54,-46.69 -16.89,-68.28 l -130.09,-247.51" /><path
             id="path134"
             style="fill:#f4f6f5;fill-opacity:1;fill-rule:nonzero;stroke:none"
             d="m 2060.48,4242.41 v 213.83 c 27.36,0 54.72,-10.44 75.6,-31.31 41.75,-41.76 41.75,-109.45 0,-151.21 -20.88,-20.88 -48.24,-31.31 -75.6,-31.31" /><path
             id="path136"
             style="fill:#f1485c;fill-opacity:1;fill-rule:nonzero;stroke:none"
             d="m 2945.52,4477.98 c -57.39,57.4 -150.45,57.4 -207.85,0 -45.51,-45.51 -56.12,-115.34 -26.17,-172.31 l 130.1,-247.51 130.09,247.51 c 29.95,56.97 19.35,126.8 -26.17,172.31" /><path
             id="path138"
             style="fill:#ffffff;fill-opacity:1;fill-rule:nonzero;stroke:none"
             d="m 2917.2,4300.74 c -41.76,-41.75 -109.45,-41.75 -151.2,0 -41.76,41.76 -41.76,109.45 0,151.21 41.75,41.75 109.44,41.75 151.2,0 41.75,-41.76 41.75,-109.45 0,-151.21" /><path
             id="path140"
             style="fill:#eadcc7;fill-opacity:1;fill-rule:nonzero;stroke:none"
             d="m 2841.6,4521.03 v 0 0 0" /><path
             id="path142"
             style="fill:#ed4556;fill-opacity:1;fill-rule:nonzero;stroke:none"
             d="m 2841.6,4058.16 v 211.27 c 27.36,0 54.72,10.44 75.6,31.31 41.75,41.76 41.75,109.45 0,151.21 -20.88,20.87 -48.24,31.31 -75.6,31.31 v 37.77 0 c 37.61,0 75.23,-14.35 103.92,-43.05 28.27,-28.27 43.07,-65.91 43.06,-104.03 -0.01,-12.96 -1.73,-25.97 -5.21,-38.68 -2.76,-10.11 -6.65,-20.04 -11.68,-29.6 l -10.17,-19.35 -119.92,-228.16" /><path
             id="path144"
             style="fill:#f4f6f5;fill-opacity:1;fill-rule:nonzero;stroke:none"
             d="m 2841.6,4269.43 v 213.83 c 27.36,0 54.72,-10.44 75.6,-31.31 41.75,-41.76 41.75,-109.45 0,-151.21 -20.88,-20.87 -48.24,-31.31 -75.6,-31.31" /><path
             id="path146"
             style="fill:#f1485c;fill-opacity:1;fill-rule:nonzero;stroke:none"
             d="m 4470.2,3729.13 v 0 c -57.4,57.4 -150.46,57.4 -207.86,0 -45.51,-45.51 -56.12,-115.34 -26.17,-172.31 l 130.1,-247.51 130.1,247.51 c 29.94,56.97 19.34,126.8 -26.17,172.31" /><path
             id="path148"
             style="fill:#ffffff;fill-opacity:1;fill-rule:nonzero;stroke:none"
             d="m 4441.87,3551.89 c -41.75,-41.75 -109.45,-41.75 -151.2,0 -41.76,41.76 -41.76,109.45 0,151.21 41.75,41.75 109.45,41.75 151.2,0 41.75,-41.76 41.75,-109.45 0,-151.21" /><path
             id="path150"
             style="fill:#eadcc7;fill-opacity:1;fill-rule:nonzero;stroke:none"
             d="m 4470.03,3729.3 c -19.25,19.19 -42.49,31.94 -67.05,38.25 24.56,-6.31 47.8,-19.06 67.05,-38.25 m -103.76,42.88 v 0 0 0" /><path
             id="path152"
             style="fill:#ed4556;fill-opacity:1;fill-rule:nonzero;stroke:none"
             d="m 4366.27,3309.31 v 211.27 c 27.36,0 54.72,10.44 75.6,31.31 41.75,41.76 41.75,109.45 0,151.21 -20.88,20.87 -48.24,31.31 -75.6,31.31 v 0 37.77 0 c 12.34,0 24.68,-1.54 36.71,-4.63 24.56,-6.31 47.8,-19.06 67.05,-38.25 0.05,-0.06 0.11,-0.11 0.17,-0.17 v 0 c 28.26,-28.26 43.07,-65.91 43.05,-104.03 -0.01,-23.26 -5.54,-46.69 -16.88,-68.28 l -130.1,-247.51" /><path
             id="path154"
             style="fill:#f4f6f5;fill-opacity:1;fill-rule:nonzero;stroke:none"
             d="m 4366.27,3520.58 v 0 213.83 c 27.36,0 54.72,-10.44 75.6,-31.31 41.75,-41.76 41.75,-109.45 0,-151.21 -20.88,-20.87 -48.24,-31.31 -75.6,-31.31" /><path
             id="path156"
             style="fill:#f1485c;fill-opacity:1;fill-rule:nonzero;stroke:none"
             d="m 3693.98,905.129 v 0 c -57.4,57.402 -150.46,57.402 -207.86,0 -45.51,-45.508 -56.12,-115.34 -26.17,-172.309 l 130.1,-247.511 130.1,247.511 c 29.94,56.969 19.34,126.801 -26.17,172.309" /><path
             id="path158"
             style="fill:#ffffff;fill-opacity:1;fill-rule:nonzero;stroke:none"
             d="m 3665.65,727.891 c -41.75,-41.75 -109.45,-41.75 -151.2,0 -41.76,41.75 -41.76,109.449 0,151.199 41.75,41.762 109.45,41.762 151.2,0 41.75,-41.75 41.75,-109.449 0,-151.199" /><path
             id="path160"
             style="fill:#9abb5f;fill-opacity:1;fill-rule:nonzero;stroke:none"
             d="m 3693.98,905.129 c -28.7,28.703 -66.32,43.051 -103.93,43.051 v 0 0 c 37.61,0 75.23,-14.348 103.93,-43.051" /><path
             id="path162"
             style="fill:#ed4556;fill-opacity:1;fill-rule:nonzero;stroke:none"
             d="M 3590.05,485.309 V 696.57 c 27.36,0 54.72,10.442 75.6,31.321 41.75,41.75 41.75,109.449 0,151.199 -20.88,20.879 -48.24,31.32 -75.6,31.32 v 37.77 0 c 37.61,0 75.23,-14.348 103.93,-43.051 v 0 0 c 28.26,-28.27 43.06,-65.91 43.05,-104.039 -0.01,-23.149 -5.49,-46.481 -16.73,-67.981 -0.05,-0.097 -0.1,-0.199 -0.15,-0.289 l -130.1,-247.511" /><path
             id="path164"
             style="fill:#f4f6f5;fill-opacity:1;fill-rule:nonzero;stroke:none"
             d="m 3590.05,696.57 v 213.84 c 27.36,0 54.72,-10.441 75.6,-31.32 41.75,-41.75 41.75,-109.449 0,-151.199 -20.88,-20.879 -48.24,-31.321 -75.6,-31.321" /><path
             id="path166"
             style="fill:#f1485c;fill-opacity:1;fill-rule:nonzero;stroke:none"
             d="m 756.305,2460.14 c -57.399,57.4 -150.457,57.4 -207.856,0 -45.511,-45.51 -56.117,-115.34 -26.172,-172.31 l 130.102,-247.51 130.098,247.51 c 29.945,56.97 19.339,126.8 -26.172,172.31" /><path
             id="path168"
             style="fill:#ffffff;fill-opacity:1;fill-rule:nonzero;stroke:none"
             d="m 727.98,2282.9 c -41.757,-41.75 -109.449,-41.75 -151.203,0 -41.754,41.75 -41.754,109.45 0,151.2 41.754,41.76 109.446,41.76 151.203,0 41.75,-41.75 41.75,-109.45 0,-151.2" /><path
             id="path170"
             style="fill:#d4c2ae;fill-opacity:1;fill-rule:nonzero;stroke:none"
             d="m 756.137,2460.31 c -28.676,28.58 -66.219,42.88 -103.758,42.88 v 0 c 37.539,0 75.082,-14.3 103.758,-42.88" /><path
             id="path172"
             style="fill:#ed4556;fill-opacity:1;fill-rule:nonzero;stroke:none"
             d="m 652.379,2040.32 v 211.26 c 27.359,0 54.723,10.44 75.601,31.32 41.75,41.75 41.75,109.45 0,151.2 -20.878,20.88 -48.242,31.32 -75.601,31.32 v 37.77 c 37.539,0 75.082,-14.3 103.758,-42.88 0.054,-0.06 0.113,-0.11 0.168,-0.17 28.265,-28.27 43.07,-65.92 43.05,-104.04 -0.007,-23.25 -5.531,-46.69 -16.878,-68.27 l -6.969,-13.26 -123.129,-234.25" /><path
             id="path174"
             style="fill:#f4f6f5;fill-opacity:1;fill-rule:nonzero;stroke:none"
             d="m 652.379,2251.58 v 213.84 c 27.359,0 54.723,-10.44 75.601,-31.32 41.75,-41.75 41.75,-109.45 0,-151.2 -20.878,-20.88 -48.242,-31.32 -75.601,-31.32" /><path
             id="path176"
             style="fill:#f1485c;fill-opacity:1;fill-rule:nonzero;stroke:none"
             d="m 1388.78,1692.26 h -0.01 c -57.39,57.4 -150.45,57.4 -207.85,0 -45.51,-45.51 -56.12,-115.34 -26.17,-172.31 l 130.1,-247.51 130.1,247.51 c 29.94,56.97 19.34,126.8 -26.17,172.31" /><path
             id="path178"
             style="fill:#ffffff;fill-opacity:1;fill-rule:nonzero;stroke:none"
             d="m 1360.45,1515.02 c -41.75,-41.75 -109.45,-41.75 -151.2,0 -41.76,41.75 -41.76,109.45 0,151.2 41.75,41.75 109.45,41.75 151.2,0 41.75,-41.75 41.75,-109.45 0,-151.2" /><path
             id="path180"
             style="fill:#ebad4a;fill-opacity:1;fill-rule:nonzero;stroke:none"
             d="m 1388.77,1692.26 c -10.66,10.66 -22.56,19.35 -35.23,26.05 v 0 c 12.67,-6.7 24.57,-15.39 35.23,-26.05" /><path
             id="path182"
             style="fill:#d3bfab;fill-opacity:1;fill-rule:nonzero;stroke:none"
             d="m 1353.54,1718.31 c -1.91,1.01 -3.82,1.97 -5.77,2.89 1.94,-0.92 3.87,-1.88 5.77,-2.89 v 0" /><path
             id="path184"
             style="fill:#ed4556;fill-opacity:1;fill-rule:nonzero;stroke:none"
             d="m 1284.85,1272.44 v 211.26 c 27.36,0 54.72,10.44 75.6,31.32 41.75,41.75 41.75,109.45 0,151.2 -20.88,20.88 -48.24,31.32 -75.6,31.32 v 0 37.77 c 21.53,0 43.06,-4.71 62.92,-14.11 1.95,-0.92 3.86,-1.88 5.77,-2.89 12.67,-6.7 24.57,-15.39 35.23,-26.05 v 0 h 0.01 c 28.26,-28.27 43.06,-65.92 43.05,-104.04 -0.01,-23.25 -5.54,-46.69 -16.88,-68.27 l -130.1,-247.51" /><path
             id="path186"
             style="fill:#f4f6f5;fill-opacity:1;fill-rule:nonzero;stroke:none"
             d="m 1284.85,1483.7 v 0 213.84 c 27.36,0 54.72,-10.44 75.6,-31.32 41.75,-41.75 41.75,-109.45 0,-151.2 -20.88,-20.88 -48.24,-31.32 -75.6,-31.32" /><path
             id="path188"
             style="fill:#f1485c;fill-opacity:1;fill-rule:nonzero;stroke:none"
             d="m 2188.18,3073.44 v 0 c -57.4,57.4 -150.46,57.4 -207.86,0 -45.51,-45.51 -56.12,-115.33 -26.17,-172.31 l 130.1,-247.51 130.1,247.51 c 29.94,56.98 19.34,126.8 -26.17,172.31" /><path
             id="path190"
             style="fill:#ffffff;fill-opacity:1;fill-rule:nonzero;stroke:none"
             d="m 2159.85,2896.21 c -41.75,-41.76 -109.45,-41.76 -151.2,0 -41.75,41.75 -41.75,109.44 0,151.2 41.75,41.75 109.45,41.75 151.2,0 41.75,-41.76 41.75,-109.45 0,-151.2" /><path
             id="path192"
             style="fill:#eadcc7;fill-opacity:1;fill-rule:nonzero;stroke:none"
             d="m 2188.01,3073.61 c -19.25,19.19 -42.49,31.94 -67.05,38.25 24.56,-6.31 47.8,-19.06 67.05,-38.25 m -103.76,42.88 v 0 0 0" /><path
             id="path194"
             style="fill:#ed4556;fill-opacity:1;fill-rule:nonzero;stroke:none"
             d="m 2084.25,2653.62 v 211.27 c 27.36,0 54.72,10.44 75.6,31.32 41.75,41.75 41.75,109.44 0,151.2 -20.88,20.87 -48.24,31.31 -75.6,31.31 v 37.77 0 c 12.34,0 24.68,-1.54 36.71,-4.63 24.56,-6.31 47.8,-19.06 67.05,-38.25 0.05,-0.05 0.11,-0.11 0.17,-0.17 v 0 c 28.26,-28.26 43.07,-65.91 43.05,-104.03 -0.01,-23.26 -5.54,-46.69 -16.88,-68.28 l -11.87,-22.58 -74.77,-142.25 -43.46,-82.68" /><path
             id="path196"
             style="fill:#f4f6f5;fill-opacity:1;fill-rule:nonzero;stroke:none"
             d="m 2084.25,2864.89 v 213.83 c 27.36,0 54.72,-10.44 75.6,-31.31 41.75,-41.76 41.75,-109.45 0,-151.2 -20.88,-20.88 -48.24,-31.32 -75.6,-31.32" /><path
             id="path198"
             style="fill:#f1485c;fill-opacity:1;fill-rule:nonzero;stroke:none"
             d="m 3431.78,2480.31 c -57.4,57.4 -150.46,57.4 -207.85,0 -45.51,-45.51 -56.12,-115.34 -26.17,-172.31 l 130.09,-247.51 130.1,247.51 c 29.95,56.97 19.34,126.8 -26.17,172.31" /><path
             id="path200"
             style="fill:#ffffff;fill-opacity:1;fill-rule:nonzero;stroke:none"
             d="m 3403.46,2303.07 c -41.76,-41.76 -109.45,-41.76 -151.21,0 -41.75,41.75 -41.75,109.45 0,151.2 41.76,41.75 109.45,41.75 151.21,0 41.75,-41.75 41.75,-109.45 0,-151.2" /><path
             id="path202"
             style="fill:#eadcc7;fill-opacity:1;fill-rule:nonzero;stroke:none"
             d="m 3428.89,2483.12 c -7.24,6.86 -15.02,12.85 -23.18,17.96 v 0 c 8.16,-5.11 15.94,-11.09 23.18,-17.96" /><path
             id="path204"
             style="fill:#ebad4a;fill-opacity:1;fill-rule:nonzero;stroke:none"
             d="m 3374.71,2515.72 c -8.74,2.93 -17.69,5.02 -26.74,6.26 9.05,-1.24 18,-3.33 26.74,-6.26 v 0" /><path
             id="path206"
             style="fill:#d3bfab;fill-opacity:1;fill-rule:nonzero;stroke:none"
             d="m 3405.71,2501.08 c -9.85,6.16 -20.25,11.04 -31,14.64 v 0 c 10.74,-3.6 21.16,-8.48 31,-14.64 v 0" /><path
             id="path208"
             style="fill:#ebad4a;fill-opacity:1;fill-rule:nonzero;stroke:none"
             d="m 3327.85,2523.36 v 0 0 0" /><path
             id="path210"
             style="fill:#ed4556;fill-opacity:1;fill-rule:nonzero;stroke:none"
             d="m 3327.85,2060.49 v 211.26 c 27.37,0 54.73,10.44 75.61,31.32 41.75,41.75 41.75,109.45 0,151.2 -20.88,20.88 -48.24,31.32 -75.61,31.32 v 0 37.77 0 c 6.73,0 13.45,-0.46 20.12,-1.38 9.05,-1.24 18,-3.33 26.74,-6.26 10.75,-3.6 21.15,-8.48 31,-14.64 8.16,-5.11 15.94,-11.1 23.18,-17.96 0.98,-0.92 1.94,-1.86 2.89,-2.81 28.27,-28.27 43.07,-65.92 43.05,-104.04 0,-9.38 -0.9,-18.8 -2.72,-28.1 -2.69,-13.76 -7.39,-27.3 -14.16,-40.17 l -38.01,-72.32 -92.09,-175.19" /><path
             id="path212"
             style="fill:#f4f6f5;fill-opacity:1;fill-rule:nonzero;stroke:none"
             d="m 3327.85,2271.75 v 0 213.84 c 27.37,0 54.73,-10.44 75.61,-31.32 41.75,-41.75 41.75,-109.45 0,-151.2 -20.88,-20.88 -48.24,-31.32 -75.61,-31.32" /><path
             id="path214"
             style="fill:#f1485c;fill-opacity:1;fill-rule:nonzero;stroke:none"
             d="m 2081.26,946.691 c -57.4,57.399 -150.46,57.399 -207.85,0 -45.52,-45.511 -56.12,-115.332 -26.18,-172.312 l 130.1,-247.5 130.1,247.5 c 29.95,56.98 19.34,126.801 -26.17,172.312" /><path
             id="path216"
             style="fill:#ffffff;fill-opacity:1;fill-rule:nonzero;stroke:none"
             d="m 2052.93,769.461 c -41.75,-41.762 -109.45,-41.762 -151.2,0 -41.75,41.75 -41.75,109.449 0,151.199 41.75,41.75 109.45,41.75 151.2,0 41.76,-41.75 41.76,-109.449 0,-151.199" /><path
             id="path218"
             style="fill:#eadcc7;fill-opacity:1;fill-rule:nonzero;stroke:none"
             d="m 2076.68,951.082 c -28.06,25.77 -63.7,38.656 -99.35,38.656 v 0 c 35.65,0 71.29,-12.879 99.35,-38.656 v 0" /><path
             id="path220"
             style="fill:#f1eee9;fill-opacity:1;fill-rule:nonzero;stroke:none"
             d="m 2080.08,947.859 c -1.12,1.102 -2.25,2.172 -3.4,3.223 v 0 c 1.15,-1.051 2.28,-2.121 3.4,-3.223" /><path
             id="path222"
             style="fill:#ed4556;fill-opacity:1;fill-rule:nonzero;stroke:none"
             d="m 1977.33,526.879 v 211.262 c 27.37,0 54.73,10.441 75.6,31.32 41.76,41.75 41.76,109.449 0,151.199 -20.87,20.879 -48.23,31.309 -75.6,31.309 v 37.769 c 35.65,0 71.29,-12.886 99.35,-38.656 1.15,-1.051 2.28,-2.121 3.4,-3.223 0.39,-0.379 0.79,-0.769 1.18,-1.168 28.27,-28.261 43.07,-65.91 43.05,-104.031 -0.01,-23.262 -5.53,-46.691 -16.88,-68.281 l -130.1,-247.5" /><path
             id="path224"
             style="fill:#f4f6f5;fill-opacity:1;fill-rule:nonzero;stroke:none"
             d="m 1977.33,738.141 v 213.828 c 27.37,0 54.73,-10.43 75.6,-31.309 41.76,-41.75 41.76,-109.449 0,-151.199 -20.87,-20.879 -48.23,-31.32 -75.6,-31.32" /></g></g><path
         id="path226"
         style="fill:#e2cfba;fill-opacity:1;fill-rule:nonzero;stroke:none"
         d="m 1771.2,109.539 c 0,-4.387 0.68,-8.129 2.05,-11.2187 1.36,-3.082 3.23,-5.3984 5.61,-6.9687 2.37,-1.5625 4.96,-2.3516 7.77,-2.3516 2.85,0 5.45,0.7422 7.81,2.2305 2.35,1.4804 4.23,3.7578 5.64,6.8281 1.4,3.0624 2.1,6.9104 2.1,11.4804 0,4.332 -0.7,8.043 -2.1,11.152 -1.41,3.098 -3.3,5.469 -5.7,7.11 -2.4,1.64 -5.02,2.461 -7.86,2.461 -2.97,0 -5.62,-0.84 -7.96,-2.524 -2.34,-1.679 -4.14,-4.078 -5.43,-7.226 -1.29,-3.153 -1.93,-6.801 -1.93,-10.973 z m 31.88,-23.7968 v 1.6094 c -2.18,-2.4922 -4.33,-4.5313 -6.44,-6.0821 -2.12,-1.5703 -4.42,-2.7578 -6.89,-3.5586 -2.47,-0.832 -5.17,-1.2226 -8.1,-1.2226 -3.88,0 -7.48,0.8125 -10.78,2.4531 -3.3,1.6484 -6.16,3.9883 -8.57,7.0391 -2.42,3.039 -4.25,6.6211 -5.5,10.75 -1.24,4.1095 -1.87,8.5705 -1.87,13.3515 0,10.129 2.48,18.027 7.42,23.688 4.95,5.66 11.46,8.492 19.54,8.492 4.66,0 8.6,-0.813 11.81,-2.41 3.2,-1.602 6.33,-4.071 9.38,-7.383 v 23.91 c 0,3.332 0.66,5.84 1.99,7.551 1.32,1.691 3.21,2.55 5.66,2.55 2.46,0 4.34,-0.781 5.67,-2.351 1.33,-1.57 1.99,-3.867 1.99,-6.918 V 85.7422 c 0,-3.0899 -0.71,-5.4024 -2.14,-6.9531 -1.42,-1.5274 -3.26,-2.3008 -5.52,-2.3008 -2.21,0 -4.04,0.793 -5.49,2.3906 -1.44,1.6133 -2.16,3.8906 -2.16,6.8633" /><path
         id="path228"
         style="fill:#e2cfba;fill-opacity:1;fill-rule:nonzero;stroke:none"
         d="m 1842.84,114.648 h 29.39 c -0.39,5.543 -1.9,9.692 -4.49,12.434 -2.59,2.758 -6,4.129 -10.23,4.129 -4.04,0 -7.36,-1.391 -9.95,-4.172 -2.59,-2.797 -4.16,-6.918 -4.72,-12.391 z m 31.7,-9.207 h -31.7 c 0.04,-3.671 0.78,-6.9215 2.23,-9.7301 1.44,-2.8125 3.36,-4.9296 5.76,-6.3515 2.39,-1.418 5.03,-2.1289 7.92,-2.1289 1.94,0 3.71,0.2187 5.31,0.6679 1.61,0.461 3.16,1.1719 4.67,2.1524 1.5,0.9609 2.88,2 4.15,3.1094 1.26,1.1093 2.9,2.6289 4.93,4.5195 0.83,0.7109 2.02,1.0703 3.56,1.0703 1.66,0 3.01,-0.4609 4.03,-1.3789 1.03,-0.9102 1.55,-2.1797 1.55,-3.8516 0,-1.4687 -0.58,-3.1679 -1.72,-5.1289 -1.16,-1.9687 -2.89,-3.8515 -5.2,-5.6406 -2.32,-1.8086 -5.22,-3.3008 -8.73,-4.4805 -3.49,-1.1992 -7.52,-1.7812 -12.08,-1.7812 -10.4,0 -18.5,2.9609 -24.27,8.9023 -5.78,5.9297 -8.67,13.9805 -8.67,24.1484 0,4.801 0.71,9.242 2.14,13.332 1.42,4.109 3.5,7.609 6.23,10.539 2.73,2.93 6.09,5.172 10.09,6.742 4,1.559 8.43,2.336 13.3,2.336 6.33,0 11.76,-1.328 16.29,-3.996 4.53,-2.683 7.93,-6.133 10.18,-10.351 2.25,-4.239 3.39,-8.559 3.39,-12.942 0,-4.09 -1.17,-6.73 -3.5,-7.937 -2.33,-1.211 -5.62,-1.821 -9.86,-1.821" /><path
         id="path230"
         style="fill:#e2cfba;fill-opacity:1;fill-rule:nonzero;stroke:none"
         d="m 1948.38,97.6797 c 0,-4.4688 -1.08,-8.3008 -3.26,-11.4883 -2.18,-3.1797 -5.39,-5.6016 -9.65,-7.25 -4.25,-1.6406 -9.43,-2.4531 -15.52,-2.4531 -5.82,0 -10.81,0.8906 -14.96,2.6719 -4.16,1.7695 -7.23,4 -9.2,6.6601 -1.98,2.6914 -2.97,5.3594 -2.97,8.0586 0,1.7813 0.63,3.3008 1.9,4.5703 1.27,1.25 2.87,1.8908 4.81,1.8908 1.7,0 3,-0.4181 3.91,-1.2502 0.92,-0.8281 1.79,-2 2.61,-3.4882 1.67,-2.9024 3.66,-5.043 5.98,-6.4805 2.31,-1.4102 5.46,-2.1406 9.46,-2.1406 3.25,0 5.91,0.7383 7.99,2.1797 2.07,1.4492 3.11,3.1015 3.11,4.9492 0,2.8594 -1.07,4.9219 -3.23,6.2306 -2.16,1.301 -5.71,2.558 -10.66,3.75 -5.58,1.379 -10.12,2.84 -13.62,4.371 -3.51,1.508 -6.31,3.519 -8.4,6.019 -2.1,2.489 -3.15,5.559 -3.15,9.2 0,3.23 0.97,6.308 2.91,9.199 1.94,2.883 4.8,5.191 8.58,6.91 3.78,1.723 8.34,2.59 13.68,2.59 4.2,0 7.97,-0.438 11.31,-1.32 3.34,-0.848 6.14,-2.039 8.37,-3.5 2.24,-1.45 3.94,-3.079 5.1,-4.86 1.17,-1.777 1.75,-3.519 1.75,-5.23 0,-1.848 -0.62,-3.379 -1.86,-4.571 -1.25,-1.168 -3.02,-1.777 -5.32,-1.777 -1.66,0 -3.08,0.469 -4.24,1.438 -1.17,0.941 -2.5,2.363 -4.01,4.261 -1.23,1.578 -2.66,2.852 -4.33,3.801 -1.66,0.961 -3.92,1.418 -6.77,1.418 -2.93,0 -5.36,-0.609 -7.3,-1.867 -1.94,-1.242 -2.91,-2.793 -2.91,-4.652 0,-1.711 0.71,-3.098 2.13,-4.18 1.43,-1.102 3.35,-2.008 5.77,-2.719 2.41,-0.699 5.73,-1.57 9.97,-2.59 5.02,-1.242 9.13,-2.699 12.32,-4.402 3.18,-1.699 5.59,-3.707 7.24,-6.027 1.64,-2.321 2.46,-4.954 2.46,-7.9223" /><path
         id="path232"
         style="fill:#e2cfba;fill-opacity:1;fill-rule:nonzero;stroke:none"
         d="M 1972.95,133.18 V 86.3398 c 0,-3.25 -0.77,-5.6992 -2.31,-7.3593 -1.55,-1.6602 -3.5,-2.4922 -5.88,-2.4922 -2.38,0 -4.31,0.8437 -5.79,2.5508 -1.49,1.6914 -2.22,4.1406 -2.22,7.3007 v 46.3592 c 0,3.199 0.73,5.621 2.22,7.242 1.48,1.618 3.41,2.438 5.79,2.438 2.38,0 4.33,-0.82 5.88,-2.438 1.54,-1.621 2.31,-3.882 2.31,-6.761 z m -8.01,16.73 c -2.26,0 -4.19,0.699 -5.79,2.082 -1.6,1.379 -2.4,3.34 -2.4,5.879 0,2.301 0.82,4.18 2.46,5.668 1.64,1.481 3.55,2.231 5.73,2.231 2.1,0 3.95,-0.668 5.58,-2.032 1.62,-1.34 2.43,-3.289 2.43,-5.867 0,-2.5 -0.79,-4.441 -2.38,-5.851 -1.58,-1.399 -3.46,-2.11 -5.63,-2.11" /><path
         id="path234"
         style="fill:#e2cfba;fill-opacity:1;fill-rule:nonzero;stroke:none"
         d="m 1996.99,109.961 c 0,-6.57 1.43,-11.5391 4.3,-14.8907 2.87,-3.3711 6.58,-5.0586 11.13,-5.0586 2.69,0 5.23,0.7305 7.63,2.1797 2.39,1.4297 4.34,3.6172 5.85,6.5274 1.5,2.9022 2.25,6.4332 2.25,10.5902 0,6.601 -1.45,11.761 -4.36,15.433 -2.91,3.668 -6.74,5.52 -11.49,5.52 -4.63,0 -8.34,-1.762 -11.13,-5.293 -2.79,-3.508 -4.18,-8.52 -4.18,-15.008 z m 46.96,20.539 V 83.4297 c 0,-5.3789 -0.58,-10.0195 -1.73,-13.8984 -1.14,-3.8711 -2.99,-7.0821 -5.52,-9.6094 -2.53,-2.5235 -5.85,-4.4219 -9.94,-5.6406 -4.1,-1.2305 -9.19,-1.8399 -15.29,-1.8399 -5.58,0 -10.57,0.7774 -14.96,2.3399 -4.39,1.5781 -7.77,3.5898 -10.15,6.0585 -2.37,2.4805 -3.56,5.0196 -3.56,7.629 0,1.9726 0.67,3.6015 2.02,4.832 1.34,1.2578 2.97,1.8789 4.86,1.8789 2.38,0 4.46,-1.0508 6.24,-3.1484 0.86,-1.0625 1.76,-2.1524 2.7,-3.2305 0.93,-1.1016 1.96,-2.0313 3.08,-2.8008 1.13,-0.7695 2.49,-1.3398 4.07,-1.7187 1.58,-0.3711 3.41,-0.5625 5.46,-0.5625 4.2,0 7.45,0.582 9.77,1.7617 2.32,1.1601 3.94,2.789 4.87,4.8906 0.93,2.0898 1.47,4.3281 1.63,6.7383 0.16,2.3906 0.28,6.2422 0.35,11.5508 -2.49,-3.4883 -5.36,-6.1407 -8.63,-7.961 -3.27,-1.8203 -7.16,-2.7383 -11.67,-2.7383 -5.42,0 -10.16,1.3907 -14.22,4.168 -4.05,2.7695 -7.17,6.6406 -9.34,11.6328 -2.18,4.9883 -3.26,10.7383 -3.26,17.2693 0,4.86 0.66,9.27 1.98,13.168 1.33,3.942 3.22,7.231 5.67,9.93 2.45,2.68 5.28,4.711 8.49,6.082 3.2,1.371 6.72,2.051 10.57,2.051 4.58,0 8.56,-0.891 11.93,-2.641 3.36,-1.769 6.49,-4.531 9.38,-8.289 v 2.199 c 0,2.809 0.69,4.981 2.07,6.528 1.39,1.543 3.17,2.32 5.35,2.32 3.12,0 5.2,-1.027 6.23,-3.059 1.03,-2.039 1.55,-4.98 1.55,-8.82" /><path
         id="path236"
         style="fill:#e2cfba;fill-opacity:1;fill-rule:nonzero;stroke:none"
         d="m 2069.7,133.41 v -1.949 c 2.84,3.758 5.96,6.508 9.35,8.269 3.38,1.758 7.27,2.649 11.66,2.649 4.28,0 8.09,-0.938 11.46,-2.797 3.36,-1.863 5.88,-4.492 7.54,-7.883 1.07,-1.988 1.76,-4.129 2.07,-6.418 0.32,-2.301 0.49,-5.23 0.49,-8.793 V 86.3398 c 0,-3.25 -0.75,-5.6992 -2.23,-7.3593 -1.49,-1.6602 -3.42,-2.4922 -5.79,-2.4922 -2.42,0 -4.37,0.8437 -5.88,2.5508 -1.51,1.6914 -2.25,4.1406 -2.25,7.3007 v 27.0122 c 0,5.339 -0.75,9.429 -2.23,12.257 -1.49,2.821 -4.44,4.25 -8.88,4.25 -2.88,0 -5.52,-0.871 -7.89,-2.589 -2.38,-1.719 -4.12,-4.09 -5.23,-7.09 -0.79,-2.418 -1.18,-6.93 -1.18,-13.539 V 86.3398 c 0,-3.289 -0.77,-5.75 -2.29,-7.3984 -1.52,-1.6406 -3.49,-2.4531 -5.9,-2.4531 -2.34,0 -4.25,0.8437 -5.76,2.5508 -1.5,1.6914 -2.26,4.1406 -2.26,7.3007 V 133.18 c 0,3.082 0.67,5.39 2.02,6.922 1.35,1.507 3.19,2.277 5.52,2.277 1.43,0 2.71,-0.34 3.86,-1.008 1.15,-0.691 2.07,-1.691 2.76,-3.031 0.7,-1.34 1.04,-2.988 1.04,-4.93" /><path
         id="path238"
         style="fill:#e2cfba;fill-opacity:1;fill-rule:nonzero;stroke:none"
         d="m 2136.59,114.648 h 29.39 c -0.4,5.543 -1.89,9.692 -4.48,12.434 -2.6,2.758 -6.01,4.129 -10.24,4.129 -4.04,0 -7.36,-1.391 -9.95,-4.172 -2.59,-2.797 -4.16,-6.918 -4.72,-12.391 z m 31.7,-9.207 h -31.7 c 0.05,-3.671 0.78,-6.9215 2.23,-9.7301 1.45,-2.8125 3.36,-4.9296 5.76,-6.3515 2.39,-1.418 5.03,-2.1289 7.92,-2.1289 1.94,0 3.71,0.2187 5.32,0.6679 1.6,0.461 3.15,1.1719 4.66,2.1524 1.5,0.9609 2.88,2 4.16,3.1094 1.26,1.1093 2.9,2.6289 4.92,4.5195 0.83,0.7109 2.02,1.0703 3.56,1.0703 1.66,0 3.01,-0.4609 4.04,-1.3789 1.03,-0.9102 1.54,-2.1797 1.54,-3.8516 0,-1.4687 -0.57,-3.1679 -1.72,-5.1289 -1.15,-1.9687 -2.88,-3.8515 -5.2,-5.6406 -2.32,-1.8086 -5.22,-3.3008 -8.72,-4.4805 -3.5,-1.1992 -7.53,-1.7812 -12.08,-1.7812 -10.41,0 -18.5,2.9609 -24.29,8.9023 -5.77,5.9297 -8.66,13.9805 -8.66,24.1484 0,4.801 0.71,9.242 2.14,13.332 1.42,4.109 3.5,7.609 6.23,10.539 2.73,2.93 6.1,5.172 10.09,6.742 4,1.559 8.44,2.336 13.3,2.336 6.33,0 11.76,-1.328 16.29,-3.996 4.53,-2.683 7.93,-6.133 10.19,-10.351 2.25,-4.239 3.38,-8.559 3.38,-12.942 0,-4.09 -1.16,-6.73 -3.5,-7.937 -2.33,-1.211 -5.62,-1.821 -9.86,-1.821" /><path
         id="path240"
         style="fill:#e2cfba;fill-opacity:1;fill-rule:nonzero;stroke:none"
         d="m 2202.48,109.539 c 0,-4.387 0.68,-8.129 2.04,-11.2187 1.37,-3.082 3.24,-5.3984 5.62,-6.9687 2.37,-1.5625 4.96,-2.3516 7.77,-2.3516 2.85,0 5.46,0.7422 7.81,2.2305 2.35,1.4804 4.23,3.7578 5.63,6.8281 1.41,3.0624 2.11,6.9104 2.11,11.4804 0,4.332 -0.7,8.043 -2.11,11.152 -1.4,3.098 -3.3,5.469 -5.69,7.11 -2.4,1.64 -5.02,2.461 -7.87,2.461 -2.96,0 -5.62,-0.84 -7.95,-2.524 -2.33,-1.679 -4.15,-4.078 -5.44,-7.226 -1.28,-3.153 -1.92,-6.801 -1.92,-10.973 z m 31.87,-23.7968 v 1.6094 c -2.17,-2.4922 -4.32,-4.5313 -6.44,-6.0821 -2.12,-1.5703 -4.41,-2.7578 -6.88,-3.5586 -2.47,-0.832 -5.17,-1.2226 -8.1,-1.2226 -3.89,0 -7.48,0.8125 -10.78,2.4531 -3.3,1.6484 -6.16,3.9883 -8.58,7.0391 -2.41,3.039 -4.24,6.6211 -5.49,10.75 -1.24,4.1095 -1.87,8.5705 -1.87,13.3515 0,10.129 2.48,18.027 7.42,23.688 4.95,5.66 11.46,8.492 19.53,8.492 4.67,0 8.61,-0.813 11.82,-2.41 3.2,-1.602 6.33,-4.071 9.37,-7.383 v 23.91 c 0,3.332 0.67,5.84 1.99,7.551 1.33,1.691 3.22,2.55 5.67,2.55 2.46,0 4.34,-0.781 5.67,-2.351 1.33,-1.57 1.99,-3.867 1.99,-6.918 V 85.7422 c 0,-3.0899 -0.71,-5.4024 -2.13,-6.9531 -1.43,-1.5274 -3.27,-2.3008 -5.53,-2.3008 -2.21,0 -4.04,0.793 -5.49,2.3906 -1.44,1.6133 -2.17,3.8906 -2.17,6.8633" /><path
         id="path242"
         style="fill:#e2cfba;fill-opacity:1;fill-rule:nonzero;stroke:none"
         d="m 2301.36,109.07 c 0,-6.449 1.48,-11.3981 4.42,-14.8591 2.95,-3.4687 6.82,-5.2109 11.61,-5.2109 4.07,0 7.59,1.7695 10.53,5.3203 2.95,3.5391 4.43,8.6207 4.43,15.2187 0,4.281 -0.61,7.961 -1.84,11.051 -1.23,3.09 -2.97,5.469 -5.22,7.148 -2.26,1.684 -4.89,2.524 -7.9,2.524 -3.09,0 -5.84,-0.84 -8.25,-2.524 -2.42,-1.679 -4.31,-4.109 -5.7,-7.297 -1.38,-3.179 -2.08,-6.98 -2.08,-11.371 z m -0.77,48.141 v -24.742 c 3.05,3.16 6.15,5.59 9.32,7.261 3.16,1.692 7.09,2.532 11.76,2.532 5.38,0 10.09,-1.282 14.16,-3.821 4.05,-2.57 7.19,-6.269 9.43,-11.109 2.24,-4.852 3.36,-10.602 3.36,-17.25 0,-4.91 -0.63,-9.402 -1.87,-13.5 -1.25,-4.1015 -3.06,-7.6523 -5.43,-10.6601 -2.38,-3 -5.26,-5.3321 -8.64,-6.9805 -3.39,-1.6406 -7.12,-2.4531 -11.19,-2.4531 -2.5,0 -4.84,0.293 -7.04,0.8906 -2.2,0.582 -4.07,1.3711 -5.61,2.3399 -1.54,0.9726 -2.85,1.9726 -3.94,2.9921 -1.09,1.0274 -2.53,2.5782 -4.31,4.6407 v -1.6094 c 0,-3.043 -0.73,-5.3516 -2.2,-6.9219 -1.46,-1.5586 -3.32,-2.332 -5.58,-2.332 -2.29,0 -4.12,0.7734 -5.49,2.332 -1.36,1.5703 -2.04,3.8789 -2.04,6.9219 V 156.5 c 0,3.289 0.66,5.781 1.98,7.449 1.33,1.692 3.18,2.531 5.55,2.531 2.5,0 4.42,-0.808 5.76,-2.41 1.35,-1.609 2.02,-3.879 2.02,-6.859" /><path
         id="path244"
         style="fill:#e2cfba;fill-opacity:1;fill-rule:nonzero;stroke:none"
         d="m 2369.63,74.4609 1.48,3.6289 -19.95,50.2192 c -1.22,2.882 -1.84,4.992 -1.84,6.3 0,1.371 0.36,2.661 1.07,3.84 0.72,1.199 1.69,2.153 2.94,2.86 1.25,0.722 2.54,1.07 3.89,1.07 2.33,0 4.09,-0.738 5.28,-2.227 1.19,-1.48 2.24,-3.601 3.15,-6.382 l 13.71,-39.8911 13,37.1011 c 1.03,3 1.96,5.36 2.79,7.071 0.83,1.691 1.71,2.84 2.64,3.429 0.93,0.59 2.25,0.899 3.95,0.899 1.23,0 2.41,-0.328 3.53,-0.988 1.13,-0.649 2,-1.52 2.61,-2.641 0.61,-1.109 0.93,-2.27 0.93,-3.5 -0.17,-0.738 -0.42,-1.82 -0.78,-3.211 -0.36,-1.379 -0.79,-2.797 -1.3,-4.207 L 2385.6,72.5117 c -1.83,-4.8711 -3.61,-8.6797 -5.35,-11.4531 -1.74,-2.7695 -4.04,-4.9102 -6.92,-6.3867 -2.87,-1.4922 -6.73,-2.2305 -11.6,-2.2305 -4.75,0 -8.31,0.5078 -10.68,1.5391 -2.38,1.0312 -3.56,2.9179 -3.56,5.6484 0,1.8516 0.56,3.3008 1.69,4.3008 1.12,1.0117 2.8,1.5195 5.01,1.5195 l 2.56,-0.3594 c 1.02,-0.2382 1.91,-0.3593 2.66,-0.3593 1.86,0 3.33,0.2695 4.4,0.8281 1.07,0.5508 2.02,1.5117 2.88,2.8828 0.85,1.3594 1.83,3.3672 2.94,6.0195" /><path
         id="path246"
         style="fill:#e2cfba;fill-opacity:1;fill-rule:nonzero;stroke:none"
         d="m 2604.39,140.98 h 3.87 v 4.852 c 0,5.09 0.62,9.109 1.92,12.109 1.27,3 3.47,5.168 6.54,6.539 3.07,1.352 7.26,2.032 12.6,2.032 9.5,0 14.21,-2.293 14.21,-6.953 0,-1.489 -0.5,-2.789 -1.5,-3.848 -0.97,-1.063 -2.15,-1.602 -3.49,-1.602 -0.63,0 -1.74,0.11 -3.3,0.371 -1.48,0.211 -2.82,0.352 -3.89,0.352 -2.92,0 -4.79,-0.883 -5.66,-2.602 -0.79,-1.718 -1.22,-4.171 -1.22,-7.398 v -3.852 h 3.96 c 6.19,0 9.25,-1.859 9.25,-5.609 0,-2.609 -0.79,-4.312 -2.45,-5.031 -1.64,-0.699 -3.9,-1.059 -6.8,-1.059 h -3.96 V 86.3398 c 0,-3.1992 -0.75,-5.6289 -2.3,-7.3007 -1.52,-1.7071 -3.47,-2.5391 -5.9,-2.5391 -2.29,0 -4.19,0.832 -5.74,2.5391 -1.52,1.6718 -2.27,4.1015 -2.27,7.3007 v 42.9412 h -4.47 c -2.42,0 -4.26,0.528 -5.57,1.641 -1.31,1.058 -1.97,2.488 -1.97,4.23 0,3.899 2.71,5.828 8.14,5.828" /><path
         id="path248"
         style="fill:#e2cfba;fill-opacity:1;fill-rule:nonzero;stroke:none"
         d="M 2657.46,99.8906 V 86.3398 c 0,-3.2695 -0.83,-5.75 -2.35,-7.371 -1.54,-1.668 -3.49,-2.4688 -5.86,-2.4688 -2.38,0 -4.29,0.8203 -5.78,2.5 -1.48,1.6484 -2.26,4.1016 -2.26,7.3398 V 131.48 c 0,7.29 2.62,10.93 7.88,10.93 2.71,0 4.64,-0.851 5.84,-2.558 1.18,-1.704 1.84,-4.211 1.98,-7.543 1.93,3.332 3.9,5.839 5.93,7.543 2.08,1.707 4.76,2.558 8.18,2.558 3.43,0 6.7,-0.851 9.91,-2.558 3.22,-1.704 4.82,-3.981 4.82,-6.77 0,-1.973 -0.69,-3.633 -2.04,-4.883 -1.38,-1.308 -2.84,-1.961 -4.41,-1.961 -0.63,0 -2.07,0.391 -4.33,1.133 -2.28,0.699 -4.31,1.078 -6.01,1.078 -2.38,0 -4.34,-0.648 -5.83,-1.867 -1.51,-1.281 -2.69,-3.102 -3.52,-5.543 -0.81,-2.457 -1.37,-5.398 -1.71,-8.769 -0.31,-3.391 -0.44,-7.52 -0.44,-12.3794" /><path
         id="path250"
         style="fill:#e2cfba;fill-opacity:1;fill-rule:nonzero;stroke:none"
         d="m 2700.24,114.68 h 29.38 c -0.39,5.531 -1.85,9.679 -4.45,12.422 -2.61,2.757 -5.99,4.117 -10.25,4.117 -4.05,0 -7.37,-1.379 -9.95,-4.18 -2.59,-2.789 -4.18,-6.898 -4.73,-12.359 m 31.72,-9.211 h -31.72 c 0.06,-3.68 0.78,-6.9495 2.22,-9.7385 1.47,-2.8008 3.37,-4.9219 5.78,-6.3711 2.4,-1.4102 5.03,-2.1172 7.93,-2.1172 1.94,0 3.7,0.207 5.31,0.6992 1.59,0.4375 3.15,1.1602 4.65,2.1289 1.52,0.961 2.88,1.9883 4.15,3.1289 1.27,1.0821 2.92,2.6016 4.95,4.4922 0.84,0.707 2.02,1.0899 3.55,1.0899 1.67,0 3,-0.4727 4.05,-1.4024 1.04,-0.9101 1.53,-2.1797 1.53,-3.8476 0,-1.4727 -0.56,-3.1797 -1.67,-5.1211 -1.18,-1.9883 -2.9,-3.8516 -5.23,-5.6602 -2.34,-1.7812 -5.25,-3.3008 -8.74,-4.4687 -3.49,-1.1797 -7.53,-1.7813 -12.07,-1.7813 -10.44,0 -18.52,2.9492 -24.29,8.8906 -5.78,5.9414 -8.69,14.0078 -8.69,24.1684 0,4.793 0.73,9.242 2.17,13.339 1.4,4.114 3.48,7.602 6.24,10.551 2.72,2.942 6.06,5.172 10.08,6.731 3.98,1.562 8.41,2.351 13.29,2.351 6.33,0 11.76,-1.351 16.3,-4.039 4.52,-2.64 7.96,-6.113 10.18,-10.344 2.26,-4.246 3.38,-8.546 3.38,-12.968 0,-4.051 -1.17,-6.688 -3.5,-7.91 -2.33,-1.211 -5.62,-1.801 -9.85,-1.801" /><path
         id="path252"
         style="fill:#e2cfba;fill-opacity:1;fill-rule:nonzero;stroke:none"
         d="m 2767.67,114.68 h 29.39 c -0.41,5.531 -1.91,9.679 -4.47,12.422 -2.64,2.757 -6.02,4.117 -10.27,4.117 -4.04,0 -7.35,-1.379 -9.96,-4.18 -2.57,-2.789 -4.16,-6.898 -4.69,-12.359 m 31.71,-9.211 h -31.71 c 0.04,-3.68 0.79,-6.9495 2.21,-9.7385 1.46,-2.8008 3.37,-4.9219 5.77,-6.3711 2.39,-1.4102 5.02,-2.1172 7.94,-2.1172 1.92,0 3.7,0.207 5.28,0.6992 1.62,0.4375 3.16,1.1602 4.68,2.1289 1.52,0.961 2.88,1.9883 4.15,3.1289 1.25,1.0821 2.91,2.6016 4.93,4.4922 0.85,0.707 2.04,1.0899 3.56,1.0899 1.67,0 3.01,-0.4727 4.06,-1.4024 1.03,-0.9101 1.5,-2.1797 1.5,-3.8476 0,-1.4727 -0.55,-3.1797 -1.71,-5.1211 -1.11,-1.9883 -2.84,-3.8516 -5.18,-5.6602 -2.32,-1.7812 -5.25,-3.3008 -8.73,-4.4687 -3.48,-1.1797 -7.55,-1.7813 -12.09,-1.7813 -10.42,0 -18.49,2.9492 -24.29,8.8906 -5.77,5.9414 -8.68,14.0078 -8.68,24.1684 0,4.793 0.72,9.242 2.18,13.339 1.41,4.114 3.49,7.602 6.22,10.551 2.72,2.942 6.08,5.172 10.08,6.731 4,1.562 8.45,2.351 13.31,2.351 6.31,0 11.74,-1.351 16.33,-4.039 4.51,-2.64 7.91,-6.113 10.13,-10.344 2.25,-4.246 3.41,-8.546 3.41,-12.968 0,-4.051 -1.2,-6.688 -3.5,-7.91 -2.35,-1.211 -5.63,-1.801 -9.85,-1.801" /><path
         id="path254"
         style="fill:#e2cfba;fill-opacity:1;fill-rule:nonzero;stroke:none"
         d="m 2866.65,109.742 c 0,4.278 -0.66,7.957 -1.97,11.02 -1.3,3.078 -3.11,5.418 -5.4,7.039 -2.3,1.648 -4.9,2.48 -7.71,2.48 -4.46,0 -8.24,-1.769 -11.3,-5.269 -3.08,-3.543 -4.63,-8.723 -4.63,-15.582 0,-6.418 1.53,-11.4612 4.6,-15.0316 3.04,-3.5898 6.79,-5.3789 11.33,-5.3789 2.68,0 5.19,0.8008 7.49,2.3321 2.32,1.5781 4.15,3.9179 5.51,7.0468 1.38,3.1406 2.08,6.9216 2.08,11.3436 m -31.78,23.547 v -1.949 c 3.04,3.762 6.22,6.519 9.54,8.281 3.23,1.781 6.98,2.668 11.13,2.668 4.97,0 9.59,-1.297 13.79,-3.848 4.2,-2.589 7.5,-6.351 9.94,-11.293 2.43,-4.968 3.66,-10.816 3.66,-17.589 0,-4.969 -0.71,-9.5707 -2.1,-13.7582 -1.4,-4.1797 -3.35,-7.6719 -5.81,-10.5 -2.45,-2.8125 -5.34,-5 -8.68,-6.5313 -3.39,-1.5078 -6.94,-2.2695 -10.8,-2.2695 -4.61,0 -8.52,0.9297 -11.66,2.7891 -3.13,1.8203 -6.14,4.582 -9.01,8.1601 V 63.1211 c 0,-7.0898 -2.6,-10.6797 -7.77,-10.6797 -3.07,0 -5.06,0.918 -6.07,2.7383 -0.95,1.8711 -1.46,4.5195 -1.46,8.0703 v 69.961 c 0,3.09 0.67,5.371 2,6.918 1.34,1.492 3.2,2.281 5.53,2.281 2.3,0 4.16,-0.789 5.6,-2.34 1.47,-1.578 2.17,-3.82 2.17,-6.781" /><path
         id="path256"
         style="fill:#e2cfba;fill-opacity:1;fill-rule:nonzero;stroke:none"
         d="M 2907.27,133.211 V 86.332 c 0,-3.2304 -0.77,-5.6836 -2.3,-7.332 -1.57,-1.6797 -3.51,-2.5 -5.89,-2.5 -2.38,0 -4.28,0.832 -5.8,2.5391 -1.46,1.7226 -2.22,4.1523 -2.22,7.2929 v 46.418 c 0,3.191 0.76,5.59 2.22,7.211 1.52,1.648 3.42,2.449 5.8,2.449 2.38,0 4.32,-0.801 5.89,-2.449 1.53,-1.621 2.3,-3.891 2.3,-6.75 m -8.02,16.738 c -2.27,0 -4.18,0.723 -5.77,2.102 -1.62,1.39 -2.42,3.32 -2.42,5.84 0,2.308 0.82,4.191 2.48,5.691 1.64,1.469 3.54,2.227 5.71,2.227 2.13,0 3.97,-0.657 5.58,-1.989 1.63,-1.371 2.44,-3.351 2.44,-5.929 0,-2.493 -0.79,-4.442 -2.35,-5.84 -1.59,-1.379 -3.47,-2.102 -5.67,-2.102" /><path
         id="path258"
         style="fill:#e2cfba;fill-opacity:1;fill-rule:nonzero;stroke:none"
         d="m 2959.52,83.9023 -14.27,23.5277 -8.8,-8.3011 V 86.2188 c 0,-3.1172 -0.83,-5.5079 -2.48,-7.1797 -1.61,-1.7071 -3.54,-2.5391 -5.66,-2.5391 -2.49,0 -4.47,0.8203 -5.89,2.5 -1.41,1.6484 -2.15,4.1016 -2.15,7.3398 V 155.48 c 0,3.59 0.72,6.321 2.08,8.211 1.39,1.911 3.41,2.821 5.96,2.821 2.49,0 4.45,-0.852 5.93,-2.563 1.46,-1.699 2.21,-4.207 2.21,-7.519 v -39.328 l 18.22,19.136 c 2.26,2.364 3.96,4 5.17,4.871 1.18,0.871 2.62,1.301 4.31,1.301 2.03,0 3.71,-0.648 5.1,-1.93 1.32,-1.289 2,-2.91 2,-4.839 0,-2.371 -2.21,-5.551 -6.59,-9.512 l -8.61,-7.879 16.62,-26.1484 c 1.21,-1.9493 2.12,-3.3907 2.65,-4.4102 0.52,-1 0.81,-2 0.81,-2.8906 0,-2.582 -0.72,-4.5899 -2.13,-6.0899 -1.41,-1.4804 -3.27,-2.2109 -5.53,-2.2109 -1.98,0 -3.53,0.5 -4.59,1.6016 -1.06,1.0703 -2.54,3.0078 -4.36,5.8007" /><path
         id="path260"
         style="fill:#e2cfba;fill-opacity:1;fill-rule:nonzero;stroke:none"
         d="m 2994.75,76.5 c -2.45,0 -4.55,0.7813 -6.34,2.3789 -1.78,1.5508 -2.68,3.7813 -2.68,6.6524 0,2.4101 0.86,4.4882 2.56,6.2109 1.72,1.75 3.8,2.6289 6.3,2.6289 2.49,0 4.6,-0.8789 6.4,-2.582 1.74,-1.7188 2.63,-3.8282 2.63,-6.2578 0,-2.8321 -0.89,-5.0508 -2.63,-6.629 -1.8,-1.621 -3.87,-2.4023 -6.24,-2.4023" /><path
         id="path262"
         style="fill:#e2cfba;fill-opacity:1;fill-rule:nonzero;stroke:none"
         d="m 3075.36,96.5508 c 0,-2 -0.61,-4.1719 -1.81,-6.4492 -1.2,-2.3203 -3.06,-4.5 -5.55,-6.5703 -2.46,-2.0704 -5.56,-3.7618 -9.33,-5.0196 -3.76,-1.2695 -8.01,-1.9101 -12.7,-1.9101 -10.03,0 -17.86,2.9297 -23.49,8.75 -5.59,5.8476 -8.41,13.6797 -8.41,23.5004 0,6.668 1.28,12.527 3.87,17.648 2.55,5.09 6.28,9.039 11.14,11.84 4.87,2.789 10.73,4.191 17.46,4.191 4.22,0 8.05,-0.609 11.58,-1.851 3.5,-1.219 6.45,-2.821 8.91,-4.739 2.41,-1.972 4.28,-4.019 5.55,-6.211 1.3,-2.191 1.93,-4.238 1.93,-6.16 0,-1.929 -0.71,-3.582 -2.15,-4.922 -1.46,-1.339 -3.22,-2.027 -5.24,-2.027 -1.36,0 -2.49,0.359 -3.38,1.039 -0.9,0.699 -1.9,1.809 -2.99,3.379 -1.99,2.992 -4.04,5.262 -6.22,6.75 -2.15,1.52 -4.89,2.262 -8.22,2.262 -4.76,0 -8.64,-1.852 -11.58,-5.602 -2.92,-3.719 -4.4,-8.879 -4.4,-15.347 0,-3.051 0.39,-5.872 1.15,-8.422 0.73,-2.5394 1.82,-4.7191 3.25,-6.5198 1.44,-1.7891 3.15,-3.1602 5.16,-4.0899 2.03,-0.9609 4.26,-1.4101 6.65,-1.4101 3.26,0 6.05,0.75 8.35,2.25 2.36,1.5117 4.4,3.8007 6.17,6.8906 0.99,1.8203 2.05,3.2382 3.18,4.2692 1.14,1.032 2.56,1.559 4.23,1.559 1.97,0 3.62,-0.758 4.9,-2.258 1.32,-1.5116 1.99,-3.121 1.99,-4.8202" /><path
         id="path264"
         style="fill:#e2cfba;fill-opacity:1;fill-rule:nonzero;stroke:none"
         d="m 3129.03,109.43 c 0,6.621 -1.47,11.761 -4.36,15.429 -2.89,3.731 -6.81,5.563 -11.72,5.563 -3.17,0 -5.97,-0.832 -8.39,-2.473 -2.41,-1.629 -4.26,-4.047 -5.56,-7.269 -1.31,-3.211 -1.97,-6.961 -1.97,-11.25 0,-4.231 0.64,-7.918 1.93,-11.0784 1.31,-3.1914 3.14,-5.6016 5.54,-7.293 2.41,-1.6602 5.21,-2.5195 8.45,-2.5195 4.91,0 8.83,1.8515 11.72,5.5703 2.89,3.6914 4.36,8.8206 4.36,15.3206 m 16.27,0 c 0,-4.809 -0.76,-9.27 -2.22,-13.3597 -1.54,-4.0781 -3.7,-7.5781 -6.56,-10.4883 -2.84,-2.9297 -6.26,-5.1836 -10.2,-6.75 -4,-1.5507 -8.44,-2.3437 -13.37,-2.3437 -4.91,0 -9.33,0.793 -13.26,2.3906 -3.89,1.5508 -7.31,3.832 -10.15,6.7617 -2.88,2.9805 -5.06,6.461 -6.58,10.4805 -1.43,4.0199 -2.19,8.4689 -2.19,13.3089 0,4.922 0.77,9.41 2.24,13.492 1.51,4.09 3.68,7.578 6.49,10.457 2.82,2.883 6.21,5.113 10.19,6.691 4.03,1.551 8.44,2.34 13.26,2.34 4.91,0 9.36,-0.789 13.37,-2.39 3.99,-1.571 7.39,-3.84 10.27,-6.75 2.86,-2.961 5.02,-6.43 6.5,-10.438 1.46,-4.07 2.21,-8.5 2.21,-13.402" /><path
         id="path266"
         style="fill:#e2cfba;fill-opacity:1;fill-rule:nonzero;stroke:none"
         d="M 3207.13,108.25 V 86.6992 c 0,-3.4101 -0.76,-5.9375 -2.31,-7.6601 -1.56,-1.7071 -3.58,-2.5508 -6.12,-2.5508 -2.45,0 -4.45,0.8437 -5.94,2.5508 -1.54,1.7226 -2.32,4.25 -2.32,7.6601 V 112.52 c 0,4.089 -0.13,7.269 -0.4,9.539 -0.28,2.211 -1.05,4.089 -2.26,5.511 -1.23,1.469 -3.19,2.2 -5.82,2.2 -5.31,0 -8.79,-1.821 -10.48,-5.5 -1.67,-3.61 -2.54,-8.84 -2.54,-15.68 V 86.6992 c 0,-3.3476 -0.76,-5.8984 -2.25,-7.6406 -1.57,-1.707 -3.56,-2.5703 -6.04,-2.5703 -2.47,0 -4.48,0.8633 -6.04,2.5703 -1.57,1.7422 -2.35,4.293 -2.35,7.6406 v 46.3828 c 0,3.047 0.69,5.367 2.1,6.938 1.42,1.601 3.28,2.39 5.55,2.39 2.23,0 4.08,-0.769 5.58,-2.23 1.48,-1.489 2.21,-3.539 2.21,-6.149 V 132.5 c 2.83,3.352 5.85,5.832 9.03,7.379 3.22,1.621 6.76,2.41 10.71,2.41 4.06,0 7.57,-0.809 10.48,-2.437 2.93,-1.622 5.34,-4.09 7.25,-7.352 2.75,3.301 5.68,5.77 8.82,7.379 3.12,1.609 6.58,2.41 10.39,2.41 4.4,0 8.25,-0.887 11.46,-2.617 3.18,-1.731 5.58,-4.25 7.16,-7.473 1.38,-2.957 2.07,-7.558 2.07,-13.847 V 86.6992 c 0,-3.4101 -0.76,-5.9375 -2.3,-7.6601 -1.54,-1.7071 -3.59,-2.5508 -6.11,-2.5508 -2.47,0 -4.47,0.8633 -6.03,2.5703 -1.57,1.7422 -2.36,4.293 -2.36,7.6406 v 27.2618 c 0,3.488 -0.15,6.277 -0.43,8.359 -0.29,2.121 -1.11,3.891 -2.39,5.301 -1.33,1.418 -3.32,2.149 -5.96,2.149 -2.13,0 -4.16,-0.668 -6.09,-1.93 -1.92,-1.231 -3.42,-2.981 -4.5,-5.078 -1.16,-2.731 -1.77,-7.582 -1.77,-14.512" /><path
         id="path268"
         style="fill:#e2cfba;fill-opacity:1;fill-rule:nonzero;stroke:none"
         d="m 2452.72,113.359 -0.01,0.11 0.01,-0.11" /><path
         id="path270"
         style="fill:#e2cfba;fill-opacity:1;fill-rule:nonzero;stroke:none"
         d="m 2453.54,108.18 h 0.02 c -0.31,1.468 -0.56,2.941 -0.75,4.39 0.19,-1.461 0.44,-2.929 0.73,-4.39" /><path
         id="path272"
         style="fill:#e2cfba;fill-opacity:1;fill-rule:nonzero;stroke:none"
         d="m 2458.9,93.1406 -0.1,0.211 0.1,-0.211" /><path
         id="path274"
         style="fill:#e2cfba;fill-opacity:1;fill-rule:nonzero;stroke:none"
         d="m 2458.39,94.1406 -0.41,0.8399 0.41,-0.8399" /><path
         id="path276"
         style="fill:#e2cfba;fill-opacity:1;fill-rule:nonzero;stroke:none"
         d="m 2455.05,102.391 c 0.79,-2.5004 1.74,-4.9301 2.85,-7.2387 -1.12,2.3594 -2.06,4.7891 -2.83,7.2387 h -0.02" /><path
         id="path278"
         style="fill:#e2cfba;fill-opacity:1;fill-rule:nonzero;stroke:none"
         d="m 2515.45,175.461 c 3.14,0 5.45,-0.242 8.1,-0.691 l 0.75,4.769 c 0,0 -7.32,2.242 -16.94,1.461 l -0.76,2.59 c 2.99,0.64 5.24,3.301 5.24,6.469 0,3.64 -2.96,6.582 -6.61,6.582 -3.64,0 -6.6,-2.942 -6.6,-6.582 0,-3.168 2.24,-5.829 5.23,-6.469 l 0.83,-2.891 c -10.21,-1.41 -18.34,-5.39 -18.34,-5.39 l 1.44,-4.399 c 6.18,2.051 11.54,3.309 16.4,3.832 4.76,0.496 8.34,0.719 11.26,0.719" /><path
         id="path280"
         style="fill:#e2cfba;fill-opacity:1;fill-rule:nonzero;stroke:none"
         d="m 2458.78,151.352 0.04,0.05 0.71,0.887 -1.96,1.41 -3.05,2.231 c -0.17,-0.239 -4.97,-4.649 -8.76,-12.809 l -0.56,0.75 c -1.13,1.25 -2.72,1.879 -4.74,1.84 h -0.09 c -1.25,0 -2.11,0.418 -2.67,0.918 0.56,0.711 0.9,1.601 0.9,2.59 0,2.293 -1.88,4.172 -4.19,4.172 -2.3,0 -4.18,-1.879 -4.18,-4.172 0,-2.321 1.88,-4.188 4.18,-4.188 l 1.05,0.129 c 1.02,-1.14 2.65,-2.129 5.04,-2.078 1.23,0.008 2.13,-0.312 2.74,-0.98 l 1,-2.672 -0.02,-0.032 c -2.72,-7.429 -1.95,-16.679 -1.95,-16.679 l 6.61,-0.27 c 0.14,3.371 0.62,9.262 2.32,13.942 3.29,9.05 7.41,14.718 7.58,14.961" /><path
         id="path282"
         style="fill:#e2cfba;fill-opacity:1;fill-rule:nonzero;stroke:none"
         d="m 2572.95,169.941 c -2.3,0 -4.18,-1.859 -4.18,-4.179 l 0.15,-1.032 c -1.15,-1.039 -2.15,-2.671 -2.11,-5.07 0.02,-1.23 -0.3,-2.121 -0.97,-2.73 l -1.84,-0.879 c -4.92,6.898 -10.97,11.097 -10.97,11.097 l -4.75,-5.078 c 3.59,-3.261 7.25,-7.351 10.8,-12.441 2.47,-3.527 4.99,-8.07 7.1,-12.598 l 6.4,3.039 c 0,0 -2.92,7.231 -7.03,13.7 l 2.06,1.21 c 1.26,1.122 1.87,2.719 1.83,4.731 -0.01,1.301 0.42,2.18 0.93,2.758 0.72,-0.547 1.61,-0.887 2.58,-0.887 2.32,0 4.18,1.867 4.18,4.18 0,2.32 -1.86,4.179 -4.18,4.179" /><path
         id="path284"
         style="fill:#e2cfba;fill-opacity:1;fill-rule:nonzero;stroke:none"
         d="m 2556.35,112.422 c -8.82,-4.281 -23.31,-9.961 -42.39,-12.6212 -7.49,-1.0391 -14.75,-1.4102 -21.43,-1.4102 -8.69,0 -16.37,0.6407 -22.26,1.3907 -6.73,0.8397 -11.99,1.8787 -15.2,2.6097 0.77,-2.4496 1.71,-4.8793 2.83,-7.2387 l 0.08,-0.1718 0.41,-0.8399 0.41,-0.789 0.1,-0.211 c 1.9,-3.5703 4.17,-6.8398 6.76,-9.6797 9,-9.8398 18.17,-11.4023 18.25,-11.4218 l 0.15,-0.0078 0.13,-0.0508 c 0.08,-0.0313 8.21,-2.6602 20.57,-2.6602 12.16,0 24.1,2.4492 35.46,7.3008 8.42,4.3086 16.39,10.8477 20.34,16.6875 3.05,4.5234 5.26,9.3204 6.56,14.3324 0.7,2.66 1.25,6.918 0.92,11.41 -2.48,-1.672 -6.4,-4.039 -11.69,-6.629" /><path
         id="path286"
         style="fill:#e2cfba;fill-opacity:1;fill-rule:nonzero;stroke:none"
         d="m 2486.78,153.871 c 9.73,0 17.61,-7.891 17.61,-17.621 0,-9.711 -7.88,-17.59 -17.61,-17.59 -9.71,0 -17.6,7.879 -17.6,17.59 0,9.73 7.89,17.621 17.6,17.621 z m 51.51,-0.441 c 6.01,0 10.9,-4.891 10.9,-10.891 0,-6.019 -4.89,-10.898 -10.9,-10.898 -6,0 -10.89,4.879 -10.89,10.898 0,6 4.89,10.891 10.89,10.891 z m -76.68,-4.16 c -0.26,-0.379 -4.08,-5.79 -7.1,-14.09 -2.26,-6.211 -2.16,-15.27 -2.16,-15.371 v -0.02 c 0,-2.129 0.12,-4.23 0.36,-6.32 l 0.01,-0.11 0.09,-0.789 c 0.19,-1.449 0.44,-2.922 0.75,-4.39 4.37,-1.11 30.49,-7.211 59.67,-3.141 18.3,2.551 32.19,7.961 40.63,12.051 7,3.39 11.51,6.469 13.24,7.742 -1.73,6.418 -6.51,16.5 -10.89,22.789 -12.54,17.899 -26.05,22.5 -32.98,23.641 -2.65,0.429 -4.77,0.687 -7.78,0.687 -2.79,0 -6.26,-0.238 -10.89,-0.73 -4.64,-0.469 -9.82,-1.688 -15.83,-3.719 -8.42,-2.82 -16.04,-7.238 -22.04,-12.789 l -0.2,-0.199 c -0.89,-0.813 -2.75,-2.532 -4.88,-5.242" /></g></g></svg>